<svg class="animated" id="freepik_stories-building-blocks" xmlns="http://www.w3.org/2000/svg" viewBox="0 0 500 500" version="1.1" xmlns:xlink="http://www.w3.org/1999/xlink" xmlns:svgjs="http://svgjs.com/svgjs"><style>svg#freepik_stories-building-blocks:not(.animated) .animable {opacity: 0;}svg#freepik_stories-building-blocks.animated #freepik--Floor--inject-80 {animation: 1s 1 forwards cubic-bezier(.36,-0.01,.5,1.38) slideUp;animation-delay: 0s;}svg#freepik_stories-building-blocks.animated #freepik--Shadows--inject-80 {animation: 1s 1 forwards cubic-bezier(.36,-0.01,.5,1.38) slideDown;animation-delay: 0s;}svg#freepik_stories-building-blocks.animated #freepik--Plants--inject-80 {animation: 1s 1 forwards cubic-bezier(.36,-0.01,.5,1.38) lightSpeedRight;animation-delay: 0s;}svg#freepik_stories-building-blocks.animated #freepik--Blocks--inject-80 {animation: 1s 1 forwards cubic-bezier(.36,-0.01,.5,1.38) slideDown;animation-delay: 0s;}svg#freepik_stories-building-blocks.animated #freepik--Clouds--inject-80 {animation: 1s 1 forwards cubic-bezier(.36,-0.01,.5,1.38) slideDown;animation-delay: 0s;}svg#freepik_stories-building-blocks.animated #freepik--Character--inject-80 {animation: 1s 1 forwards cubic-bezier(.36,-0.01,.5,1.38) slideDown;animation-delay: 0s;}            @keyframes slideUp {                0% {                    opacity: 0;                    transform: translateY(30px);                }                100% {                    opacity: 1;                    transform: inherit;                }            }                    @keyframes slideDown {                0% {                    opacity: 0;                    transform: translateY(-30px);                }                100% {                    opacity: 1;                    transform: translateY(0);                }            }                    @keyframes lightSpeedRight {              from {                transform: translate3d(50%, 0, 0) skewX(-20deg);                opacity: 0;              }              60% {                transform: skewX(10deg);                opacity: 1;              }              80% {                transform: skewX(-2deg);              }              to {                opacity: 1;                transform: translate3d(0, 0, 0);              }            }        </style><g id="freepik--Floor--inject-80" class="animable" style="transform-origin: 249.53px 345.67px;"><ellipse id="freepik--floor--inject-80" cx="249.53" cy="345.67" rx="234.27" ry="135.26" style="fill: rgb(245, 245, 245); transform-origin: 249.53px 345.67px;" class="animable"></ellipse></g><g id="freepik--Shadows--inject-80" class="animable" style="transform-origin: 247.496px 341.864px;"><path id="freepik--Shadow--inject-80" d="M438.58,391.87,361.09,347a2.37,2.37,0,0,0-2.17,0l-70.81,40.79a.66.66,0,0,0,0,1.25l77.5,44.87a2.35,2.35,0,0,0,2.16,0l70.82-40.79C439.18,392.78,439.18,392.22,438.58,391.87Z" style="fill: rgb(224, 224, 224); transform-origin: 363.347px 390.455px;" class="animable"></path><path id="freepik--shadow--inject-80" d="M375,294.68l-77.5-44.87a2.41,2.41,0,0,0-2.16,0L85.17,370.92c-.6.34-.6.9,0,1.25L162.66,417a2.38,2.38,0,0,0,2.16,0L375,295.93A.66.66,0,0,0,375,294.68Z" style="fill: rgb(224, 224, 224); transform-origin: 230.084px 333.407px;" class="animable"></path><ellipse id="freepik--shadow--inject-80" cx="104.55" cy="288.42" rx="48.59" ry="28.05" style="fill: rgb(224, 224, 224); transform-origin: 104.55px 288.42px;" class="animable"></ellipse></g><g id="freepik--Plants--inject-80" class="animable" style="transform-origin: 237.332px 310.003px;"><g id="freepik--Plant--inject-80" class="animable" style="transform-origin: 80.6175px 350.854px;"><path d="M98.73,375.14a33.61,33.61,0,0,1-17.09,3.33c-10.19-.57-13.52-6.22-13.52-6.22s5.87-8.41,12-9.79c0,0-9.91-.11-18.62,3.32,0,0-6-1.2-6.46-10.91,0,0,4.76-4.76,17.37-5.16,0,0-6.88-3.4-17.95-3-.85.14-1.65-12.46-1.48-18.16s2.36-5.16,6.88-5.38,19.22,2.2,21.39,5.13,1.79,11.25,1.79,11.25a25.61,25.61,0,0,0,4.65-10s2.87-.41,8.77,3c10.87,6.27,11.7,13.59,11.81,19.15C108.42,357.87,106.53,369.37,98.73,375.14Z" style="fill: rgb(104, 124, 133); transform-origin: 80.6175px 350.854px;" id="elp2yjnz0qgoe" class="animable"></path><path d="M98.61,375.7a.59.59,0,0,1-.43-.42c-4.39-18.25-29.82-43.83-40-48.17a.57.57,0,1,1,.45-1.05C69,330.48,94.83,356.48,99.28,375a.55.55,0,0,1-.41.68A.46.46,0,0,1,98.61,375.7Z" style="fill: rgb(255, 255, 255); transform-origin: 78.5664px 350.862px;" id="el7vu0m1jgqij" class="animable"></path></g><g id="freepik--plant--inject-80" class="animable" style="transform-origin: 390.495px 269.834px;"><path d="M361,284.65a24.83,24.83,0,0,1-1.34-4.86,20.67,20.67,0,0,1,.91-11.11,13.77,13.77,0,0,1,7.67-7.86,8.21,8.21,0,0,0,3.32-1.7,10.54,10.54,0,0,0,2-3.69A39.32,39.32,0,0,1,376,249a11.58,11.58,0,0,1,14.33-4.51c1.14.53,2.18,1.24,3.35,1.67,3.73,1.37,7.83-2.2,11.23-3.38,4.05-1.4,8.78-2.1,12.72,0,4.93,2.64,5.33,8.15,1.52,12.14-1.79,1.87-4,3.58-4.64,6.09-.9,3.63,2,7.29,1.49,11-.5,3.94-2.76,5.39-6.4,6.51l-4.09,1.27a9.07,9.07,0,0,0-4.44,2.35c-1.71,2-1.67,5.18-2.34,7.6a9.51,9.51,0,0,1-5.1,5.79A25.32,25.32,0,0,1,379,298a24.81,24.81,0,0,1-8.85-2.45c-4-2.12-7.24-6.38-9-10.47Z" style="fill: rgb(104, 124, 133); transform-origin: 390.495px 269.834px;" id="el5cbanbhsjmb" class="animable"></path><path d="M365.56,289c1.18.67,3.18-3.68,3.76-4.49,1.47-2.09,3-4.11,4.65-6.08a100,100,0,0,1,9.51-10A95.85,95.85,0,0,1,400.2,256a52.75,52.75,0,0,1,7.7-3.86.6.6,0,0,0,.35-.77.58.58,0,0,0-.76-.35c-8.66,3.27-16.72,9.26-23.57,15.34a101.46,101.46,0,0,0-10.09,10.33c-1.22,1.43-9.55,11.2-8.35,12.2Z" style="fill: rgb(255, 255, 255); transform-origin: 386.825px 270.025px;" id="el95b2131rs1b" class="animable"></path><path d="M381.65,269.74h.14c8.42-.91,21.44,1.67,21.57,1.69a.6.6,0,0,0,.7-.47.59.59,0,0,0-.47-.7c-.54-.11-13.32-2.63-21.93-1.71a.59.59,0,0,0,0,1.18Z" style="fill: rgb(255, 255, 255); transform-origin: 392.573px 269.894px;" id="elr1n8c0e1mzh" class="animable"></path><path d="M386,265.82h0a.59.59,0,0,0,.63-.56,45.16,45.16,0,0,0-1.16-12.81.6.6,0,0,0-1.16.3,45,45,0,0,1,1.13,12.44A.6.6,0,0,0,386,265.82Z" style="fill: rgb(255, 255, 255); transform-origin: 385.495px 258.927px;" id="elkn8xfwv5fe7" class="animable"></path></g></g><g id="freepik--Blocks--inject-80" class="animable" style="transform-origin: 265.115px 281.21px;"><g id="freepik--black-block--inject-80" class="animable" style="transform-origin: 302.4px 275.375px;"><polygon points="368.36 295.42 302.4 333.5 302.4 293.42 368.36 255.33 368.36 295.42" style="fill: rgb(55, 71, 79); transform-origin: 335.38px 294.415px;" id="el3kbsn0phc74" class="animable"></polygon><polygon points="236.44 295.42 302.4 333.5 302.4 293.42 236.44 255.33 236.44 295.42" style="fill: rgb(38, 50, 56); transform-origin: 269.42px 294.415px;" id="elq3xfk58p7m" class="animable"></polygon><polygon points="368.36 255.33 302.4 217.25 236.44 255.33 302.4 293.42 368.36 255.33" id="el6t001b8vpw5" class="animable" style="transform-origin: 302.4px 255.335px;"></polygon><path d="M314,262.79c3.21,1.85,4.81,4.28,4.81,6.71V276c0,2.43-1.6,4.86-4.81,6.71a23.81,23.81,0,0,1-11.63,2.78V260A23.7,23.7,0,0,1,314,262.79Z" style="fill: rgb(55, 71, 79); transform-origin: 310.59px 272.745px;" id="elzt2jkbkg6g9" class="animable"></path><path d="M290.77,262.79c-3.21,1.85-4.81,4.28-4.81,6.71V276c0,2.43,1.6,4.86,4.81,6.71a23.81,23.81,0,0,0,11.63,2.78V260A23.7,23.7,0,0,0,290.77,262.79Z" style="fill: rgb(38, 50, 56); transform-origin: 294.18px 272.745px;" id="el6dhlmm76yi" class="animable"></path><path d="M290.77,262.79c-6.42,3.7-6.42,9.71,0,13.42s16.83,3.71,23.26,0,6.42-9.72,0-13.42S297.19,259.08,290.77,262.79Z" style="fill: rgb(69, 90, 100); transform-origin: 302.402px 269.502px;" id="elxndwrjvm5p" class="animable"></path><g id="elbzlj73ze3v"><path d="M290.77,262.79c-6.42,3.7-6.42,9.71,0,13.42s16.83,3.71,23.26,0,6.42-9.72,0-13.42S297.19,259.08,290.77,262.79Z" style="fill: rgb(255, 255, 255); opacity: 0.07; transform-origin: 302.402px 269.502px;" class="animable"></path></g><path d="M314,225.64c3.21,1.85,4.81,4.28,4.81,6.71v6.49c0,2.43-1.6,4.86-4.81,6.71a23.7,23.7,0,0,1-11.63,2.78V222.86A23.81,23.81,0,0,1,314,225.64Z" style="fill: rgb(55, 71, 79); transform-origin: 310.59px 235.595px;" id="elz7k2h3ohf8" class="animable"></path><path d="M290.77,225.64c-3.21,1.85-4.81,4.28-4.81,6.71v6.49c0,2.43,1.6,4.86,4.81,6.71a23.7,23.7,0,0,0,11.63,2.78V222.86A23.81,23.81,0,0,0,290.77,225.64Z" style="fill: rgb(38, 50, 56); transform-origin: 294.18px 235.595px;" id="elivelc6ap4a" class="animable"></path><path d="M290.77,225.64c-6.42,3.71-6.42,9.72,0,13.43s16.83,3.7,23.26,0,6.42-9.72,0-13.43S297.19,221.93,290.77,225.64Z" style="fill: rgb(69, 90, 100); transform-origin: 302.402px 232.353px;" id="els8zf3fm86ra" class="animable"></path><g id="el4fk5ao4g3dp"><path d="M290.77,225.64c-6.42,3.71-6.42,9.72,0,13.43s16.83,3.7,23.26,0,6.42-9.72,0-13.43S297.19,221.93,290.77,225.64Z" style="fill: rgb(255, 255, 255); opacity: 0.07; transform-origin: 302.402px 232.353px;" class="animable"></path></g><path d="M346.18,244.22c3.21,1.85,4.82,4.28,4.82,6.71v6.49c0,2.43-1.61,4.86-4.82,6.71a23.77,23.77,0,0,1-11.62,2.78V241.44A23.66,23.66,0,0,1,346.18,244.22Z" style="fill: rgb(55, 71, 79); transform-origin: 342.78px 254.175px;" id="el8clyztlkvo6" class="animable"></path><path d="M322.93,244.22c-3.21,1.85-4.81,4.28-4.81,6.71v6.49c0,2.43,1.6,4.86,4.81,6.71a23.81,23.81,0,0,0,11.63,2.78V241.44A23.7,23.7,0,0,0,322.93,244.22Z" style="fill: rgb(38, 50, 56); transform-origin: 326.34px 254.175px;" id="elhjilrwhq0pa" class="animable"></path><path d="M322.93,244.22c-6.42,3.7-6.42,9.71,0,13.42s16.83,3.71,23.25,0,6.43-9.72,0-13.42S329.35,240.51,322.93,244.22Z" style="fill: rgb(69, 90, 100); transform-origin: 334.557px 250.932px;" id="eloai22fr13s" class="animable"></path><g id="elrx346isvhib"><path d="M322.93,244.22c-6.42,3.7-6.42,9.71,0,13.42s16.83,3.71,23.25,0,6.43-9.72,0-13.42S329.35,240.51,322.93,244.22Z" style="fill: rgb(255, 255, 255); opacity: 0.07; transform-origin: 334.557px 250.932px;" class="animable"></path></g><path d="M281.87,244.2c3.21,1.86,4.81,4.29,4.81,6.72v6.49c0,2.42-1.6,4.85-4.81,6.71a23.81,23.81,0,0,1-11.63,2.78V241.42A23.81,23.81,0,0,1,281.87,244.2Z" style="fill: rgb(55, 71, 79); transform-origin: 278.46px 254.16px;" id="elxvxqc5d99a" class="animable"></path><path d="M258.61,244.2c-3.21,1.86-4.81,4.29-4.81,6.72v6.49c0,2.42,1.6,4.85,4.81,6.71a23.81,23.81,0,0,0,11.63,2.78V241.42A23.81,23.81,0,0,0,258.61,244.2Z" style="fill: rgb(38, 50, 56); transform-origin: 262.02px 254.16px;" id="elkzt84aduzzj" class="animable"></path><path d="M258.61,244.2c-6.42,3.71-6.42,9.72,0,13.43s16.84,3.71,23.26,0,6.42-9.72,0-13.43S265,240.5,258.61,244.2Z" style="fill: rgb(69, 90, 100); transform-origin: 270.24px 250.917px;" id="ellnrq7mtgv6" class="animable"></path><g id="elrecibz8chbd"><path d="M258.61,244.2c-6.42,3.71-6.42,9.72,0,13.43s16.84,3.71,23.26,0,6.42-9.72,0-13.43S265,240.5,258.61,244.2Z" style="fill: rgb(255, 255, 255); opacity: 0.07; transform-origin: 270.24px 250.917px;" class="animable"></path></g></g><g id="freepik--color-block--inject-80" class="animable" style="transform-origin: 366.69px 373.015px;"><polygon points="432.65 393.06 366.69 431.14 366.69 391.05 432.65 352.97 432.65 393.06" style="fill: rgb(104, 124, 133); transform-origin: 399.67px 392.055px;" id="el9oyhwjx17tp" class="animable"></polygon><g id="el2nxjxxxf8kp"><polygon points="432.65 393.06 366.69 431.14 366.69 391.05 432.65 352.97 432.65 393.06" style="opacity: 0.1; transform-origin: 399.67px 392.055px;" class="animable"></polygon></g><polygon points="300.74 393.06 366.69 431.14 366.69 391.05 300.73 352.97 300.74 393.06" style="fill: rgb(104, 124, 133); transform-origin: 333.71px 392.055px;" id="eloto7ab2gd8c" class="animable"></polygon><g id="el82auv2tb6le"><polygon points="300.74 393.06 366.69 431.14 366.69 391.05 300.73 352.97 300.74 393.06" style="opacity: 0.2; transform-origin: 333.71px 392.055px;" class="animable"></polygon></g><polygon points="432.65 352.97 366.69 314.89 300.73 352.97 366.69 391.05 432.65 352.97" style="fill: rgb(104, 124, 133); transform-origin: 366.69px 352.97px;" id="elou122mgexy" class="animable"></polygon><path d="M383.13,330c0-2.43-1.6-4.86-4.81-6.71-6.42-3.71-16.83-3.71-23.25,0-3.21,1.85-4.82,4.28-4.82,6.71v6.49c0,2.43,1.61,4.85,4.82,6.71,6.42,3.71,16.83,3.71,23.25,0,3.21-1.86,4.82-4.28,4.81-6.71Z" style="fill: rgb(104, 124, 133); transform-origin: 366.69px 333.245px;" id="elwzwggtfybh" class="animable"></path><g id="el3nyjxtod6u7"><path d="M378.32,323.28c3.21,1.85,4.82,4.28,4.81,6.71v6.49c0,2.43-1.6,4.85-4.81,6.71A23.81,23.81,0,0,1,366.69,346V320.5A23.7,23.7,0,0,1,378.32,323.28Z" style="opacity: 0.1; transform-origin: 374.91px 333.249px;" class="animable"></path></g><g id="elewq9o9ca3za"><path d="M355.07,323.28c-3.21,1.85-4.82,4.28-4.82,6.71v6.49c0,2.43,1.61,4.85,4.82,6.71A23.8,23.8,0,0,0,366.69,346V320.5A23.69,23.69,0,0,0,355.07,323.28Z" style="opacity: 0.2; transform-origin: 358.47px 333.249px;" class="animable"></path></g><path d="M355.07,323.28c-6.42,3.7-6.42,9.71,0,13.42s16.83,3.71,23.25,0,6.42-9.72,0-13.42S361.49,319.57,355.07,323.28Z" style="fill: rgb(104, 124, 133); transform-origin: 366.695px 329.992px;" id="elmktevpeuwac" class="animable"></path><g id="elmwnu439jbkl"><path d="M355.07,323.28c-6.42,3.7-6.42,9.71,0,13.42s16.83,3.71,23.25,0,6.42-9.72,0-13.42S361.49,319.57,355.07,323.28Z" style="fill: rgb(255, 255, 255); opacity: 0.3; transform-origin: 366.695px 329.992px;" class="animable"></path></g><path d="M383.13,367.13c0-2.42-1.6-4.85-4.81-6.71-6.42-3.71-16.83-3.71-23.25,0-3.21,1.86-4.82,4.28-4.82,6.71v6.49c0,2.43,1.61,4.86,4.82,6.71,6.42,3.71,16.83,3.71,23.25,0,3.21-1.85,4.82-4.28,4.81-6.71Z" style="fill: rgb(104, 124, 133); transform-origin: 366.69px 370.375px;" id="eltu87speou8" class="animable"></path><g id="el12uzoxqcbdeq"><path d="M378.32,360.42c3.21,1.86,4.82,4.28,4.81,6.71v6.49c0,2.43-1.6,4.86-4.81,6.71a23.59,23.59,0,0,1-11.63,2.78V357.64A23.81,23.81,0,0,1,378.32,360.42Z" style="opacity: 0.1; transform-origin: 374.91px 370.376px;" class="animable"></path></g><g id="elwmn1g8s75e"><path d="M355.07,360.42c-3.21,1.86-4.82,4.28-4.82,6.71v6.49c0,2.43,1.61,4.86,4.82,6.71a23.58,23.58,0,0,0,11.62,2.78V357.64A23.8,23.8,0,0,0,355.07,360.42Z" style="opacity: 0.2; transform-origin: 358.47px 370.376px;" class="animable"></path></g><path d="M355.07,360.42c-6.42,3.71-6.42,9.72,0,13.43s16.83,3.7,23.25,0,6.42-9.72,0-13.43S361.49,356.71,355.07,360.42Z" style="fill: rgb(104, 124, 133); transform-origin: 366.695px 367.133px;" id="elbg9qz66uum" class="animable"></path><g id="ely0zv9o5rav"><path d="M355.07,360.42c-6.42,3.71-6.42,9.72,0,13.43s16.83,3.7,23.25,0,6.42-9.72,0-13.43S361.49,356.71,355.07,360.42Z" style="fill: rgb(255, 255, 255); opacity: 0.3; transform-origin: 366.695px 367.133px;" class="animable"></path></g><path d="M351,348.55c0-2.43-1.61-4.86-4.82-6.71-6.42-3.71-16.83-3.71-23.25,0-3.21,1.85-4.82,4.28-4.82,6.71V355c0,2.43,1.61,4.86,4.82,6.71,6.42,3.71,16.83,3.71,23.25,0,3.21-1.85,4.82-4.28,4.82-6.71C351,353.24,351,350.35,351,348.55Z" style="fill: rgb(104, 124, 133); transform-origin: 334.555px 351.775px;" id="elepwgq8p1jp6" class="animable"></path><g id="elqhhb5pyn2qd"><path d="M346.16,341.84c3.21,1.85,4.82,4.28,4.82,6.71,0,1.8,0,4.69,0,6.49,0,2.43-1.61,4.86-4.82,6.71a23.7,23.7,0,0,1-11.63,2.78V339.06A23.81,23.81,0,0,1,346.16,341.84Z" style="opacity: 0.1; transform-origin: 342.755px 351.795px;" class="animable"></path></g><g id="elm916cme7v1"><path d="M322.91,341.84c-3.21,1.85-4.82,4.28-4.82,6.71V355c0,2.43,1.61,4.86,4.82,6.71a23.69,23.69,0,0,0,11.62,2.78V339.06A23.8,23.8,0,0,0,322.91,341.84Z" style="opacity: 0.2; transform-origin: 326.31px 351.775px;" class="animable"></path></g><path d="M322.91,341.84c-6.42,3.71-6.42,9.72,0,13.42s16.83,3.71,23.25,0,6.42-9.71,0-13.42S329.33,338.13,322.91,341.84Z" style="fill: rgb(104, 124, 133); transform-origin: 334.535px 348.548px;" id="elt8qp0a4l7jc" class="animable"></path><g id="elwo882kpuqwg"><path d="M322.91,341.84c-6.42,3.71-6.42,9.72,0,13.42s16.83,3.71,23.25,0,6.42-9.71,0-13.42S329.33,338.13,322.91,341.84Z" style="fill: rgb(255, 255, 255); opacity: 0.3; transform-origin: 334.535px 348.548px;" class="animable"></path></g><path d="M415.29,348.56c0-2.43-1.6-4.86-4.81-6.71-6.42-3.71-16.83-3.71-23.25,0-3.22,1.85-4.82,4.28-4.82,6.71v6.49c0,2.43,1.6,4.86,4.81,6.71,6.43,3.71,16.84,3.71,23.26,0,3.21-1.85,4.81-4.28,4.81-6.71Z" style="fill: rgb(104, 124, 133); transform-origin: 398.85px 351.805px;" id="elktmp3h4shlq" class="animable"></path><g id="elnvmei1hnyso"><path d="M410.48,341.85c3.21,1.85,4.81,4.28,4.81,6.71v6.49c0,2.43-1.6,4.86-4.81,6.71a23.7,23.7,0,0,1-11.63,2.78V339.07A23.81,23.81,0,0,1,410.48,341.85Z" style="opacity: 0.1; transform-origin: 407.07px 351.805px;" class="animable"></path></g><g id="elf27gmlb7ch"><path d="M387.23,341.85c-3.22,1.85-4.82,4.28-4.82,6.71v6.49c0,2.43,1.6,4.86,4.81,6.71a23.73,23.73,0,0,0,11.63,2.78V339.07A23.77,23.77,0,0,0,387.23,341.85Z" style="opacity: 0.2; transform-origin: 390.63px 351.805px;" class="animable"></path></g><path d="M387.23,341.85c-6.43,3.71-6.43,9.72,0,13.43s16.84,3.7,23.26,0,6.42-9.72,0-13.43S393.65,338.14,387.23,341.85Z" style="fill: rgb(104, 124, 133); transform-origin: 398.856px 348.563px;" id="el00vhfi6qbv9o" class="animable"></path><g id="elf3ngo67sugf"><path d="M387.23,341.85c-6.43,3.71-6.43,9.72,0,13.43s16.84,3.7,23.26,0,6.42-9.72,0-13.43S393.65,338.14,387.23,341.85Z" style="fill: rgb(255, 255, 255); opacity: 0.3; transform-origin: 398.856px 348.563px;" class="animable"></path></g></g><g id="freepik--dark-color-block--inject-80" class="animable" style="transform-origin: 302.4px 232.385px;"><polygon points="368.36 252.43 302.4 290.51 302.4 250.42 368.36 212.34 368.36 252.43" style="fill: rgb(104, 124, 133); transform-origin: 335.38px 251.425px;" id="elkmh5akxswyo" class="animable"></polygon><g id="elzzxowsu5lr"><polygon points="368.36 252.43 302.4 290.51 302.4 250.42 368.36 212.34 368.36 252.43" style="opacity: 0.3; transform-origin: 335.38px 251.425px;" class="animable"></polygon></g><polygon points="236.44 252.43 302.4 290.51 302.4 250.42 236.44 212.34 236.44 252.43" style="fill: rgb(104, 124, 133); transform-origin: 269.42px 251.425px;" id="elth102y943uk" class="animable"></polygon><g id="el37bn0k9zkhr"><polygon points="236.44 252.43 302.4 290.51 302.4 250.42 236.44 212.34 236.44 252.43" style="opacity: 0.4; transform-origin: 269.42px 251.425px;" class="animable"></polygon></g><polygon points="368.36 212.34 302.4 174.26 236.44 212.34 302.4 250.42 368.36 212.34" style="fill: rgb(104, 124, 133); transform-origin: 302.4px 212.34px;" id="ellcs37l9cwo" class="animable"></polygon><g id="eleeknztv1lwm"><polygon points="368.36 212.34 302.4 174.26 236.44 212.34 302.4 250.42 368.36 212.34" style="opacity: 0.55; transform-origin: 302.4px 212.34px;" class="animable"></polygon></g><path d="M318.84,189.36c0-2.43-1.6-4.86-4.81-6.71-6.42-3.71-16.84-3.71-23.26,0-3.21,1.85-4.81,4.28-4.81,6.71v6.49c0,2.43,1.6,4.86,4.81,6.71,6.42,3.71,16.83,3.71,23.26,0,3.21-1.85,4.81-4.28,4.81-6.71Z" style="fill: rgb(104, 124, 133); transform-origin: 302.4px 192.605px;" id="el9hq894oboaf" class="animable"></path><g id="elyabo0i2gj2m"><path d="M314,182.65c3.21,1.85,4.81,4.28,4.81,6.71v6.49c0,2.43-1.6,4.86-4.81,6.71a23.81,23.81,0,0,1-11.63,2.78V179.87A23.7,23.7,0,0,1,314,182.65Z" style="opacity: 0.3; transform-origin: 310.59px 192.605px;" class="animable"></path></g><g id="el425eytb1gca"><path d="M290.77,182.65c-3.21,1.85-4.81,4.28-4.81,6.71v6.49c0,2.43,1.6,4.86,4.81,6.71a23.81,23.81,0,0,0,11.63,2.78V179.87A23.7,23.7,0,0,0,290.77,182.65Z" style="opacity: 0.4; transform-origin: 294.18px 192.605px;" class="animable"></path></g><path d="M290.77,182.65c-6.42,3.7-6.42,9.71,0,13.42s16.83,3.71,23.26,0,6.42-9.72,0-13.42S297.19,178.94,290.77,182.65Z" style="fill: rgb(104, 124, 133); transform-origin: 302.402px 189.362px;" id="elir51ydmho1" class="animable"></path><g id="elel7rpz3g3qg"><path d="M290.77,182.65c-6.42,3.7-6.42,9.71,0,13.42s16.83,3.71,23.26,0,6.42-9.72,0-13.42S297.19,178.94,290.77,182.65Z" style="fill: rgb(255, 255, 255); opacity: 0.3; transform-origin: 302.402px 189.362px;" class="animable"></path></g><path d="M318.84,226.51c0-2.43-1.6-4.86-4.81-6.72-6.42-3.7-16.84-3.7-23.26,0-3.21,1.86-4.81,4.29-4.81,6.71V233c0,2.43,1.6,4.86,4.81,6.72,6.42,3.7,16.83,3.7,23.26,0,3.21-1.86,4.81-4.29,4.81-6.72Z" style="fill: rgb(104, 124, 133); transform-origin: 302.4px 229.755px;" id="elp3bi2jmbpzc" class="animable"></path><g id="eljy2lamas5t"><path d="M314,219.79c3.21,1.86,4.81,4.29,4.81,6.71V233c0,2.43-1.6,4.86-4.81,6.72a23.81,23.81,0,0,1-11.63,2.78V217A23.81,23.81,0,0,1,314,219.79Z" style="opacity: 0.3; transform-origin: 310.59px 229.75px;" class="animable"></path></g><g id="elta03r4kcib"><path d="M290.77,219.79c-3.21,1.86-4.81,4.29-4.81,6.71V233c0,2.43,1.6,4.86,4.81,6.72a23.81,23.81,0,0,0,11.63,2.78V217A23.81,23.81,0,0,0,290.77,219.79Z" style="opacity: 0.4; transform-origin: 294.18px 229.75px;" class="animable"></path></g><path d="M290.77,219.79c-6.42,3.71-6.42,9.72,0,13.43s16.83,3.71,23.26,0,6.42-9.72,0-13.43S297.19,216.09,290.77,219.79Z" style="fill: rgb(104, 124, 133); transform-origin: 302.402px 226.507px;" id="el75dkblcmxsk" class="animable"></path><g id="elquix9pu9f7"><path d="M290.77,219.79c-6.42,3.71-6.42,9.72,0,13.43s16.83,3.71,23.26,0,6.42-9.72,0-13.43S297.19,216.09,290.77,219.79Z" style="fill: rgb(255, 255, 255); opacity: 0.3; transform-origin: 302.402px 226.507px;" class="animable"></path></g><path d="M286.68,207.92c0-2.43-1.6-4.86-4.81-6.71-6.42-3.71-16.83-3.71-23.26,0-3.21,1.85-4.81,4.28-4.81,6.71v6.49c0,2.43,1.6,4.86,4.81,6.71,6.42,3.71,16.84,3.71,23.26,0,3.21-1.85,4.81-4.28,4.81-6.71Z" style="fill: rgb(104, 124, 133); transform-origin: 270.24px 211.165px;" id="eldtmr6t922dc" class="animable"></path><g id="elu1ud62bby5"><path d="M281.87,201.21c3.21,1.85,4.81,4.28,4.81,6.71v6.49c0,2.43-1.6,4.86-4.81,6.71a23.7,23.7,0,0,1-11.63,2.78V198.43A23.81,23.81,0,0,1,281.87,201.21Z" style="opacity: 0.3; transform-origin: 278.46px 211.165px;" class="animable"></path></g><g id="elg6bz5za9vse"><path d="M258.61,201.21c-3.21,1.85-4.81,4.28-4.81,6.71v6.49c0,2.43,1.6,4.86,4.81,6.71a23.7,23.7,0,0,0,11.63,2.78V198.43A23.81,23.81,0,0,0,258.61,201.21Z" style="opacity: 0.4; transform-origin: 262.02px 211.165px;" class="animable"></path></g><path d="M258.61,201.21c-6.42,3.71-6.42,9.72,0,13.43s16.84,3.7,23.26,0,6.42-9.72,0-13.43S265,197.5,258.61,201.21Z" style="fill: rgb(104, 124, 133); transform-origin: 270.24px 207.923px;" id="elbp2uw8o61vi" class="animable"></path><g id="elpm6vb5dxit"><path d="M258.61,201.21c-6.42,3.71-6.42,9.72,0,13.43s16.84,3.7,23.26,0,6.42-9.72,0-13.43S265,197.5,258.61,201.21Z" style="fill: rgb(255, 255, 255); opacity: 0.3; transform-origin: 270.24px 207.923px;" class="animable"></path></g><path d="M351,207.93c0-2.42-1.6-4.85-4.82-6.71-6.42-3.71-16.83-3.71-23.25,0-3.21,1.86-4.81,4.28-4.81,6.71v6.49c0,2.43,1.6,4.86,4.81,6.71,6.42,3.71,16.83,3.71,23.25,0,3.22-1.85,4.82-4.28,4.82-6.71Z" style="fill: rgb(104, 124, 133); transform-origin: 334.56px 211.175px;" id="elwz0vioyfj8" class="animable"></path><g id="el4c6hy1c0dep"><path d="M346.18,201.22c3.21,1.86,4.82,4.28,4.82,6.71v6.49c0,2.43-1.61,4.86-4.82,6.71a23.66,23.66,0,0,1-11.62,2.78V198.44A23.77,23.77,0,0,1,346.18,201.22Z" style="opacity: 0.3; transform-origin: 342.78px 211.175px;" class="animable"></path></g><g id="elg10w5ofcdga"><path d="M322.93,201.22c-3.21,1.86-4.81,4.28-4.81,6.71v6.49c0,2.43,1.6,4.86,4.81,6.71a23.7,23.7,0,0,0,11.63,2.78V198.44A23.81,23.81,0,0,0,322.93,201.22Z" style="opacity: 0.4; transform-origin: 326.34px 211.175px;" class="animable"></path></g><path d="M322.93,201.22c-6.42,3.71-6.42,9.72,0,13.43s16.83,3.7,23.25,0,6.43-9.72,0-13.43S329.35,197.51,322.93,201.22Z" style="fill: rgb(104, 124, 133); transform-origin: 334.557px 207.933px;" id="elvuekfxo775" class="animable"></path><g id="elycd6417nr0f"><path d="M322.93,201.22c-6.42,3.71-6.42,9.72,0,13.43s16.83,3.7,23.25,0,6.43-9.72,0-13.43S329.35,197.51,322.93,201.22Z" style="fill: rgb(255, 255, 255); opacity: 0.3; transform-origin: 334.557px 207.933px;" class="animable"></path></g></g><g id="freepik--dark-color-block--inject-80" class="animable" style="transform-origin: 232.97px 315.465px;"><polygon points="298.93 335.5 232.97 373.59 232.97 333.5 298.93 295.42 298.93 335.5" style="fill: rgb(104, 124, 133); transform-origin: 265.95px 334.505px;" id="el1git71iaxtt" class="animable"></polygon><g id="elfrbiz98hy4u"><polygon points="298.93 335.5 232.97 373.59 232.97 333.5 298.93 295.42 298.93 335.5" style="opacity: 0.3; transform-origin: 265.95px 334.505px;" class="animable"></polygon></g><polygon points="167.01 335.5 232.97 373.59 232.97 333.5 167.01 295.42 167.01 335.5" style="fill: rgb(104, 124, 133); transform-origin: 199.99px 334.505px;" id="elktc0ib31r7j" class="animable"></polygon><g id="elagjyk1dj91i"><polygon points="167.01 335.5 232.97 373.59 232.97 333.5 167.01 295.42 167.01 335.5" style="opacity: 0.4; transform-origin: 199.99px 334.505px;" class="animable"></polygon></g><polygon points="298.93 295.42 232.97 257.34 167.01 295.42 232.97 333.5 298.93 295.42" style="fill: rgb(104, 124, 133); transform-origin: 232.97px 295.42px;" id="el4zjz23awsau" class="animable"></polygon><g id="elg9hm1p11y9v"><polygon points="298.93 295.42 232.97 257.34 167.01 295.42 232.97 333.5 298.93 295.42" style="opacity: 0.55; transform-origin: 232.97px 295.42px;" class="animable"></polygon></g><path d="M249.41,272.44c0-2.43-1.6-4.86-4.81-6.71-6.42-3.71-16.83-3.71-23.26,0-3.21,1.85-4.81,4.28-4.81,6.71v6.49c0,2.43,1.6,4.86,4.81,6.71,6.42,3.71,16.84,3.71,23.26,0,3.21-1.85,4.81-4.28,4.81-6.71Z" style="fill: rgb(104, 124, 133); transform-origin: 232.97px 275.685px;" id="elnmsjf7eaivh" class="animable"></path><g id="eleylimepe5c"><path d="M244.6,265.73c3.21,1.85,4.81,4.28,4.81,6.71v6.49c0,2.43-1.6,4.86-4.81,6.71A23.81,23.81,0,0,1,233,288.42V263A23.7,23.7,0,0,1,244.6,265.73Z" style="opacity: 0.3; transform-origin: 241.205px 275.709px;" class="animable"></path></g><g id="el9clipq34ygh"><path d="M221.34,265.73c-3.21,1.85-4.81,4.28-4.81,6.71v6.49c0,2.43,1.6,4.86,4.81,6.71A23.81,23.81,0,0,0,233,288.42V263A23.7,23.7,0,0,0,221.34,265.73Z" style="opacity: 0.4; transform-origin: 224.765px 275.709px;" class="animable"></path></g><path d="M221.34,265.73c-6.42,3.7-6.42,9.71,0,13.42s16.84,3.71,23.26,0,6.42-9.72,0-13.42S227.77,262,221.34,265.73Z" style="fill: rgb(104, 124, 133); transform-origin: 232.97px 272.438px;" id="elv50bloo73l9" class="animable"></path><g id="el5w28pxmf9kg"><path d="M221.34,265.73c-6.42,3.7-6.42,9.71,0,13.42s16.84,3.71,23.26,0,6.42-9.72,0-13.42S227.77,262,221.34,265.73Z" style="fill: rgb(255, 255, 255); opacity: 0.3; transform-origin: 232.97px 272.438px;" class="animable"></path></g><path d="M249.41,309.58c0-2.42-1.6-4.85-4.81-6.71-6.42-3.71-16.83-3.71-23.26,0-3.21,1.86-4.81,4.28-4.81,6.71v6.49c0,2.43,1.6,4.86,4.81,6.71,6.42,3.71,16.84,3.71,23.26,0,3.21-1.85,4.81-4.28,4.81-6.71Z" style="fill: rgb(104, 124, 133); transform-origin: 232.97px 312.825px;" id="elkf6six7dc5" class="animable"></path><g id="ell1vyntk5re"><path d="M244.6,302.87c3.21,1.86,4.81,4.28,4.81,6.71v6.49c0,2.43-1.6,4.86-4.81,6.71A23.71,23.71,0,0,1,233,325.57V300.09A23.81,23.81,0,0,1,244.6,302.87Z" style="opacity: 0.3; transform-origin: 241.205px 312.83px;" class="animable"></path></g><g id="el869dkswi4z5"><path d="M221.34,302.87c-3.21,1.86-4.81,4.28-4.81,6.71v6.49c0,2.43,1.6,4.86,4.81,6.71A23.71,23.71,0,0,0,233,325.57V300.09A23.81,23.81,0,0,0,221.34,302.87Z" style="opacity: 0.4; transform-origin: 224.765px 312.83px;" class="animable"></path></g><path d="M221.34,302.87c-6.42,3.71-6.42,9.72,0,13.43s16.84,3.7,23.26,0,6.42-9.72,0-13.43S227.77,299.16,221.34,302.87Z" style="fill: rgb(104, 124, 133); transform-origin: 232.97px 309.583px;" id="elk1exxsm55j" class="animable"></path><g id="elqavp3e88qe9"><path d="M221.34,302.87c-6.42,3.71-6.42,9.72,0,13.43s16.84,3.7,23.26,0,6.42-9.72,0-13.43S227.77,299.16,221.34,302.87Z" style="fill: rgb(255, 255, 255); opacity: 0.3; transform-origin: 232.97px 309.583px;" class="animable"></path></g><path d="M217.25,291c0-2.43-1.6-4.86-4.81-6.71-6.42-3.71-16.83-3.71-23.26,0-3.21,1.85-4.81,4.28-4.81,6.71v6.49c0,2.43,1.6,4.86,4.81,6.71,6.42,3.71,16.84,3.71,23.26,0,3.21-1.85,4.81-4.28,4.81-6.71Z" style="fill: rgb(104, 124, 133); transform-origin: 200.81px 294.245px;" id="elct176wppriq" class="animable"></path><g id="el9rcs44xh6m"><path d="M212.44,284.29c3.21,1.85,4.81,4.28,4.81,6.71v6.49c0,2.43-1.6,4.86-4.81,6.71A23.7,23.7,0,0,1,200.81,307V281.51A23.81,23.81,0,0,1,212.44,284.29Z" style="opacity: 0.3; transform-origin: 209.03px 294.255px;" class="animable"></path></g><g id="ellkmlbo2e5hi"><path d="M189.18,284.29c-3.21,1.85-4.81,4.28-4.81,6.71v6.49c0,2.43,1.6,4.86,4.81,6.71A23.7,23.7,0,0,0,200.81,307V281.51A23.84,23.84,0,0,0,189.18,284.29Z" style="opacity: 0.4; transform-origin: 192.59px 294.255px;" class="animable"></path></g><path d="M189.18,284.29c-6.42,3.71-6.42,9.72,0,13.42s16.84,3.71,23.26,0,6.42-9.71,0-13.42S195.61,280.58,189.18,284.29Z" style="fill: rgb(104, 124, 133); transform-origin: 200.81px 290.998px;" id="eljacet5ql7cb" class="animable"></path><g id="eloiees0aqyzf"><path d="M189.18,284.29c-6.42,3.71-6.42,9.72,0,13.42s16.84,3.71,23.26,0,6.42-9.71,0-13.42S195.61,280.58,189.18,284.29Z" style="fill: rgb(255, 255, 255); opacity: 0.3; transform-origin: 200.81px 290.998px;" class="animable"></path></g><path d="M281.57,291c0-2.43-1.6-4.85-4.82-6.71-6.42-3.71-16.83-3.71-23.25,0-3.21,1.85-4.81,4.28-4.81,6.71v6.49c0,2.43,1.6,4.86,4.81,6.71,6.42,3.71,16.83,3.71,23.25,0,3.22-1.85,4.82-4.28,4.82-6.71Z" style="fill: rgb(104, 124, 133); transform-origin: 265.13px 294.245px;" id="el21t8bqbz097" class="animable"></path><g id="el71s6vka6i2q"><path d="M276.75,284.3c3.21,1.85,4.82,4.28,4.82,6.71v6.49c0,2.43-1.6,4.86-4.81,6.71A23.73,23.73,0,0,1,265.13,307V281.52A23.77,23.77,0,0,1,276.75,284.3Z" style="opacity: 0.3; transform-origin: 273.35px 294.26px;" class="animable"></path></g><g id="elxahcm8gibfg"><path d="M253.5,284.3c-3.21,1.85-4.81,4.28-4.81,6.71v6.49c0,2.43,1.6,4.86,4.81,6.71A23.7,23.7,0,0,0,265.13,307V281.52A23.81,23.81,0,0,0,253.5,284.3Z" style="opacity: 0.4; transform-origin: 256.91px 294.26px;" class="animable"></path></g><path d="M253.5,284.3c-6.42,3.71-6.42,9.72,0,13.43s16.83,3.7,23.25,0,6.43-9.72,0-13.43S259.92,280.59,253.5,284.3Z" style="fill: rgb(104, 124, 133); transform-origin: 265.127px 291.013px;" id="el6iwlk10iat6" class="animable"></path><g id="el6pgtqtt4bx"><path d="M253.5,284.3c-6.42,3.71-6.42,9.72,0,13.43s16.83,3.7,23.25,0,6.43-9.72,0-13.43S259.92,280.59,253.5,284.3Z" style="fill: rgb(255, 255, 255); opacity: 0.3; transform-origin: 265.127px 291.013px;" class="animable"></path></g></g><g id="freepik--color-block--inject-80" class="animable" style="transform-origin: 232.97px 272.465px;"><polygon points="298.93 292.51 232.97 330.59 232.97 290.51 298.93 252.43 298.93 292.51" style="fill: rgb(104, 124, 133); transform-origin: 265.95px 291.51px;" id="elp89kz7n1h6h" class="animable"></polygon><g id="ela5fg4hbpjhg"><polygon points="298.93 292.51 232.97 330.59 232.97 290.51 298.93 252.43 298.93 292.51" style="opacity: 0.1; transform-origin: 265.95px 291.51px;" class="animable"></polygon></g><polygon points="167.01 292.51 232.97 330.59 232.97 290.51 167.01 252.43 167.01 292.51" style="fill: rgb(104, 124, 133); transform-origin: 199.99px 291.51px;" id="el4rgazky7ayx" class="animable"></polygon><g id="elg303yt0wbqs"><polygon points="167.01 292.51 232.97 330.59 232.97 290.51 167.01 252.43 167.01 292.51" style="opacity: 0.2; transform-origin: 199.99px 291.51px;" class="animable"></polygon></g><polygon points="298.93 252.43 232.97 214.34 167.01 252.43 232.97 290.51 298.93 252.43" style="fill: rgb(104, 124, 133); transform-origin: 232.97px 252.425px;" id="el54pypeyygxx" class="animable"></polygon><path d="M249.41,229.44c0-2.43-1.6-4.85-4.81-6.71-6.42-3.71-16.83-3.71-23.26,0-3.21,1.86-4.81,4.28-4.81,6.71v6.49c0,2.43,1.6,4.86,4.81,6.71,6.42,3.71,16.84,3.71,23.26,0,3.21-1.85,4.81-4.28,4.81-6.71Z" style="fill: rgb(104, 124, 133); transform-origin: 232.97px 232.685px;" id="elyzgtc2qmbif" class="animable"></path><g id="elcbzppcx2p5w"><path d="M244.6,222.73c3.21,1.86,4.81,4.28,4.81,6.71v6.49c0,2.43-1.6,4.86-4.81,6.71A23.7,23.7,0,0,1,233,245.42V220A23.81,23.81,0,0,1,244.6,222.73Z" style="opacity: 0.1; transform-origin: 241.205px 232.709px;" class="animable"></path></g><g id="elxtq8nwdzx9"><path d="M221.34,222.73c-3.21,1.86-4.81,4.28-4.81,6.71v6.49c0,2.43,1.6,4.86,4.81,6.71A23.7,23.7,0,0,0,233,245.42V220A23.81,23.81,0,0,0,221.34,222.73Z" style="opacity: 0.2; transform-origin: 224.765px 232.709px;" class="animable"></path></g><path d="M221.34,222.73c-6.42,3.71-6.42,9.72,0,13.43s16.84,3.7,23.26,0,6.42-9.72,0-13.43S227.77,219,221.34,222.73Z" style="fill: rgb(104, 124, 133); transform-origin: 232.97px 229.439px;" id="elmbk00waska" class="animable"></path><g id="elpt5xk1esjr"><path d="M221.34,222.73c-6.42,3.71-6.42,9.72,0,13.43s16.84,3.7,23.26,0,6.42-9.72,0-13.43S227.77,219,221.34,222.73Z" style="fill: rgb(255, 255, 255); opacity: 0.3; transform-origin: 232.97px 229.439px;" class="animable"></path></g><path d="M249.41,266.59c0-2.43-1.6-4.86-4.81-6.71-6.42-3.71-16.83-3.71-23.26,0-3.21,1.85-4.81,4.28-4.81,6.71v6.49c0,2.43,1.6,4.86,4.81,6.71,6.42,3.71,16.84,3.71,23.26,0,3.21-1.85,4.81-4.28,4.81-6.71Z" style="fill: rgb(104, 124, 133); transform-origin: 232.97px 269.835px;" id="ellmjnrejn8c" class="animable"></path><g id="elfkks9gcojl4"><path d="M244.6,259.88c3.21,1.85,4.81,4.28,4.81,6.71v6.49c0,2.43-1.6,4.86-4.81,6.71A23.81,23.81,0,0,1,233,282.57V257.1A23.7,23.7,0,0,1,244.6,259.88Z" style="opacity: 0.1; transform-origin: 241.205px 269.835px;" class="animable"></path></g><g id="elnr5qvw07gk"><path d="M221.34,259.88c-3.21,1.85-4.81,4.28-4.81,6.71v6.49c0,2.43,1.6,4.86,4.81,6.71A23.81,23.81,0,0,0,233,282.57V257.1A23.7,23.7,0,0,0,221.34,259.88Z" style="opacity: 0.2; transform-origin: 224.765px 269.835px;" class="animable"></path></g><path d="M221.34,259.88c-6.42,3.71-6.42,9.72,0,13.42s16.84,3.71,23.26,0,6.42-9.71,0-13.42S227.77,256.17,221.34,259.88Z" style="fill: rgb(104, 124, 133); transform-origin: 232.97px 266.588px;" id="el3d0hgane46f" class="animable"></path><g id="eleh0iy9xaxpf"><path d="M221.34,259.88c-6.42,3.71-6.42,9.72,0,13.42s16.84,3.71,23.26,0,6.42-9.71,0-13.42S227.77,256.17,221.34,259.88Z" style="fill: rgb(255, 255, 255); opacity: 0.3; transform-origin: 232.97px 266.588px;" class="animable"></path></g><path d="M217.25,248c0-2.43-1.6-4.86-4.81-6.71-6.42-3.71-16.83-3.71-23.26,0-3.21,1.85-4.81,4.28-4.81,6.71v6.49c0,2.43,1.6,4.85,4.81,6.71,6.42,3.7,16.84,3.71,23.26,0,3.21-1.86,4.81-4.29,4.81-6.71Z" style="fill: rgb(104, 124, 133); transform-origin: 200.81px 251.243px;" id="elsk2xbjzthh" class="animable"></path><g id="eldny924zrqbk"><path d="M212.44,241.3c3.21,1.85,4.81,4.28,4.81,6.71v6.49c0,2.43-1.6,4.85-4.81,6.71A23.81,23.81,0,0,1,200.81,264V238.51A23.71,23.71,0,0,1,212.44,241.3Z" style="opacity: 0.1; transform-origin: 209.03px 251.255px;" class="animable"></path></g><g id="el3y9x3z81f7j"><path d="M189.18,241.3c-3.21,1.85-4.81,4.28-4.81,6.71v6.49c0,2.43,1.6,4.85,4.81,6.71A23.81,23.81,0,0,0,200.81,264V238.51A23.73,23.73,0,0,0,189.18,241.3Z" style="opacity: 0.2; transform-origin: 192.59px 251.255px;" class="animable"></path></g><path d="M189.18,241.3c-6.42,3.7-6.42,9.71,0,13.42s16.84,3.71,23.26,0,6.42-9.72,0-13.42S195.61,237.59,189.18,241.3Z" style="fill: rgb(104, 124, 133); transform-origin: 200.81px 248.012px;" id="elsux6yjd1suj" class="animable"></path><g id="el89ln72n70ij"><path d="M189.18,241.3c-6.42,3.7-6.42,9.71,0,13.42s16.84,3.71,23.26,0,6.42-9.72,0-13.42S195.61,237.59,189.18,241.3Z" style="fill: rgb(255, 255, 255); opacity: 0.3; transform-origin: 200.81px 248.012px;" class="animable"></path></g><path d="M281.57,248c0-2.43-1.6-4.86-4.82-6.71-6.42-3.71-16.83-3.71-23.25,0-3.21,1.85-4.81,4.28-4.81,6.71v6.49c0,2.43,1.6,4.86,4.81,6.71,6.42,3.71,16.83,3.71,23.25,0,3.22-1.85,4.82-4.28,4.82-6.71Z" style="fill: rgb(104, 124, 133); transform-origin: 265.13px 251.245px;" id="elagp1rwir5eq" class="animable"></path><g id="el13g3r5yerlb"><path d="M276.75,241.31c3.21,1.85,4.82,4.28,4.82,6.71v6.49c0,2.43-1.6,4.86-4.81,6.71A23.84,23.84,0,0,1,265.13,264V238.53A23.66,23.66,0,0,1,276.75,241.31Z" style="opacity: 0.1; transform-origin: 273.35px 251.265px;" class="animable"></path></g><g id="el3tww25o0vc6"><path d="M253.5,241.31c-3.21,1.85-4.81,4.28-4.81,6.71v6.49c0,2.43,1.6,4.86,4.81,6.71A23.81,23.81,0,0,0,265.13,264V238.53A23.7,23.7,0,0,0,253.5,241.31Z" style="opacity: 0.2; transform-origin: 256.91px 251.265px;" class="animable"></path></g><path d="M253.5,241.31c-6.42,3.7-6.42,9.71,0,13.42s16.83,3.71,23.25,0,6.43-9.72,0-13.42S259.92,237.6,253.5,241.31Z" style="fill: rgb(104, 124, 133); transform-origin: 265.127px 248.022px;" id="el2z0wndnuw4d" class="animable"></path><g id="elataconssf7w"><path d="M253.5,241.31c-6.42,3.7-6.42,9.71,0,13.42s16.83,3.71,23.25,0,6.43-9.72,0-13.42S259.92,237.6,253.5,241.31Z" style="fill: rgb(255, 255, 255); opacity: 0.3; transform-origin: 265.127px 248.022px;" class="animable"></path></g></g><g id="freepik--black-block--inject-80" class="animable" style="transform-origin: 163.54px 355.545px;"><polygon points="229.5 375.59 163.54 413.67 163.54 373.59 229.5 335.5 229.5 375.59" style="fill: rgb(55, 71, 79); transform-origin: 196.52px 374.585px;" id="el1r306ntmc68" class="animable"></polygon><polygon points="97.58 375.59 163.54 413.67 163.54 373.59 97.58 335.5 97.58 375.59" style="fill: rgb(38, 50, 56); transform-origin: 130.56px 374.585px;" id="elhdrek4ifakc" class="animable"></polygon><polygon points="229.5 335.5 163.54 297.42 97.58 335.5 163.54 373.59 229.5 335.5" style="fill: rgb(69, 90, 100); transform-origin: 163.54px 335.505px;" id="el5jn53421y83" class="animable"></polygon><path d="M175.17,343c3.21,1.85,4.81,4.28,4.81,6.71v6.49c0,2.43-1.6,4.86-4.81,6.71a23.81,23.81,0,0,1-11.63,2.78V340.18A23.7,23.7,0,0,1,175.17,343Z" style="fill: rgb(55, 71, 79); transform-origin: 171.76px 352.935px;" id="elbpxld3mq8pc" class="animable"></path><path d="M151.91,343c-3.21,1.85-4.81,4.28-4.81,6.71v6.49c0,2.43,1.6,4.86,4.81,6.71a23.81,23.81,0,0,0,11.63,2.78V340.18A23.7,23.7,0,0,0,151.91,343Z" style="fill: rgb(38, 50, 56); transform-origin: 155.32px 352.935px;" id="elhvefopb0vuo" class="animable"></path><path d="M151.91,343c-6.42,3.7-6.42,9.72,0,13.42s16.84,3.71,23.26,0,6.42-9.71,0-13.42S158.34,339.25,151.91,343Z" style="fill: rgb(69, 90, 100); transform-origin: 163.54px 349.701px;" id="elhouokh40tt" class="animable"></path><g id="elimvljnmy2a"><path d="M151.91,343c-6.42,3.7-6.42,9.72,0,13.42s16.84,3.71,23.26,0,6.42-9.71,0-13.42S158.34,339.25,151.91,343Z" style="fill: rgb(255, 255, 255); opacity: 0.07; transform-origin: 163.54px 349.701px;" class="animable"></path></g><path d="M175.17,305.81c3.21,1.85,4.81,4.28,4.81,6.71V319c0,2.43-1.6,4.86-4.81,6.71a23.7,23.7,0,0,1-11.63,2.78V303A23.81,23.81,0,0,1,175.17,305.81Z" style="fill: rgb(55, 71, 79); transform-origin: 171.76px 315.746px;" id="el1z596tazpez" class="animable"></path><path d="M151.91,305.81c-3.21,1.85-4.81,4.28-4.81,6.71V319c0,2.43,1.6,4.86,4.81,6.71a23.7,23.7,0,0,0,11.63,2.78V303A23.81,23.81,0,0,0,151.91,305.81Z" style="fill: rgb(38, 50, 56); transform-origin: 155.32px 315.746px;" id="elrz51mi49pac" class="animable"></path><path d="M151.91,305.81c-6.42,3.71-6.42,9.72,0,13.43s16.84,3.7,23.26,0,6.42-9.72,0-13.43S158.34,302.1,151.91,305.81Z" style="fill: rgb(69, 90, 100); transform-origin: 163.54px 312.523px;" id="elx5agw7g9wo9" class="animable"></path><g id="elptxk11wria"><path d="M151.91,305.81c-6.42,3.71-6.42,9.72,0,13.43s16.84,3.7,23.26,0,6.42-9.72,0-13.43S158.34,302.1,151.91,305.81Z" style="fill: rgb(255, 255, 255); opacity: 0.07; transform-origin: 163.54px 312.523px;" class="animable"></path></g><path d="M207.32,324.39c3.21,1.85,4.82,4.28,4.82,6.71v6.49c0,2.43-1.6,4.86-4.81,6.71a23.84,23.84,0,0,1-11.63,2.78V321.61A23.66,23.66,0,0,1,207.32,324.39Z" style="fill: rgb(55, 71, 79); transform-origin: 203.92px 334.345px;" id="el8x7osywznib" class="animable"></path><path d="M184.07,324.39c-3.21,1.85-4.81,4.28-4.81,6.71v6.49c0,2.43,1.6,4.86,4.81,6.71a23.81,23.81,0,0,0,11.63,2.78V321.61A23.7,23.7,0,0,0,184.07,324.39Z" style="fill: rgb(38, 50, 56); transform-origin: 187.48px 334.345px;" id="el3v5d432oqtn" class="animable"></path><path d="M184.07,324.39c-6.42,3.7-6.42,9.71,0,13.42s16.83,3.71,23.25,0,6.43-9.72,0-13.42S190.49,320.68,184.07,324.39Z" style="fill: rgb(69, 90, 100); transform-origin: 195.697px 331.102px;" id="els93m3y1v3t" class="animable"></path><g id="elu69pu2uquwq"><path d="M184.07,324.39c-6.42,3.7-6.42,9.71,0,13.42s16.83,3.71,23.25,0,6.43-9.72,0-13.42S190.49,320.68,184.07,324.39Z" style="fill: rgb(255, 255, 255); opacity: 0.07; transform-origin: 195.697px 331.102px;" class="animable"></path></g><path d="M143,324.37c3.21,1.86,4.81,4.29,4.81,6.72v6.49c0,2.42-1.6,4.85-4.81,6.71a23.81,23.81,0,0,1-11.63,2.78V321.59A23.81,23.81,0,0,1,143,324.37Z" style="fill: rgb(55, 71, 79); transform-origin: 139.59px 334.33px;" id="elsdskr4je9yb" class="animable"></path><path d="M119.75,324.37c-3.21,1.86-4.81,4.29-4.81,6.72v6.49c0,2.42,1.6,4.85,4.81,6.71a23.81,23.81,0,0,0,11.63,2.78V321.59A23.84,23.84,0,0,0,119.75,324.37Z" style="fill: rgb(38, 50, 56); transform-origin: 123.16px 334.33px;" id="elvara5ybhtve" class="animable"></path><path d="M119.75,324.37c-6.42,3.71-6.42,9.72,0,13.43s16.84,3.71,23.26,0,6.42-9.72,0-13.42S126.18,320.67,119.75,324.37Z" style="fill: rgb(69, 90, 100); transform-origin: 131.38px 331.091px;" id="elzbv53teo5pd" class="animable"></path><g id="el8m9bxmn6ra8"><path d="M119.75,324.37c-6.42,3.71-6.42,9.72,0,13.43s16.84,3.71,23.26,0,6.42-9.72,0-13.42S126.18,320.67,119.75,324.37Z" style="fill: rgb(255, 255, 255); opacity: 0.07; transform-origin: 131.38px 331.091px;" class="animable"></path></g></g><g id="freepik--black-block--inject-80" class="animable" style="transform-origin: 302.4px 189.405px;"><polygon points="368.36 209.44 302.4 247.53 302.4 207.44 368.36 169.36 368.36 209.44" style="fill: rgb(55, 71, 79); transform-origin: 335.38px 208.445px;" id="elqfpmuc2byik" class="animable"></polygon><polygon points="236.44 209.44 302.4 247.53 302.4 207.44 236.44 169.36 236.44 209.44" style="fill: rgb(38, 50, 56); transform-origin: 269.42px 208.445px;" id="elpthcadjb9wf" class="animable"></polygon><polygon points="368.36 169.36 302.4 131.28 236.44 169.36 302.4 207.44 368.36 169.36" style="fill: rgb(69, 90, 100); transform-origin: 302.4px 169.36px;" id="eldf7jsazxtmc" class="animable"></polygon><path d="M314,176.81c3.21,1.86,4.81,4.29,4.81,6.71V190c0,2.43-1.6,4.86-4.81,6.72a23.81,23.81,0,0,1-11.63,2.78V174A23.81,23.81,0,0,1,314,176.81Z" style="fill: rgb(55, 71, 79); transform-origin: 310.59px 186.75px;" id="elx9f0av23qyr" class="animable"></path><path d="M290.77,176.81c-3.21,1.86-4.81,4.29-4.81,6.71V190c0,2.43,1.6,4.86,4.81,6.72a23.81,23.81,0,0,0,11.63,2.78V174A23.81,23.81,0,0,0,290.77,176.81Z" style="fill: rgb(38, 50, 56); transform-origin: 294.18px 186.75px;" id="elhxdx518ygsf" class="animable"></path><path d="M290.77,176.81c-6.42,3.71-6.42,9.72,0,13.43s16.83,3.7,23.26,0,6.42-9.72,0-13.43S297.19,173.11,290.77,176.81Z" style="fill: rgb(69, 90, 100); transform-origin: 302.402px 183.525px;" id="el1d5rs2bv5hi" class="animable"></path><g id="eln32md8a3nr"><path d="M290.77,176.81c-6.42,3.71-6.42,9.72,0,13.43s16.83,3.7,23.26,0,6.42-9.72,0-13.43S297.19,173.11,290.77,176.81Z" style="fill: rgb(255, 255, 255); opacity: 0.07; transform-origin: 302.402px 183.525px;" class="animable"></path></g><path d="M314,139.67c3.21,1.85,4.81,4.28,4.81,6.71v6.49c0,2.43-1.6,4.86-4.81,6.71a23.81,23.81,0,0,1-11.63,2.78V136.89A23.7,23.7,0,0,1,314,139.67Z" style="fill: rgb(55, 71, 79); transform-origin: 310.59px 149.625px;" id="elfuxtxjlwebd" class="animable"></path><path d="M290.77,139.67c-3.21,1.85-4.81,4.28-4.81,6.71v6.49c0,2.43,1.6,4.86,4.81,6.71a23.81,23.81,0,0,0,11.63,2.78V136.89A23.7,23.7,0,0,0,290.77,139.67Z" style="fill: rgb(38, 50, 56); transform-origin: 294.18px 149.625px;" id="el4iox03tyrvn" class="animable"></path><path d="M290.77,139.67c-6.42,3.7-6.42,9.71,0,13.42s16.83,3.71,23.26,0,6.42-9.72,0-13.42S297.19,136,290.77,139.67Z" style="fill: rgb(69, 90, 100); transform-origin: 302.402px 146.389px;" id="elnmoh22axp5s" class="animable"></path><g id="el7ebwnf7v4fg"><path d="M290.77,139.67c-6.42,3.7-6.42,9.71,0,13.42s16.83,3.71,23.26,0,6.42-9.72,0-13.42S297.19,136,290.77,139.67Z" style="fill: rgb(255, 255, 255); opacity: 0.07; transform-origin: 302.402px 146.389px;" class="animable"></path></g><path d="M346.18,158.24c3.21,1.86,4.82,4.28,4.82,6.71v6.49c0,2.43-1.61,4.86-4.82,6.71a23.66,23.66,0,0,1-11.62,2.78V155.46A23.77,23.77,0,0,1,346.18,158.24Z" style="fill: rgb(55, 71, 79); transform-origin: 342.78px 168.195px;" id="elpfrifhicv7q" class="animable"></path><path d="M322.93,158.24c-3.21,1.86-4.81,4.28-4.81,6.71v6.49c0,2.43,1.6,4.86,4.81,6.71a23.7,23.7,0,0,0,11.63,2.78V155.46A23.81,23.81,0,0,0,322.93,158.24Z" style="fill: rgb(38, 50, 56); transform-origin: 326.34px 168.195px;" id="elya10wkqewvc" class="animable"></path><path d="M322.93,158.24c-6.42,3.71-6.42,9.72,0,13.43s16.83,3.7,23.25,0,6.43-9.72,0-13.43S329.35,154.53,322.93,158.24Z" style="fill: rgb(69, 90, 100); transform-origin: 334.557px 164.953px;" id="elsqfi5yodzei" class="animable"></path><g id="el8yngmnlhfwr"><path d="M322.93,158.24c-6.42,3.71-6.42,9.72,0,13.43s16.83,3.7,23.25,0,6.43-9.72,0-13.43S329.35,154.53,322.93,158.24Z" style="fill: rgb(255, 255, 255); opacity: 0.07; transform-origin: 334.557px 164.953px;" class="animable"></path></g><path d="M281.87,158.23c3.21,1.85,4.81,4.28,4.81,6.71v6.49c0,2.43-1.6,4.86-4.81,6.71a23.7,23.7,0,0,1-11.63,2.78V155.45A23.81,23.81,0,0,1,281.87,158.23Z" style="fill: rgb(55, 71, 79); transform-origin: 278.46px 168.185px;" id="elgwvapl5mzh5" class="animable"></path><path d="M258.61,158.23c-3.21,1.85-4.81,4.28-4.81,6.71v6.49c0,2.43,1.6,4.86,4.81,6.71a23.7,23.7,0,0,0,11.63,2.78V155.45A23.81,23.81,0,0,0,258.61,158.23Z" style="fill: rgb(38, 50, 56); transform-origin: 262.02px 168.185px;" id="elz8sql40rvsn" class="animable"></path><path d="M258.61,158.23c-6.42,3.71-6.42,9.72,0,13.42s16.84,3.71,23.26,0,6.42-9.72,0-13.43S265,154.52,258.61,158.23Z" style="fill: rgb(69, 90, 100); transform-origin: 270.24px 164.936px;" id="elel5of0m7vzn" class="animable"></path><g id="el8zyxvu08hkl"><path d="M258.61,158.23c-6.42,3.71-6.42,9.72,0,13.42s16.84,3.71,23.26,0,6.42-9.72,0-13.43S265,154.52,258.61,158.23Z" style="fill: rgb(255, 255, 255); opacity: 0.07; transform-origin: 270.24px 164.936px;" class="animable"></path></g></g></g><g id="freepik--Clouds--inject-80" class="animable" style="transform-origin: 385.275px 82.0482px;"><path d="M345.94,83.23l6,3.46a7,7,0,0,1-.05-.79V84.16c0-3.09,2.17-4.35,4.85-2.8a9.43,9.43,0,0,1,2.9,2.78c.44-3.89,3.49-5.34,7.2-3.2a16.06,16.06,0,0,1,7.25,12.57v2.6a6.94,6.94,0,0,1-.61,3l5,2.88a5.94,5.94,0,0,1,2.69,4.66c0,1.71-1.21,2.41-2.69,1.55L345.94,89.44a5.92,5.92,0,0,1-2.69-4.66C343.25,83.07,344.45,82.37,345.94,83.23Z" style="fill: rgb(235, 235, 235); transform-origin: 362.21px 94.2592px;" id="elrbhlwwykra" class="animable"></path><path d="M385.62,67.29l3.31,1.27V61.27c0-5.79,4.61-7.17,9.62-4.28h0c5,2.89,9.06,9.92,9.06,15.7v1.06a4.86,4.86,0,0,1,4.21.65h0a14.42,14.42,0,0,1,6.52,11.3v.48L423,88.85a9.5,9.5,0,0,1,4.3,7.44c0,2.74-1.93,3.85-4.3,2.48L385.62,77.21a9.48,9.48,0,0,1-4.3-7.44C381.32,67,383.24,65.92,385.62,67.29Z" style="fill: rgb(235, 235, 235); transform-origin: 404.31px 77.4427px;" id="elxsqc5410mf9" class="animable"></path></g><g id="freepik--Character--inject-80" class="animable" style="transform-origin: 140.101px 169.027px;"><g id="freepik--character--inject-80" class="animable" style="transform-origin: 140.101px 169.027px;"><path d="M105,69.06h-4.06A19.82,19.82,0,0,1,81.09,49.24h0a20.65,20.65,0,0,1,20.65-20.66h2.41A20.66,20.66,0,0,1,124.8,49.24h0A19.82,19.82,0,0,1,105,69.06Z" style="fill: rgb(38, 50, 56); transform-origin: 102.945px 48.82px;" id="elyzrbdt5263" class="animable"></path><path d="M78.36,60.51c3.44-3.3,7.45-1.41,11,2.27s5.26,7.77,1.82,11.07-9.09,3-12.63-.69S74.92,63.81,78.36,60.51Z" style="fill: rgb(38, 50, 56); transform-origin: 84.4444px 67.4723px;" id="elsxtvmk1bgr" class="animable"></path><path d="M126.31,89.68c4.79,8.11,10.57,17.93,13.81,21.31,6.15,2.86,20.21,8.21,25.86,9a4.22,4.22,0,0,0,2.84-.67c2.22-1.46,3.94-1.69,6.29-2.5,1.83-.64,2.61-1.51,3-1.18a2.09,2.09,0,0,1-.2,2.91,15.35,15.35,0,0,1-2.9,2.17,17.15,17.15,0,0,0,7.65.13c4.9-1.28,7.21,1.07,3.9,6.38-1.19,1.91-5.85,4.95-15.31,4.13a83.32,83.32,0,0,1-10.05-1.19c-9.07-1.93-18.76-4.76-25-6.62a15.94,15.94,0,0,1-6-4.17c-10.43-11.89-15.55-22.42-20.12-30.12l.39-12.58C117.84,76.4,122.3,82.89,126.31,89.68Z" style="fill: rgb(255, 168, 167); transform-origin: 149.095px 104.084px;" id="elogh0xjmbe99" class="animable"></path><path d="M77.17,278.2a50.16,50.16,0,0,0-.78,8.25c-.1,5-1,6.78-1.14,10.89-.14,4.69.67,6.45,2.58,9.09s6.9,5,9,.57,1.84-7.38,1.17-12-.79-7.39-1.19-11c-.36-3.2-.79-5.63-.79-5.63Z" style="fill: rgb(38, 50, 56); transform-origin: 81.8588px 293.837px;" id="elf7dgiru6zn" class="animable"></path><path d="M91.38,238.84l-16.49-.3c.25,11,2,29.33,2.28,39.66,0,1.95,0,15.11.69,19.11,1.1,6,8.23,5.2,8.61,1.6S86,280,86,278.36c-.06-6.62,3-23.91,4.67-35.8C90.78,242,91.3,239.41,91.38,238.84Z" style="fill: rgb(255, 168, 167); transform-origin: 83.135px 270.128px;" id="elgsbpwhnqabc" class="animable"></path><path d="M115.61,269.64s-.85.05-1,.74-.2,2.13-.54,3.49a19.56,19.56,0,0,0-.59,6.53c.28,1.53,3.79,3.82,6.19,4.23s5.79,2.77,7.67,4.54A18.4,18.4,0,0,0,138,293.36c4,0,6.8-1.33,8.12-3.48s-1.21-2.4-5.78-5.37l-3.56-2.31c-7.25-4.74-9.91-7.28-12-12Z" style="fill: rgb(38, 50, 56); transform-origin: 129.945px 281.5px;" id="elwipfngscofi" class="animable"></path><path d="M124.9,266.7c-.12-3.4,2.22-38.42,2.22-38.42l-15.66,7.14c3.35,20,4.51,31.2,4.12,34.11h0a3.27,3.27,0,0,0-.09.84c0,3.89,4.41,6,7.83,8.58,1.35,1,4.83,4.18,8.9,5.56,2.64.9,7.51,1.24,8.13-.36-4.16-3.18-9.83-7.34-13.15-11C125.62,271.45,125,270.11,124.9,266.7Z" style="fill: rgb(255, 168, 167); transform-origin: 125.905px 256.774px;" id="elu39np5esu2" class="animable"></path><path d="M81.65,131.45c-6,13.2-6,23.41-5,40.25.91,15.45,2.36,29.06,2.36,29.06-.23,2.74-4,8.09-4.53,20.21a245.24,245.24,0,0,0,.78,25.72s8.55,4.74,14.88,0c0,0,6.1-29.14,7.89-43.32,1.56-12.38,5.93-38.09,5.93-38.09l7.14,38a73.67,73.67,0,0,0-2.69,12.21c-.81,8.34,3.85,24.72,3.85,24.72s8.84,2.64,14.24-2.15c0,0,2-26.63,2.77-36.67,1-13.46-1.28-50.26-4.36-69.14Z" style="fill: rgb(55, 71, 79); transform-origin: 101.964px 190.123px;" id="eleloeny292au" class="animable"></path><path d="M103.94,165.24l1.83-12.59s10.64-1.42,15.46-6a17.47,17.47,0,0,1-12.54,7.93L106.81,166l3.26,33Z" style="fill: rgb(38, 50, 56); transform-origin: 112.585px 172.825px;" id="elbyqv0itr6rd" class="animable"></path><path d="M94.52,77.08h0c-3.18.22-7.3.87-7.3.87-3.34,1.87-5,5.27-5,9.24,0,4.34-2.42,6.77-1.1,13.92l5.21,13c-.25,3.25-4.15,10.89-6.38,21.48,12.74,7.11,29,5.45,38,1.6a17.54,17.54,0,0,0,7-4.93c-1.48-7.8-2-7.7-2.82-14.83a52,52,0,0,1-.48-8.69c4.08-5.25,6.26-10.39,4.2-15.11-4.2-9.58-12.05-17.29-16.09-17Z" style="fill: rgb(104, 124, 133); transform-origin: 103.294px 108.561px;" id="elshxun1m84rj" class="animable"></path><g id="el15prhu01rdp"><path d="M94.52,77.08h0c-3.18.22-7.3.87-7.3.87-3.34,1.87-5,5.27-5,9.24,0,4.34-2.42,6.77-1.1,13.92l5.21,13c-.25,3.25-4.15,10.89-6.38,21.48,12.74,7.11,29,5.45,38,1.6a17.54,17.54,0,0,0,7-4.93c-1.48-7.8-2-7.7-2.82-14.83a52,52,0,0,1-.48-8.69c4.08-5.25,6.26-10.39,4.2-15.11-4.2-9.58-12.05-17.29-16.09-17Z" style="fill: rgb(255, 255, 255); opacity: 0.7; transform-origin: 103.294px 108.561px;" class="animable"></path></g><g id="el0syxi2y72lea"><path d="M112.69,108.22s-5.82,4.52-12.46,2.16a11.38,11.38,0,0,1-7.62-8.16s-.7,7.59,7.68,10.18A11,11,0,0,0,112.69,108.22Z" style="opacity: 0.1; transform-origin: 102.643px 107.575px;" class="animable"></path></g><path d="M116.69,37.87c2.31,1.37,5.17,7.17,4.89,19.34-.24,10.32-3.59,12.87-5.27,13.6s-4.91.29-8.06-.23v6.19s3.63,3.8,3.35,6.64-5.69,3.16-9.77.38a30,30,0,0,1-6.54-6.08V62.36s-1.72,1.83-4.77-.27a5.61,5.61,0,0,1-1.44-8.16c1.32-1.56,4.69-1.67,6.31.75,0,0,4.23-.37,10.92-4A21.52,21.52,0,0,0,116.69,37.87Z" style="fill: rgb(255, 168, 167); transform-origin: 104.757px 61.7928px;" id="eleose0wcxgfv" class="animable"></path><path d="M118,37.86s2.66,6.31-4.58,11.51c0,0,3.79-4.53,2.42-10.22C114.71,34.41,117.76,35.65,118,37.86Z" style="fill: rgb(38, 50, 56); transform-origin: 115.949px 42.6344px;" id="el0xoab1yxv7e" class="animable"></path><path d="M108.9,54.62A1.31,1.31,0,0,1,107.67,56a1.33,1.33,0,0,1-1.36-1.28,1.3,1.3,0,1,1,2.59-.13Z" style="fill: rgb(38, 50, 56); transform-origin: 107.601px 54.6309px;" id="eld26nis5f8it" class="animable"></path><path d="M110.4,63.37l3,1a1.55,1.55,0,0,1-2,1.08A1.65,1.65,0,0,1,110.4,63.37Z" style="fill: rgb(242, 143, 143); transform-origin: 111.856px 64.4513px;" id="elcpdfr78osk6" class="animable"></path><path d="M120.4,50.64l-2.62-1.82a1.53,1.53,0,0,1,2.18-.45A1.69,1.69,0,0,1,120.4,50.64Z" style="fill: rgb(38, 50, 56); transform-origin: 119.22px 49.3666px;" id="eli5wfqc67p6" class="animable"></path><path d="M119.8,53.69a1.3,1.3,0,1,1-1.37-1.29A1.34,1.34,0,0,1,119.8,53.69Z" style="fill: rgb(38, 50, 56); transform-origin: 118.5px 53.6989px;" id="elzwu5t0h5gq" class="animable"></path><polygon points="112.6 52.94 112.8 60.75 116.91 59.48 112.6 52.94" style="fill: rgb(242, 143, 143); transform-origin: 114.755px 56.845px;" id="el2xu2sar140g" class="animable"></polygon><path d="M108.25,70.58c-3.32-.44-10.15-2.4-11.21-5.1a7,7,0,0,0,2.39,3.45c2,1.74,8.82,3.71,8.82,3.71Z" style="fill: rgb(242, 143, 143); transform-origin: 102.645px 69.06px;" id="el2bgzer8wd66" class="animable"></path><polygon points="220.79 178.54 154.83 216.63 154.83 176.54 220.79 138.46 220.79 178.54" style="fill: rgb(104, 124, 133); transform-origin: 187.81px 177.545px;" id="el3w9muvdq5eq" class="animable"></polygon><g id="el7orl06get9c"><polygon points="220.79 178.54 154.83 216.63 154.83 176.54 220.79 138.46 220.79 178.54" style="opacity: 0.3; transform-origin: 187.81px 177.545px;" class="animable"></polygon></g><polygon points="88.87 178.54 154.83 216.63 154.83 176.54 88.87 138.46 88.87 178.54" style="fill: rgb(104, 124, 133); transform-origin: 121.85px 177.545px;" id="elsnsr6u2iu8" class="animable"></polygon><g id="elf6estlnvfir"><polygon points="88.87 178.54 154.83 216.63 154.83 176.54 88.87 138.46 88.87 178.54" style="opacity: 0.4; transform-origin: 121.85px 177.545px;" class="animable"></polygon></g><g id="elyq58hirlyg8"><path d="M100.83,162.77l-3.54-3.54c-.5-.49-1.05-.93-1.53-1.46-.18-.19-1.1-1.26-.81-1.55a.29.29,0,0,1,.24-.05c1.57.16,3.56.09,4.66-1.23a1.69,1.69,0,0,0,.38-.77.85.85,0,0,0-.13-.6c-.23-.34-.83-.34-1.2-.45a6.7,6.7,0,0,1-1.35-.58,15.88,15.88,0,0,0-2.29-1l-3.14-.67a4.33,4.33,0,0,0-3.25-.9v17.91a10.33,10.33,0,0,0,4.22,1.28,10.65,10.65,0,0,0,5.73-.93c1.45-.72,3.75-2.58,2.83-4.47A4,4,0,0,0,100.83,162.77Z" style="opacity: 0.1; transform-origin: 95.3655px 159.582px;" class="animable"></path></g><polygon points="220.79 138.46 154.83 100.38 88.87 138.46 154.83 176.54 220.79 138.46" style="fill: rgb(104, 124, 133); transform-origin: 154.83px 138.46px;" id="el54onsem8ia6" class="animable"></polygon><g id="elotlf2icto1"><polygon points="220.79 138.46 154.83 100.38 88.87 138.46 154.83 176.54 220.79 138.46" style="opacity: 0.15; transform-origin: 154.83px 138.46px;" class="animable"></polygon></g><path d="M171.27,115.48c0-2.43-1.6-4.86-4.82-6.71-6.42-3.71-16.83-3.71-23.25,0-3.21,1.85-4.81,4.28-4.81,6.71V122c0,2.43,1.6,4.85,4.81,6.71,6.42,3.7,16.83,3.71,23.25,0,3.22-1.86,4.82-4.29,4.82-6.71Z" style="fill: rgb(104, 124, 133); transform-origin: 154.83px 118.738px;" id="elmnk6dbicy8d" class="animable"></path><g id="elo5uimk3rfs"><path d="M166.45,108.77c3.21,1.85,4.82,4.28,4.82,6.71V122c0,2.43-1.6,4.85-4.82,6.71a23.77,23.77,0,0,1-11.62,2.78V106A23.67,23.67,0,0,1,166.45,108.77Z" style="opacity: 0.3; transform-origin: 163.05px 118.745px;" class="animable"></path></g><g id="el2dutx3dgyfm"><path d="M143.2,108.77c-3.21,1.85-4.81,4.28-4.81,6.71V122c0,2.43,1.6,4.85,4.81,6.71a23.81,23.81,0,0,0,11.63,2.78V106A23.71,23.71,0,0,0,143.2,108.77Z" style="opacity: 0.4; transform-origin: 146.61px 118.745px;" class="animable"></path></g><path d="M143.2,108.77c-6.42,3.7-6.42,9.71,0,13.42s16.83,3.71,23.25,0,6.43-9.72,0-13.42S149.62,105.06,143.2,108.77Z" style="fill: rgb(104, 124, 133); transform-origin: 154.827px 115.482px;" id="elv6aokmtdwx" class="animable"></path><path d="M171.27,152.62c0-2.43-1.6-4.85-4.82-6.71-6.42-3.71-16.83-3.71-23.25,0-3.21,1.85-4.81,4.28-4.81,6.71v6.49c0,2.43,1.6,4.86,4.81,6.71,6.42,3.71,16.83,3.71,23.25,0,3.22-1.85,4.82-4.28,4.82-6.71Z" style="fill: rgb(104, 124, 133); transform-origin: 154.83px 155.865px;" id="elbowszc8fw2" class="animable"></path><g id="el0s99m2sfa45m"><path d="M166.45,145.91c3.21,1.85,4.82,4.28,4.82,6.71v6.49c0,2.43-1.6,4.86-4.82,6.71a23.66,23.66,0,0,1-11.62,2.78V143.13A23.77,23.77,0,0,1,166.45,145.91Z" style="opacity: 0.3; transform-origin: 163.05px 155.865px;" class="animable"></path></g><g id="elcwwkz44tjwu"><path d="M143.2,145.91c-3.21,1.85-4.81,4.28-4.81,6.71v6.49c0,2.43,1.6,4.86,4.81,6.71a23.7,23.7,0,0,0,11.63,2.78V143.13A23.81,23.81,0,0,0,143.2,145.91Z" style="opacity: 0.4; transform-origin: 146.61px 155.865px;" class="animable"></path></g><path d="M143.2,145.91c-6.42,3.71-6.42,9.72,0,13.43s16.83,3.7,23.25,0,6.43-9.72,0-13.43S149.62,142.2,143.2,145.91Z" style="fill: rgb(104, 124, 133); transform-origin: 154.827px 152.623px;" id="el2zzei1ecy0q" class="animable"></path><path d="M139.11,134c0-2.43-1.6-4.86-4.81-6.71-6.43-3.71-16.84-3.71-23.26,0-3.21,1.85-4.81,4.28-4.81,6.71v6.49c0,2.43,1.6,4.86,4.81,6.71,6.42,3.71,16.83,3.71,23.26,0,3.21-1.85,4.81-4.28,4.81-6.71Z" style="fill: rgb(104, 124, 133); transform-origin: 122.67px 137.245px;" id="eliyk92sjhbvj" class="animable"></path><g id="el3puajprzj7n"><path d="M134.3,127.33c3.21,1.85,4.81,4.28,4.81,6.71v6.49c0,2.43-1.6,4.86-4.81,6.71A23.81,23.81,0,0,1,122.67,150V124.55A23.84,23.84,0,0,1,134.3,127.33Z" style="opacity: 0.3; transform-origin: 130.89px 137.275px;" class="animable"></path></g><g id="ely9jtlp49og"><path d="M111,127.33c-3.21,1.85-4.81,4.28-4.81,6.71v6.49c0,2.43,1.6,4.86,4.81,6.71A23.81,23.81,0,0,0,122.67,150V124.55A23.81,23.81,0,0,0,111,127.33Z" style="opacity: 0.4; transform-origin: 114.43px 137.275px;" class="animable"></path></g><path d="M111,127.33c-6.42,3.71-6.42,9.72,0,13.42s16.83,3.71,23.26,0,6.42-9.71,0-13.42S117.46,123.62,111,127.33Z" style="fill: rgb(104, 124, 133); transform-origin: 122.632px 134.038px;" id="el2g1ivza9cf3" class="animable"></path><path d="M203.43,134.05c0-2.43-1.61-4.86-4.82-6.71-6.42-3.71-16.83-3.71-23.25,0-3.21,1.85-4.82,4.28-4.81,6.71v6.49c0,2.43,1.6,4.86,4.81,6.71,6.42,3.71,16.83,3.71,23.25,0,3.21-1.85,4.82-4.28,4.82-6.71Z" style="fill: rgb(104, 124, 133); transform-origin: 186.99px 137.295px;" id="elwtq1yuu5tlq" class="animable"></path><g id="elxtp4jt7ur5f"><path d="M198.61,127.34c3.21,1.85,4.82,4.28,4.82,6.71v6.49c0,2.43-1.61,4.86-4.82,6.71A23.69,23.69,0,0,1,187,150V124.56A23.8,23.8,0,0,1,198.61,127.34Z" style="opacity: 0.3; transform-origin: 195.215px 137.281px;" class="animable"></path></g><g id="elamaagncf8m"><path d="M175.36,127.34c-3.21,1.85-4.82,4.28-4.81,6.71v6.49c0,2.43,1.6,4.86,4.81,6.71A23.7,23.7,0,0,0,187,150V124.56A23.81,23.81,0,0,0,175.36,127.34Z" style="opacity: 0.4; transform-origin: 178.775px 137.281px;" class="animable"></path></g><path d="M175.36,127.34c-6.42,3.71-6.42,9.72,0,13.43s16.83,3.7,23.25,0,6.42-9.72,0-13.43S181.78,123.63,175.36,127.34Z" style="fill: rgb(104, 124, 133); transform-origin: 186.985px 134.053px;" id="elvtlceydw55s" class="animable"></path><path d="M60.55,116.61C64.32,108.39,71,95.68,74.16,89.22c4.61-9.3,8.39-11.32,14.71-11.51,2.49,2.16,3.69,9.66-.34,19.28-3.37,5.78-13.75,23.53-13.75,23.53.5,1.44,8.6,21.43,11.92,26a4.09,4.09,0,0,0,2.45,1.56c2.62.56,6,2.63,8.18,3.73,1.74.86,2.93.8,2.91,1.28a2.2,2.2,0,0,1-2.31,1.9,36.38,36.38,0,0,1-5.15-1,61,61,0,0,0,6.07,5.56c4,3.07,4.52,6.29-1.76,7.66-4.75,1-7.8-1.14-13.67-8.46-1.69-2.11-3.73-5.37-5.8-8.11-5.21-6.89-8-11.74-11.17-16.06C57.38,122.4,59.16,119.64,60.55,116.61Z" style="fill: rgb(255, 168, 167); transform-origin: 80.6258px 122.576px;" id="eltnmwhnhvse" class="animable"></path></g></g><defs>     <filter id="active" height="200%">         <feMorphology in="SourceAlpha" result="DILATED" operator="dilate" radius="2"></feMorphology>                <feFlood flood-color="#32DFEC" flood-opacity="1" result="PINK"></feFlood>        <feComposite in="PINK" in2="DILATED" operator="in" result="OUTLINE"></feComposite>        <feMerge>            <feMergeNode in="OUTLINE"></feMergeNode>            <feMergeNode in="SourceGraphic"></feMergeNode>        </feMerge>    </filter>    <filter id="hover" height="200%">        <feMorphology in="SourceAlpha" result="DILATED" operator="dilate" radius="2"></feMorphology>                <feFlood flood-color="#ff0000" flood-opacity="0.5" result="PINK"></feFlood>        <feComposite in="PINK" in2="DILATED" operator="in" result="OUTLINE"></feComposite>        <feMerge>            <feMergeNode in="OUTLINE"></feMergeNode>            <feMergeNode in="SourceGraphic"></feMergeNode>        </feMerge>            <feColorMatrix type="matrix" values="0   0   0   0   0                0   1   0   0   0                0   0   0   0   0                0   0   0   1   0 "></feColorMatrix>    </filter></defs></svg>