<svg class="animated" id="freepik_stories-data-points" xmlns="http://www.w3.org/2000/svg" viewBox="0 0 500 500" version="1.1" xmlns:xlink="http://www.w3.org/1999/xlink" xmlns:svgjs="http://svgjs.com/svgjs"><style>svg#freepik_stories-data-points:not(.animated) .animable {opacity: 0;}svg#freepik_stories-data-points.animated #freepik--background-simple--inject-15 {animation: 1s 1 forwards cubic-bezier(.36,-0.01,.5,1.38) lightSpeedRight;animation-delay: 0s;}svg#freepik_stories-data-points.animated #freepik--Plant--inject-15 {animation: 1s 1 forwards cubic-bezier(.36,-0.01,.5,1.38) slideDown;animation-delay: 0s;}svg#freepik_stories-data-points.animated #freepik--Character--inject-15 {animation: 1s 1 forwards cubic-bezier(.36,-0.01,.5,1.38) slideRight;animation-delay: 0s;}svg#freepik_stories-data-points.animated #freepik--Data-points--inject-15 {animation: 1s 1 forwards cubic-bezier(.36,-0.01,.5,1.38) slideLeft;animation-delay: 0s;}svg#freepik_stories-data-points.animated #freepik--Floor--inject-15 {animation: 1s 1 forwards cubic-bezier(.36,-0.01,.5,1.38) zoomIn;animation-delay: 0s;}            @keyframes lightSpeedRight {              from {                transform: translate3d(50%, 0, 0) skewX(-20deg);                opacity: 0;              }              60% {                transform: skewX(10deg);                opacity: 1;              }              80% {                transform: skewX(-2deg);              }              to {                opacity: 1;                transform: translate3d(0, 0, 0);              }            }                    @keyframes slideDown {                0% {                    opacity: 0;                    transform: translateY(-30px);                }                100% {                    opacity: 1;                    transform: translateY(0);                }            }                    @keyframes slideRight {                0% {                    opacity: 0;                    transform: translateX(30px);                }                100% {                    opacity: 1;                    transform: translateX(0);                }            }                    @keyframes slideLeft {                0% {                    opacity: 0;                    transform: translateX(-30px);                }                100% {                    opacity: 1;                    transform: translateX(0);                }            }                    @keyframes zoomIn {                0% {                    opacity: 0;                    transform: scale(0.5);                }                100% {                    opacity: 1;                    transform: scale(1);                }            }        </style><g id="freepik--background-simple--inject-15" class="animable" style="transform-origin: 260.614px 243.395px;"><path d="M37.62,176.94S56.87,95.58,132.73,56s166.33-22.74,240-11.1,120.53,68,115.52,135.61-64.42,74-109.78,141.79-47.71,93-120.78,124.16-166.91-20.11-203-111S37.62,176.94,37.62,176.94Z" style="fill: rgb(254, 196, 62); transform-origin: 260.614px 243.395px;" id="elfnrudjy2kv" class="animable"></path><g id="elqhysdj7oycb"><path d="M37.62,176.94S56.87,95.58,132.73,56s166.33-22.74,240-11.1,120.53,68,115.52,135.61-64.42,74-109.78,141.79-47.71,93-120.78,124.16-166.91-20.11-203-111S37.62,176.94,37.62,176.94Z" style="fill: rgb(255, 255, 255); opacity: 0.8; transform-origin: 260.614px 243.395px;" class="animable"></path></g></g><g id="freepik--Plant--inject-15" class="animable" style="transform-origin: 398.487px 386.43px;"><path d="M360.26,295.58s1.86,3.52.21,6.84-3.73,6.63-2.49,8.29,5,3.73,4.56,7.25-5.39,10.57-2.28,14.5,8.29,3.73,8.49,8.08-5,7.88-3.52,11.82,9.95,4.76,9.95,7.46-3.32,5.59-.62,8.49,15.72,10.47,17.59,7.36,5.62-11.71,3.15-23.92c-.42-2.05-3.34-2.5-3.75-5.4s.83-8.08-1.24-11-8.71-3.93-9.12-6.21,2.48-7.88-.42-11.4-9.74-5.18-9.74-7.46,2.08-5.18-.82-8.29S360.26,295.58,360.26,295.58Z" style="fill: rgb(254, 196, 62); transform-origin: 376.86px 335.993px;" id="elt63se2dgrfq" class="animable"></path><path d="M370.18,320c4.32,13,11.88,30.67,14.95,39.19,3.72,10.37,7,17.87,8.62,28.23s2.56,79.75,2.56,79.75" style="fill: none; stroke: rgb(38, 50, 56); stroke-linecap: round; stroke-linejoin: round; transform-origin: 383.245px 393.585px;" id="elhth1gxr6rii" class="animable"></path><path d="M361.3,296.82s3.52,2.9,6.63,15.54c.2.82.43,1.68.68,2.58" style="fill: none; stroke: rgb(38, 50, 56); stroke-linecap: round; stroke-linejoin: round; transform-origin: 364.955px 305.88px;" id="elsyol7sh9tf" class="animable"></path><path d="M425,319.19a6.52,6.52,0,0,0-.16,5.47c1.32,2.65,3,5.31,2,6.63s-4,3-3.65,5.81,4.31,8.45,1.82,11.61-6.63,3-6.8,6.46,4,6.3,2.82,9.46-8,3.81-8,6,2.66,4.47.5,6.79-12.59,8.38-14.08,5.9S395,373.91,397,364.14c.33-1.64,2.67-2,3-4.32s-.66-6.47,1-8.79,7-3.15,7.29-5-2-6.3.33-9.12,7.8-4.14,7.8-6-1.66-4.14.66-6.63S425,319.19,425,319.19Z" style="fill: rgb(254, 196, 62); transform-origin: 411.736px 351.548px;" id="elvpkibui4mec" class="animable"></path><path d="M417.09,338.73c-3.45,10.42-9.5,24.55-12,31.37-3,8.29-5.58,14.29-6.9,22.58s-2.05,63.83-2.05,63.83" style="fill: none; stroke: rgb(38, 50, 56); stroke-linecap: round; stroke-linejoin: round; transform-origin: 406.615px 397.62px;" id="elb0kryr0zaao" class="animable"></path><path d="M424.2,320.18s-2.82,2.32-5.3,12.44c-.16.65-.35,1.34-.55,2.06" style="fill: none; stroke: rgb(38, 50, 56); stroke-linecap: round; stroke-linejoin: round; transform-origin: 421.275px 327.43px;" id="el60k2nibsgg3" class="animable"></path><path d="M368,366.14a5.49,5.49,0,0,1,.14,4.57c-1.11,2.22-2.5,4.44-1.67,5.55s3.33,2.49,3,4.85-3.6,7.06-1.52,9.69,5.54,2.5,5.68,5.41-3.33,5.26-2.36,7.9,6.65,3.18,6.65,5-2.21,3.74-.41,5.68,10.51,7,11.76,4.93,3.75-7.84,2.1-16c-.27-1.37-2.22-1.67-2.5-3.61s.55-5.41-.83-7.35-5.82-2.63-6.1-4.15,1.66-5.27-.28-7.62-6.51-3.47-6.51-5,1.39-3.46-.55-5.54S368,366.14,368,366.14Z" style="fill: rgb(254, 196, 62); transform-origin: 379.067px 393.174px;" id="elvzrpha06og" class="animable"></path><path d="M374.64,382.47c2.89,8.71,7.94,20.51,10,26.21,2.5,6.93,4.67,11.94,5.77,18.87s1.71,32.64,1.71,32.64" style="fill: none; stroke: rgb(38, 50, 56); stroke-linecap: round; stroke-linejoin: round; transform-origin: 383.38px 421.33px;" id="eldj0eerui7xf" class="animable"></path><path d="M368.7,367s2.36,1.94,4.43,10.4c.14.54.29,1.12.46,1.72" style="fill: none; stroke: rgb(38, 50, 56); stroke-linecap: round; stroke-linejoin: round; transform-origin: 371.145px 373.06px;" id="elgzkcxt6r1m" class="animable"></path><path d="M439.37,362.69a5.47,5.47,0,0,0-1.18,4.42c.57,2.41,1.42,4.89.35,5.78s-3.8,1.66-4.07,4,1.89,7.7-.74,9.79-6,1.16-6.77,4,2,5.89.49,8.23-7.2,1.58-7.62,3.33,1.31,4.15-.89,5.62-11.84,4.41-12.58,2.1-1.86-8.48,1.61-16.05c.59-1.27,2.56-1.12,3.27-2.94s.7-5.39,2.49-7,6.27-1.23,6.89-2.65-.42-5.51,2-7.36,7.13-1.88,7.48-3.36-.56-3.69,1.81-5.27S439.37,362.69,439.37,362.69Z" style="fill: rgb(254, 196, 62); transform-origin: 422.475px 386.753px;" id="elcl6a9p1ifsr" class="animable"></path><path d="M429.18,377.07c-4.8,7.82-12.42,18.14-15.73,23.22-4,6.18-8.82,10.12-9.93,17S401.81,450,401.81,450" style="fill: none; stroke: rgb(38, 50, 56); stroke-linecap: round; stroke-linejoin: round; transform-origin: 415.495px 413.535px;" id="elenr5390uqbd" class="animable"></path><path d="M438.51,363.34s-2.74,1.35-6.69,9.1c-.26.5-.54,1-.85,1.58" style="fill: none; stroke: rgb(38, 50, 56); stroke-linecap: round; stroke-linejoin: round; transform-origin: 434.74px 368.68px;" id="elohn7g6t7atk" class="animable"></path><path d="M390.16,475h15.41c8.11-4.19,13.87-14.77,13.87-27.17A34.6,34.6,0,0,0,413,427H382.77a34.6,34.6,0,0,0-6.48,20.78C376.29,460.21,382.05,470.79,390.16,475Z" style="fill: rgb(38, 50, 56); stroke: rgb(38, 50, 56); stroke-linecap: round; stroke-linejoin: round; transform-origin: 397.866px 451px;" id="el8bq2b9i1jlu" class="animable"></path><rect x="390.16" y="474.98" width="15.69" height="2.3" style="fill: rgb(38, 50, 56); stroke: rgb(38, 50, 56); stroke-linecap: round; stroke-linejoin: round; transform-origin: 398.005px 476.13px;" id="el8to8hi3xlx" class="animable"></rect></g><g id="freepik--Character--inject-15" class="animable" style="transform-origin: 230.528px 294.397px;"><path d="M250.46,112.63s-10.69,1.62-15.83,10.94c-3.62,6.54,1.43,18.72-3.17,22.17s-6.91.87-8.64,6,3.17,8.07,1.73,10.37-3.46,2.88-3.46,6.91,7.49,7.2,10.08,6.62,6.05-4.32,7.77-3.74,3.17,4.32,8.93,3.74,7.2-3.45,10.66-2,5.76,3.45,9.79,2.59,7.48-4.61,8.92-4,9.22,5.18,15.27,4.32,6.33-6.63,5.18-11.81,1.15-6.33.86-10.94-7.2-8.07-10.94-9.79-2.31-13-6.06-21.61S261.12,109.17,250.46,112.63Z" style="fill: rgb(38, 50, 56); stroke: rgb(38, 50, 56); stroke-linecap: round; stroke-linejoin: round; transform-origin: 259.833px 144.066px;" id="el007nbci805fv" class="animable"></path><path d="M227.8,415.86s4,35.77,4,36.58-.81,9.15-2.15,12.64a17.76,17.76,0,0,1-4.57,7.26c-2.16,2.16-3.5,3.77-1.89,4.58s18,0,18,0a43,43,0,0,1,1.08-7,23,23,0,0,1,1.88-4.84l.32,11.82h1.35s.48-12.36,1-14a30.35,30.35,0,0,0,1.62-8.07c0-2.69-3.5-6.72-3.5-6.72l2.72-32Z" style="fill: rgb(255, 255, 255); stroke: rgb(38, 50, 56); stroke-linecap: round; stroke-linejoin: round; transform-origin: 235.46px 446.57px;" id="el999i1gogwzk" class="animable"></path><path d="M228.52,422.3h18.66l.52-6.17-19.9-.27S228.09,418.48,228.52,422.3Z" style="fill: rgb(38, 50, 56); transform-origin: 237.75px 419.08px;" id="el3iozgmbo3bk" class="animable"></path><path d="M242.83,457.55c-2.15,5.65-2.69,11.57-4.84,13.18s-10.76-.27-10.76-.27l-.4-.08a21.53,21.53,0,0,1-1.75,2c-2.16,2.16-3.5,3.77-1.89,4.58s18,0,18,0a43,43,0,0,1,1.08-7,23,23,0,0,1,1.88-4.84l.32,11.82h1.35s.48-12.36,1-14a30.35,30.35,0,0,0,1.62-8.07c0-1.64-1.31-3.79-2.33-5.21C245.41,452.18,244.17,454,242.83,457.55Z" style="fill: rgb(38, 50, 56); stroke: rgb(38, 50, 56); stroke-linecap: round; stroke-linejoin: round; transform-origin: 235.46px 463.49px;" id="el1njihyypibei" class="animable"></path><path d="M278.64,415.86S276,451.63,276,452.44s.81,9.15,2.15,12.64a17.76,17.76,0,0,0,4.57,7.26c2.16,2.16,3.5,3.77,1.89,4.58s-18,0-18,0a43,43,0,0,0-1.08-7,23,23,0,0,0-1.88-4.84l-.32,11.82h-1.34s-.49-12.36-1-14a30.38,30.38,0,0,1-1.61-8.07c0-2.69,3.49-6.72,3.49-6.72l-4-32Z" style="fill: rgb(255, 255, 255); stroke: rgb(38, 50, 56); stroke-linecap: round; stroke-linejoin: round; transform-origin: 272.095px 446.57px;" id="elyjhlf8z9kr8" class="animable"></path><path d="M278.64,415.86l-19.9.27.78,6.17h18.64C278.45,418.48,278.64,415.86,278.64,415.86Z" style="fill: rgb(38, 50, 56); transform-origin: 268.69px 419.08px;" id="elmhppuwy77s" class="animable"></path><path d="M264.93,457.55c2.15,5.65,2.69,11.57,4.84,13.18s10.76-.27,10.76-.27l.4-.08a21.53,21.53,0,0,0,1.75,2c2.16,2.16,3.5,3.77,1.89,4.58s-18,0-18,0a43,43,0,0,0-1.08-7,23,23,0,0,0-1.88-4.84l-.32,11.82h-1.34s-.49-12.36-1-14a30.38,30.38,0,0,1-1.61-8.07c0-1.64,1.3-3.79,2.32-5.21C262.35,452.18,263.59,454,264.93,457.55Z" style="fill: rgb(38, 50, 56); stroke: rgb(38, 50, 56); stroke-linecap: round; stroke-linejoin: round; transform-origin: 272.31px 463.49px;" id="eludqxav1umbl" class="animable"></path><path d="M209.46,284.28s-1.21,25.69-.23,42.87,3.88,91.72,3.88,91.72l35.33,1,1.3-89.78,4.54,89.45,41.16-.32s-3.56-74.22-3.56-93.67,2.59-30.79,2.26-40.19-13-16.86-35.65-19.45-41.49,7.13-45.05,11S209.46,284.28,209.46,284.28Z" style="fill: rgb(255, 255, 255); transform-origin: 252.144px 342.674px;" id="elwj43rxvp4o" class="animable"></path><path d="M283.07,272.21c-.59-.29-1.2-.57-1.84-.85v148h1.84Z" style="fill: rgb(207, 207, 207); transform-origin: 282.15px 345.36px;" id="elpknt2c8pwvl" class="animable"></path><path d="M285.21,273.35l-.93-.51V419.29h.93Z" style="fill: rgb(207, 207, 207); transform-origin: 284.745px 346.065px;" id="elau79e63d826" class="animable"></path><path d="M251,267.24a.92.92,0,0,0-.92.92v69.32L252,373.79V268.16A.92.92,0,0,0,251,267.24Z" style="fill: rgb(207, 207, 207); transform-origin: 251.04px 320.513px;" id="elskcmer6ojm" class="animable"></path><path d="M253.63,267.7a.45.45,0,0,0-.46.46v129.5l.92,18.15V268.16A.46.46,0,0,0,253.63,267.7Z" style="fill: rgb(207, 207, 207); transform-origin: 253.63px 341.755px;" id="elrvw0gp3a8tl" class="animable"></path><path d="M264.79,419.44V268.16a.47.47,0,0,0-.93,0V419.45Z" style="fill: rgb(207, 207, 207); transform-origin: 264.325px 343.604px;" id="elgtok1e57gyv" class="animable"></path><path d="M269.65,268.16a.46.46,0,0,0-.46-.46.45.45,0,0,0-.46.46V419.41h.92Z" style="fill: rgb(207, 207, 207); transform-origin: 269.19px 343.555px;" id="elztgwil1hexm" class="animable"></path><path d="M267.52,268.16a.93.93,0,0,0-1.85,0V419.43h1.85Z" style="fill: rgb(207, 207, 207); transform-origin: 266.595px 343.378px;" id="elwuh9w2ti35q" class="animable"></path><path d="M280.34,271l-.92-.37v148.7h.92Z" style="fill: rgb(207, 207, 207); transform-origin: 279.88px 344.98px;" id="elmyr0ec4l83" class="animable"></path><path d="M220.84,272.14c-.65.31-1.26.62-1.84.93V419l1.84,0Z" style="fill: rgb(207, 207, 207); transform-origin: 219.92px 345.57px;" id="elepuwxpp7wnt" class="animable"></path><path d="M217.19,419l.92,0V273.56l-.92.54Z" style="fill: rgb(207, 207, 207); transform-origin: 217.65px 346.28px;" id="el0vaubbot3zkq" class="animable"></path><path d="M248.77,267.7a.45.45,0,0,0-.46.46V419.84h.13l.79-54.34V268.16A.46.46,0,0,0,248.77,267.7Z" style="fill: rgb(207, 207, 207); transform-origin: 248.77px 343.77px;" id="elf6xa99bjse" class="animable"></path><path d="M223,271.16l-.92.41V419.12l.92,0Z" style="fill: rgb(207, 207, 207); transform-origin: 222.54px 345.14px;" id="elgi05ap6s4fe" class="animable"></path><path d="M235.48,267.24a.92.92,0,0,0-.92.92v151.3l1.84.06V268.16A.92.92,0,0,0,235.48,267.24Z" style="fill: rgb(207, 207, 207); transform-origin: 235.48px 343.38px;" id="elwd0bxcwzoq" class="animable"></path><path d="M232.75,268.16V419.41l.92,0V268.16a.46.46,0,0,0-.46-.46h-.07l-.12,0A.44.44,0,0,0,232.75,268.16Z" style="fill: rgb(207, 207, 207); transform-origin: 233.208px 343.555px;" id="el6gqicgq7zzj" class="animable"></path><path d="M238.07,267.7a.46.46,0,0,0-.46.46V419.55l.92,0V268.16A.45.45,0,0,0,238.07,267.7Z" style="fill: rgb(207, 207, 207); transform-origin: 238.07px 343.625px;" id="el2g0nfgiclln" class="animable"></path><path d="M209.46,284.28s-1.21,25.69-.23,42.87,3.88,91.72,3.88,91.72l35.33,1,1.3-89.78,4.54,89.45,41.16-.32s-3.56-74.22-3.56-93.67,2.59-30.79,2.26-40.19-13-16.86-35.65-19.45-41.49,7.13-45.05,11S209.46,284.28,209.46,284.28Z" style="fill: none; stroke: rgb(38, 50, 56); stroke-miterlimit: 10; transform-origin: 252.144px 342.674px;" id="ell5txq2rxit" class="animable"></path><path d="M248.61,274.39s-4.8,12.81-4,14.81,5.2,2.4,5.2,2.4l1.6-16.81s4,15.21,6,14.81,4-1.6,3.2-4.81S249,272.39,249,272.39Z" style="fill: rgb(38, 50, 56); stroke: rgb(38, 50, 56); stroke-linecap: round; stroke-linejoin: round; transform-origin: 252.655px 281.995px;" id="elgz7xfr9ggh" class="animable"></path><path d="M254.29,126.83S237.61,137.66,237,140.26s.44,12.34,1.52,16.24,5.2,10.83,6.93,12.13,3.47,9.31,1.08,11.7-5.19,2.38-9.31.86-7.8-3.68-10.83-3.46-26.64,6.28-31,7.14-7.58,1.3-8.44,1.52-4.77-.87-5.64-.43-1.73-1.52-4.76-3.9-5.2-4.33-5.2-4.33L160.73,187l1.73,3.46s-.43,6.07,1.52,9.32,5.41,5.84,8.88,11S180,223,187.15,223s16.24-7.8,22.53-10.83,11.91-6.06,11.91-6.06-6.28,39.85-10,47.21-11.91,16.46-10,21,4.55,10,7.8,10,38.33-10.61,44.83-10.61,35.73,12.56,39,14.29c0,0-.65,3.47,1.3,3.47s5-2.82,6.28-6.93-4.76-15.6-5.41-23.18-4.12-34-4.12-34,9.53,26.42,10.83,30.54,7.58,9.31,13,8.45,14.07-5.64,11.69-17.55S313,219.53,309.73,212.81s-10-21-14.94-26-9.1-4.76-15.81-4.76-13-.87-13.65-3-.43-12.56-.43-12.56l4.55-9.32s3,1.09,4.11-1.51a17.58,17.58,0,0,0,1.09-5.85s-3.47-1.73-11.7-9.75S254.29,126.83,254.29,126.83Z" style="fill: rgb(255, 255, 255); stroke: rgb(38, 50, 56); stroke-linecap: round; stroke-linejoin: round; transform-origin: 243.963px 209.15px;" id="elup3ym0uzb19" class="animable"></path><path d="M245.41,168.63s4.07,4.05,8.23,2.17a65.07,65.07,0,0,0,6.06-3.25S255.18,175,247.6,175Z" style="fill: rgb(38, 50, 56); stroke: rgb(38, 50, 56); stroke-linecap: round; stroke-linejoin: round; transform-origin: 252.555px 171.275px;" id="elmm31klm9so9" class="animable"></path><path d="M248.88,147.47a5.87,5.87,0,0,1-2.17,3c-1.52.86,0,3,1.52,3.25a4.26,4.26,0,0,0,2.59-.44" style="fill: none; stroke: rgb(38, 50, 56); stroke-linecap: round; stroke-linejoin: round; transform-origin: 248.45px 150.617px;" id="elgvklwomf7u9" class="animable"></path><path d="M247.79,157.87s3.68,1.73,8-2" style="fill: none; stroke: rgb(38, 50, 56); stroke-linecap: round; stroke-linejoin: round; transform-origin: 251.79px 157.07px;" id="elkiys83r9y4h" class="animable"></path><path d="M245.25,145.5c0,1.17-.47,2.12-1.06,2.12s-1.06-1-1.06-2.12.47-2.13,1.06-2.13S245.25,144.32,245.25,145.5Z" style="fill: rgb(38, 50, 56); transform-origin: 244.19px 145.495px;" id="elkkdiivpguu" class="animable"></path><path d="M256.93,145.5c0,1.17-.47,2.12-1.06,2.12s-1.06-1-1.06-2.12.48-2.13,1.06-2.13S256.93,144.32,256.93,145.5Z" style="fill: rgb(38, 50, 56); transform-origin: 255.87px 145.495px;" id="elygh819rd1q" class="animable"></path><path d="M245.9,148.53h-8.45a1,1,0,0,1-1-.83l-.94-4.6a1,1,0,0,1,1-1.24h10.23a1,1,0,0,1,1,1.22l-.83,4.6A1.05,1.05,0,0,1,245.9,148.53Z" style="fill: none; stroke: rgb(38, 50, 56); stroke-linecap: round; stroke-linejoin: round; transform-origin: 241.623px 145.195px;" id="elvl4t33ymckl" class="animable"></path><path d="M262.73,148.53h-9.42a1.14,1.14,0,0,1-1.14-.83l-1-4.6a1.08,1.08,0,0,1,1.14-1.24h11.4a1.07,1.07,0,0,1,1.14,1.22l-.93,4.6A1.13,1.13,0,0,1,262.73,148.53Z" style="fill: none; stroke: rgb(38, 50, 56); stroke-linecap: round; stroke-linejoin: round; transform-origin: 258.009px 145.195px;" id="elk5rczgi6rx" class="animable"></path><line x1="247.23" y1="142.01" x2="252.26" y2="142.01" style="fill: none; stroke: rgb(38, 50, 56); stroke-linecap: round; stroke-linejoin: round; transform-origin: 249.745px 142.01px;" id="elb8r329vdlbg" class="animable"></line><line x1="247.68" y1="144.28" x2="251.17" y2="144.28" style="fill: none; stroke: rgb(38, 50, 56); stroke-linecap: round; stroke-linejoin: round; transform-origin: 249.425px 144.28px;" id="eli0f9vchxzm" class="animable"></line><path d="M241.61,140.64a3.89,3.89,0,0,1,5.46-1.06" style="fill: none; stroke: rgb(38, 50, 56); stroke-linecap: round; stroke-linejoin: round; transform-origin: 244.34px 139.765px;" id="elb0prlb8p3qr" class="animable"></path><path d="M252.38,139.58s2.69-2.78,6.75.31" style="fill: none; stroke: rgb(38, 50, 56); stroke-linecap: round; stroke-linejoin: round; transform-origin: 255.755px 139.161px;" id="elnfl5dljyyj" class="animable"></path><path d="M309.73,212.81c-3.25-6.71-10-21-14.94-26s-9.1-4.76-15.81-4.76-13-.87-13.65-3a24.28,24.28,0,0,1-.4-4.47,41.68,41.68,0,0,1-17.33.45c.19,2.16-.07,4.27-1.11,5.32-2.38,2.38-5.19,2.38-9.31.86s-7.8-3.68-10.83-3.46-26.64,6.28-31,7.14-7.58,1.3-8.44,1.52-4.77-.87-5.64-.43-1.73-1.52-4.76-3.9-5.2-4.33-5.2-4.33L160.73,187l1.73,3.46s-.43,6.07,1.52,9.32,5.41,5.84,8.88,11S180,223,187.15,223s16.24-7.8,22.53-10.83,11.91-6.06,11.91-6.06-6.28,39.85-10,47.21-11.91,16.46-10,21,4.55,10,7.8,10,38.33-10.61,44.83-10.61,35.73,12.56,39,14.29c0,0-.65,3.47,1.3,3.47s5-2.82,6.28-6.93-4.76-15.6-5.41-23.18-4.12-34-4.12-34,9.53,26.42,10.83,30.54,7.58,9.31,13,8.45,14.07-5.64,11.69-17.55S313,219.53,309.73,212.81Z" style="fill: rgb(38, 50, 56); stroke: rgb(38, 50, 56); stroke-linecap: round; stroke-linejoin: round; transform-origin: 243.963px 233.025px;" id="elod5g7m7stkp" class="animable"></path><line x1="290.55" y1="223.95" x2="285.26" y2="200.92" style="fill: none; stroke: gray; stroke-linecap: round; stroke-linejoin: round; transform-origin: 287.905px 212.435px;" id="el319cbxnu75r" class="animable"></line><path d="M186.17,187.93s2.4,6,2,16.81" style="fill: none; stroke: gray; stroke-linecap: round; stroke-linejoin: round; transform-origin: 187.192px 196.335px;" id="elvah6vtuq53p" class="animable"></path><path d="M183,187.13s2.4,9.61.8,16.81" style="fill: none; stroke: gray; stroke-linecap: round; stroke-linejoin: round; transform-origin: 183.675px 195.535px;" id="eliuvescj1to" class="animable"></path><path d="M306.65,242.37s6-4.81,13.6,0" style="fill: none; stroke: gray; stroke-linecap: round; stroke-linejoin: round; transform-origin: 313.45px 241.301px;" id="eldtra166ip6h" class="animable"></path><polyline points="219.79 193.54 221.59 206.1 214.99 194.34" style="fill: none; stroke: gray; stroke-linecap: round; stroke-linejoin: round; transform-origin: 218.29px 199.82px;" id="el3izvmrr1f6" class="animable"></polyline><path d="M251,272.79s-16.41-2.41-18.41-2" style="fill: none; stroke: gray; stroke-linecap: round; stroke-linejoin: round; transform-origin: 241.795px 271.767px;" id="elq8myyeogc2" class="animable"></path><path d="M302,242.84s13.16,1.94,15.54,2.8,2.59,10.15,0,13.39-5.61,1.94-9.5.43-11.22-9.07-11.22-9.07Z" style="fill: rgb(255, 255, 255); stroke: rgb(38, 50, 56); stroke-linecap: round; stroke-linejoin: round; transform-origin: 308.112px 251.94px;" id="eluibgxu8rar" class="animable"></path><polygon points="303.3 240.47 296.18 233.77 295.1 238.52 297.69 242.19 303.3 240.47" style="fill: rgb(255, 255, 255); stroke: rgb(38, 50, 56); stroke-linecap: round; stroke-linejoin: round; transform-origin: 299.2px 237.98px;" id="el9cv98ha3nxh" class="animable"></polygon><path d="M275.38,224.22l-8.75,32.7a1.31,1.31,0,0,0,1.28,1.66l22.33-.19a1.34,1.34,0,0,0,1.26-.94l9.38-31a2.45,2.45,0,0,0-2.24-3.15l-20.79-.86A2.45,2.45,0,0,0,275.38,224.22Z" style="fill: rgb(255, 255, 255); stroke: rgb(38, 50, 56); stroke-linecap: round; stroke-linejoin: round; transform-origin: 283.783px 240.509px;" id="el47d05ktzrxr" class="animable"></path><path d="M301,239.89s-13.94,1.29-16.68,1.93-2,2.79-.4,4.73,7.07,6,9.62,7.52,5.1,1.72,6.47-.43,3.93-12.25,3.34-13.11S301,239.89,301,239.89Z" style="fill: rgb(255, 255, 255); stroke: rgb(38, 50, 56); stroke-linecap: round; stroke-linejoin: round; transform-origin: 292.963px 247.549px;" id="eluewe5gnh6c" class="animable"></path><line x1="286.18" y1="241.53" x2="300.37" y2="244.4" style="fill: none; stroke: rgb(38, 50, 56); stroke-linecap: round; stroke-linejoin: round; transform-origin: 293.275px 242.965px;" id="elfym4o63lu2c" class="animable"></line><line x1="282.71" y1="243.75" x2="299.39" y2="248.05" style="fill: none; stroke: rgb(38, 50, 56); stroke-linecap: round; stroke-linejoin: round; transform-origin: 291.05px 245.9px;" id="el3tsxdd1ewox" class="animable"></line><line x1="285.85" y1="248.48" x2="297.62" y2="251.7" style="fill: none; stroke: rgb(38, 50, 56); stroke-linecap: round; stroke-linejoin: round; transform-origin: 291.735px 250.09px;" id="elyjew22b0py" class="animable"></line><path d="M171.34,177.73l-20.65-24s-7.73-13.79-11-17.66-5.24-3.31-5.24-1.93,3,3.59,4.14,5.24a28.7,28.7,0,0,1,2.21,4.69l-3.31,7.18a72,72,0,0,0,6.07,5.51,9.61,9.61,0,0,0,3.58,1.38L160.73,187Z" style="fill: rgb(255, 255, 255); stroke: rgb(38, 50, 56); stroke-linecap: round; stroke-linejoin: round; transform-origin: 152.895px 160.051px;" id="el8b6u3ncggl6" class="animable"></path><polygon points="139.1 141.06 144.34 147.68 139.65 154.02 133.86 150.71 139.1 141.06" style="fill: rgb(255, 255, 255); stroke: rgb(38, 50, 56); stroke-linecap: round; stroke-linejoin: round; transform-origin: 139.1px 147.54px;" id="el01jz8fwl0a5u" class="animable"></polygon><line x1="135.66" y1="147.41" x2="141.29" y2="151.47" style="fill: none; stroke: rgb(38, 50, 56); stroke-linecap: round; stroke-linejoin: round; transform-origin: 138.475px 149.44px;" id="el51ky1j1tuye" class="animable"></line><line x1="137.46" y1="144.65" x2="142.85" y2="149.21" style="fill: none; stroke: rgb(38, 50, 56); stroke-linecap: round; stroke-linejoin: round; transform-origin: 140.155px 146.93px;" id="el0oxx3833nm2r" class="animable"></line><path d="M150.69,153.75s-3.31-12.69-4.69-13.24c-1.07-.43-4.66,2.91-6.22,4.43a2,2,0,0,0-.45,2.27.87.87,0,0,0,1,.54c1.38-.28,4-2.28,4-2.28s-1.1,6.62,1.93,8.28" style="fill: rgb(255, 255, 255); stroke: rgb(38, 50, 56); stroke-linecap: round; stroke-linejoin: round; transform-origin: 144.923px 147.111px;" id="elluf4ohbnhp" class="animable"></path></g><g id="freepik--Data-points--inject-15" class="animable" style="transform-origin: 253.604px 214.695px;"><path d="M332.85,73.42H303.77a3.19,3.19,0,0,0-3.19,3.19V88.75a3.19,3.19,0,0,0,3.19,3.19h25.75L336,99.53V76.61A3.18,3.18,0,0,0,332.85,73.42Z" style="fill: rgb(38, 50, 56); transform-origin: 318.29px 86.475px;" id="elwbf9pepkgm7" class="animable"></path><line x1="307.36" y1="78.61" x2="328.7" y2="78.61" style="fill: none; stroke: rgb(255, 255, 255); stroke-miterlimit: 10; transform-origin: 318.03px 78.61px;" id="eltcd89axljk" class="animable"></line><line x1="307.36" y1="82.51" x2="328.7" y2="82.51" style="fill: none; stroke: rgb(255, 255, 255); stroke-miterlimit: 10; transform-origin: 318.03px 82.51px;" id="el7or8y2j5yed" class="animable"></line><line x1="307.36" y1="86.41" x2="328.7" y2="86.41" style="fill: none; stroke: rgb(255, 255, 255); stroke-miterlimit: 10; transform-origin: 318.03px 86.41px;" id="el2nzyik9asnx" class="animable"></line><path d="M447.19,202.41h29.07a3.19,3.19,0,0,1,3.19,3.19v12.14a3.19,3.19,0,0,1-3.19,3.19H450.51L444,228.52V205.6A3.19,3.19,0,0,1,447.19,202.41Z" style="fill: rgb(38, 50, 56); transform-origin: 461.725px 215.465px;" id="elczx92ka9a2p" class="animable"></path><line x1="472.67" y1="207.6" x2="451.34" y2="207.6" style="fill: none; stroke: rgb(255, 255, 255); stroke-miterlimit: 10; transform-origin: 462.005px 207.6px;" id="elxah2yyax6si" class="animable"></line><line x1="472.67" y1="211.5" x2="451.34" y2="211.5" style="fill: none; stroke: rgb(255, 255, 255); stroke-miterlimit: 10; transform-origin: 462.005px 211.5px;" id="eltbmtiws5y9m" class="animable"></line><line x1="472.67" y1="215.39" x2="451.34" y2="215.39" style="fill: none; stroke: rgb(255, 255, 255); stroke-miterlimit: 10; transform-origin: 462.005px 215.39px;" id="elh2ehxzlm4uo" class="animable"></line><path d="M67.79,212.09H38.71a3.18,3.18,0,0,0-3.19,3.18v12.15a3.18,3.18,0,0,0,3.19,3.18H64.46L71,238.2V215.27A3.18,3.18,0,0,0,67.79,212.09Z" style="fill: rgb(38, 50, 56); transform-origin: 53.26px 225.145px;" id="el47ge4l211bp" class="animable"></path><line x1="42.3" y1="217.28" x2="63.64" y2="217.28" style="fill: none; stroke: rgb(255, 255, 255); stroke-miterlimit: 10; transform-origin: 52.97px 217.28px;" id="elg6lrfeovc96" class="animable"></line><line x1="42.3" y1="221.18" x2="63.64" y2="221.18" style="fill: none; stroke: rgb(255, 255, 255); stroke-miterlimit: 10; transform-origin: 52.97px 221.18px;" id="elqhmbapv719q" class="animable"></line><line x1="42.3" y1="225.07" x2="63.64" y2="225.07" style="fill: none; stroke: rgb(255, 255, 255); stroke-miterlimit: 10; transform-origin: 52.97px 225.07px;" id="el036k7pebwti" class="animable"></line><path d="M204.41,292.7h29.08a3.19,3.19,0,0,1,3.19,3.19V308a3.19,3.19,0,0,1-3.19,3.19H207.74l-6.52,7.59V295.89A3.19,3.19,0,0,1,204.41,292.7Z" style="fill: rgb(255, 255, 255); stroke: rgb(143, 143, 143); stroke-miterlimit: 10; transform-origin: 218.95px 305.74px;" id="elm2ogtwrj9e" class="animable"></path><line x1="229.9" y1="297.89" x2="208.56" y2="297.89" style="fill: none; stroke: rgb(143, 143, 143); stroke-miterlimit: 10; transform-origin: 219.23px 297.89px;" id="elql7wmcyh6sf" class="animable"></line><line x1="229.9" y1="301.79" x2="208.56" y2="301.79" style="fill: none; stroke: rgb(143, 143, 143); stroke-miterlimit: 10; transform-origin: 219.23px 301.79px;" id="elizknbur0wk" class="animable"></line><line x1="229.9" y1="305.69" x2="208.56" y2="305.69" style="fill: none; stroke: rgb(143, 143, 143); stroke-miterlimit: 10; transform-origin: 219.23px 305.69px;" id="elsfdoah7afaf" class="animable"></line><line x1="49.48" y1="272.05" x2="78.23" y2="272.05" style="fill: none; stroke: rgb(143, 143, 143); stroke-miterlimit: 10; transform-origin: 63.855px 272.05px;" id="el7cae0ghxqee" class="animable"></line><rect x="337.26" y="214.41" width="26.16" height="21.51" style="fill: rgb(255, 255, 255); stroke: rgb(143, 143, 143); stroke-miterlimit: 10; transform-origin: 350.34px 225.165px;" id="elw1bu9yu5m9" class="animable"></rect><polyline points="337.55 226.03 347.44 219.64 353.25 227.49 358.19 224.87 362.84 230.39" style="fill: none; stroke: rgb(143, 143, 143); stroke-miterlimit: 10; transform-origin: 350.195px 225.015px;" id="elk2kyw0bx0na" class="animable"></polyline><path d="M360.22,219.64a3.2,3.2,0,1,1-3.19-3.2A3.2,3.2,0,0,1,360.22,219.64Z" style="fill: none; stroke: rgb(143, 143, 143); stroke-miterlimit: 10; transform-origin: 357.02px 219.64px;" id="elyrwn9nkqo8" class="animable"></path><polygon points="362.06 95.8 344.16 95.8 344.16 75.27 348.87 70.74 362.06 70.74 362.06 95.8" style="fill: rgb(255, 255, 255); stroke: rgb(143, 143, 143); stroke-linecap: round; stroke-linejoin: round; transform-origin: 353.11px 83.27px;" id="el77tog8k3ads" class="animable"></polygon><polygon points="344.16 75.27 349.03 75.27 349.03 70.74 344.16 75.27" style="fill: rgb(255, 255, 255); stroke: rgb(143, 143, 143); stroke-linecap: round; stroke-linejoin: round; transform-origin: 346.595px 73.005px;" id="el7v6ex4k3gyg" class="animable"></polygon><polygon points="381.63 95.8 363.73 95.8 363.73 75.27 368.44 70.74 381.63 70.74 381.63 95.8" style="fill: rgb(255, 255, 255); stroke: rgb(143, 143, 143); stroke-linecap: round; stroke-linejoin: round; transform-origin: 372.68px 83.27px;" id="eltejcy07i41q" class="animable"></polygon><polygon points="363.73 75.27 368.6 75.27 368.6 70.74 363.73 75.27" style="fill: rgb(255, 255, 255); stroke: rgb(143, 143, 143); stroke-linecap: round; stroke-linejoin: round; transform-origin: 366.165px 73.005px;" id="elpo04wy2amjj" class="animable"></polygon><polygon points="401.2 95.8 383.3 95.8 383.3 75.27 388.01 70.74 401.2 70.74 401.2 95.8" style="fill: rgb(255, 255, 255); stroke: rgb(143, 143, 143); stroke-linecap: round; stroke-linejoin: round; transform-origin: 392.25px 83.27px;" id="elsi7mkthibdl" class="animable"></polygon><polygon points="383.3 75.27 388.17 75.27 388.17 70.74 383.3 75.27" style="fill: rgb(255, 255, 255); stroke: rgb(143, 143, 143); stroke-linecap: round; stroke-linejoin: round; transform-origin: 385.735px 73.005px;" id="eloaozj0ubg4e" class="animable"></polygon><line x1="41.15" y1="333.89" x2="96.98" y2="333.89" style="fill: none; stroke: rgb(143, 143, 143); stroke-miterlimit: 10; transform-origin: 69.065px 333.89px;" id="elotu646vvdui" class="animable"></line><line x1="69.1" y1="333.89" x2="69.1" y2="315.5" style="fill: none; stroke: rgb(143, 143, 143); stroke-miterlimit: 10; transform-origin: 69.1px 324.695px;" id="elqfc6bugbngn" class="animable"></line><g id="el5975e5g7kdp"><circle cx="41.15" cy="333.89" r="10.25" style="fill: rgb(255, 255, 255); stroke: rgb(143, 143, 143); stroke-miterlimit: 10; transform-origin: 41.15px 333.89px; transform: rotate(-22.5deg);" class="animable"></circle></g><path d="M49.29,340.1l-8.42-4.77V323.65a10.25,10.25,0,1,0,8.42,16.45Z" style="fill: rgb(254, 196, 62); stroke: rgb(143, 143, 143); stroke-miterlimit: 10; transform-origin: 40.0851px 333.898px;" id="elig3f5dzdeq" class="animable"></path><path d="M47.16,333.89a6,6,0,1,1-6-6A6,6,0,0,1,47.16,333.89Z" style="fill: rgb(255, 255, 255); stroke: rgb(143, 143, 143); stroke-miterlimit: 10; transform-origin: 41.16px 333.89px;" id="el609x1nnk6bp" class="animable"></path><g id="elkxp4ckxwb68"><circle cx="69.1" cy="333.89" r="10.25" style="fill: rgb(255, 255, 255); stroke: rgb(143, 143, 143); stroke-miterlimit: 10; transform-origin: 69.1px 333.89px; transform: rotate(-22.5deg);" class="animable"></circle></g><path d="M77.24,340.1l-8.41-4.77V323.65a10.25,10.25,0,1,0,8.41,16.45Z" style="fill: rgb(254, 196, 62); stroke: rgb(143, 143, 143); stroke-miterlimit: 10; transform-origin: 68.035px 333.898px;" id="elll34iqinmt" class="animable"></path><path d="M75.11,333.89a6,6,0,1,1-6-6A6,6,0,0,1,75.11,333.89Z" style="fill: rgb(255, 255, 255); stroke: rgb(143, 143, 143); stroke-miterlimit: 10; transform-origin: 69.11px 333.89px;" id="elg1sphdluxac" class="animable"></path><g id="el1rjm2dzm8fgh"><circle cx="97.05" cy="333.89" r="10.25" style="fill: rgb(255, 255, 255); stroke: rgb(143, 143, 143); stroke-miterlimit: 10; transform-origin: 97.05px 333.89px; transform: rotate(-76.56deg);" class="animable"></circle></g><path d="M105.19,340.1l-8.41-4.77V323.65a10.25,10.25,0,1,0,8.41,16.45Z" style="fill: rgb(254, 196, 62); stroke: rgb(143, 143, 143); stroke-miterlimit: 10; transform-origin: 95.985px 333.898px;" id="elk2rmoe6a847" class="animable"></path><path d="M103.07,333.89a6,6,0,1,1-6-6A6,6,0,0,1,103.07,333.89Z" style="fill: rgb(255, 255, 255); stroke: rgb(143, 143, 143); stroke-miterlimit: 10; transform-origin: 97.07px 333.89px;" id="elwrggq9n741" class="animable"></path><circle cx="134.41" cy="134.16" r="31.76" style="fill: none; stroke: rgb(143, 143, 143); stroke-miterlimit: 10; transform-origin: 134.41px 134.16px;" id="elo03tncbf36o" class="animable"></circle><circle cx="134.41" cy="134.16" r="20.76" style="fill: none; stroke: rgb(143, 143, 143); stroke-miterlimit: 10; transform-origin: 134.41px 134.16px;" id="elp513p371et" class="animable"></circle><line x1="411.17" y1="233" x2="424.17" y2="303.5" style="fill: none; stroke: rgb(143, 143, 143); stroke-miterlimit: 10; transform-origin: 417.67px 268.25px;" id="el0px43zj45hzn" class="animable"></line><line x1="151.17" y1="237.5" x2="245.39" y2="250.89" style="fill: none; stroke: rgb(143, 143, 143); stroke-miterlimit: 10; transform-origin: 198.28px 244.195px;" id="eluyixm9oeu1" class="animable"></line><line x1="173.17" y1="298" x2="139.67" y2="336" style="fill: none; stroke: rgb(143, 143, 143); stroke-miterlimit: 10; transform-origin: 156.42px 317px;" id="elpti25ydvad" class="animable"></line><polyline points="139.67 338.5 90.17 245 151.17 237.5 173.17 298 342.67 186 342.67 133.05" style="fill: none; stroke: rgb(143, 143, 143); stroke-miterlimit: 10; transform-origin: 216.42px 235.775px;" id="elp9l44xwgjc9" class="animable"></polyline><polyline points="90.17 245 73.67 180 134.41 134.16 182.3 133" style="fill: none; stroke: rgb(143, 143, 143); stroke-miterlimit: 10; transform-origin: 127.985px 189px;" id="elze8v79ahgro" class="animable"></polyline><line x1="151.17" y1="237.5" x2="73.67" y2="180" style="fill: none; stroke: rgb(143, 143, 143); stroke-miterlimit: 10; transform-origin: 112.42px 208.75px;" id="elw9ae82o00i9" class="animable"></line><polyline points="151.17 237.5 114.62 291.59 72.17 311" style="fill: none; stroke: rgb(143, 143, 143); stroke-miterlimit: 10; transform-origin: 111.67px 274.25px;" id="el9su3me34sk" class="animable"></polyline><polyline points="200.02 326.28 173.17 298 182 264.23" style="fill: none; stroke: rgb(143, 143, 143); stroke-miterlimit: 10; transform-origin: 186.595px 295.255px;" id="el05p9nsugqaob" class="animable"></polyline><line x1="173.17" y1="298" x2="140.64" y2="286.25" style="fill: none; stroke: rgb(143, 143, 143); stroke-miterlimit: 10; transform-origin: 156.905px 292.125px;" id="eljt8sixmeheq" class="animable"></line><polyline points="445.55 234.87 411.17 233 375.49 268.9" style="fill: none; stroke: rgb(143, 143, 143); stroke-miterlimit: 10; transform-origin: 410.52px 250.95px;" id="ely7j2v036p8" class="animable"></polyline><polyline points="337.95 104.89 342 131.12 323.94 148.92" style="fill: none; stroke: rgb(143, 143, 143); stroke-miterlimit: 10; transform-origin: 332.97px 126.905px;" id="eldefft064jvt" class="animable"></polyline><line x1="342" y1="131.12" x2="369.31" y2="116.23" style="fill: none; stroke: rgb(143, 143, 143); stroke-miterlimit: 10; transform-origin: 355.655px 123.675px;" id="eln6mrt9oqw4" class="animable"></line><line x1="394.18" y1="271.89" x2="389.19" y2="255.54" style="fill: none; stroke: rgb(143, 143, 143); stroke-miterlimit: 10; transform-origin: 391.685px 263.715px;" id="elqmt2kku537" class="animable"></line><line x1="150.68" y1="235.83" x2="148.54" y2="218.88" style="fill: none; stroke: rgb(143, 143, 143); stroke-miterlimit: 10; transform-origin: 149.61px 227.355px;" id="el7a9nsqkzj6b" class="animable"></line><line x1="87.61" y1="243.72" x2="70.61" y2="241.98" style="fill: none; stroke: rgb(143, 143, 143); stroke-miterlimit: 10; transform-origin: 79.11px 242.85px;" id="el3jzqt55egez" class="animable"></line><line x1="69.67" y1="313.5" x2="63.24" y2="276.91" style="fill: none; stroke: rgb(143, 143, 143); stroke-miterlimit: 10; transform-origin: 66.455px 295.205px;" id="elw0cwlbkkr7g" class="animable"></line><polyline points="165.3 94.97 134.41 134.16 134.41 59.44 178.4 59.44" style="fill: none; stroke: rgb(143, 143, 143); stroke-miterlimit: 10; transform-origin: 156.405px 96.8px;" id="el710cznsrbhc" class="animable"></polyline><line x1="342.67" y1="186" x2="411.17" y2="233" style="fill: none; stroke: rgb(143, 143, 143); stroke-miterlimit: 10; transform-origin: 376.92px 209.5px;" id="elzvxda54duyq" class="animable"></line><circle cx="342" cy="131.12" r="5" style="fill: rgb(254, 196, 62); transform-origin: 342px 131.12px;" id="elfpl1nnqttp6" class="animable"></circle><g id="elf5iczf0itbp"><circle cx="342" cy="186.66" r="9.21" style="fill: none; stroke: rgb(254, 196, 62); stroke-miterlimit: 10; transform-origin: 342px 186.66px; transform: rotate(-77.16deg);" class="animable"></circle></g><circle cx="342" cy="186.66" r="5" style="fill: rgb(254, 196, 62); transform-origin: 342px 186.66px;" id="el0bvlkemd9gap" class="animable"></circle><circle cx="410.86" cy="233.14" r="9.21" style="fill: none; stroke: rgb(254, 196, 62); stroke-miterlimit: 10; transform-origin: 410.86px 233.14px;" id="el2c796a3mwc7" class="animable"></circle><circle cx="410.86" cy="233.14" r="5" style="fill: rgb(254, 196, 62); transform-origin: 410.86px 233.14px;" id="elw43vb2yfg2" class="animable"></circle><g id="elbpobwmy6my5"><circle cx="172.95" cy="297.59" r="9.21" style="fill: none; stroke: rgb(254, 196, 62); stroke-miterlimit: 10; transform-origin: 172.95px 297.59px; transform: rotate(-76.5deg);" class="animable"></circle></g><circle cx="172.95" cy="297.59" r="5" style="fill: rgb(254, 196, 62); transform-origin: 172.95px 297.59px;" id="elklwpaq5uaz" class="animable"></circle><g id="elygixybw4mzo"><circle cx="134.3" cy="133.89" r="9.21" style="fill: none; stroke: rgb(254, 196, 62); stroke-miterlimit: 10; transform-origin: 134.3px 133.89px; transform: rotate(-76.56deg);" class="animable"></circle></g><circle cx="134.3" cy="133.89" r="5" style="fill: rgb(254, 196, 62); transform-origin: 134.3px 133.89px;" id="elme761dtfm9" class="animable"></circle><circle cx="375.89" cy="268.81" r="2.5" style="fill: rgb(254, 196, 62); transform-origin: 375.89px 268.81px;" id="ely9snsm1a0t" class="animable"></circle><circle cx="445.17" cy="234.86" r="2.5" style="fill: rgb(254, 196, 62); transform-origin: 445.17px 234.86px;" id="el2vrudshgu25" class="animable"></circle><circle cx="324.31" cy="148.65" r="2.5" style="fill: rgb(254, 196, 62); transform-origin: 324.31px 148.65px;" id="eltadtv76sko" class="animable"></circle><circle cx="369.41" cy="116.48" r="2.5" style="fill: rgb(254, 196, 62); transform-origin: 369.41px 116.48px;" id="eliv7bnupfwxn" class="animable"></circle><circle cx="337.57" cy="104.87" r="2.5" style="fill: rgb(254, 196, 62); transform-origin: 337.57px 104.87px;" id="elafr8vk27s3" class="animable"></circle><circle cx="139.67" cy="336" r="2.5" style="fill: rgb(254, 196, 62); transform-origin: 139.67px 336px;" id="elfaumpx5usvm" class="animable"></circle><circle cx="63.24" cy="276.91" r="2.5" style="fill: rgb(254, 196, 62); transform-origin: 63.24px 276.91px;" id="elx8cg39rs3s" class="animable"></circle><circle cx="139.98" cy="286.45" r="2.5" style="fill: rgb(254, 196, 62); transform-origin: 139.98px 286.45px;" id="elz6hykmy72q" class="animable"></circle><circle cx="181.41" cy="264.27" r="2.5" style="fill: rgb(254, 196, 62); transform-origin: 181.41px 264.27px;" id="eluk0ypa4mcs" class="animable"></circle><path d="M205.12,326.27a4.74,4.74,0,1,1-4.74-4.74A4.74,4.74,0,0,1,205.12,326.27Z" style="fill: rgb(254, 196, 62); transform-origin: 200.38px 326.27px;" id="ely0tibgfw95" class="animable"></path><circle cx="151.17" cy="237.5" r="2.5" style="fill: rgb(254, 196, 62); transform-origin: 151.17px 237.5px;" id="elx54rl5xmjbh" class="animable"></circle><circle cx="183.64" cy="133.26" r="2.5" style="fill: rgb(254, 196, 62); transform-origin: 183.64px 133.26px;" id="el52roenit9yl" class="animable"></circle><circle cx="165.3" cy="94.97" r="2.5" style="fill: rgb(254, 196, 62); transform-origin: 165.3px 94.97px;" id="elebofpr8s4sl" class="animable"></circle><circle cx="73.67" cy="180" r="2.5" style="fill: rgb(254, 196, 62); transform-origin: 73.67px 180px;" id="elb1k0qbcwpp" class="animable"></circle><circle cx="424.17" cy="303.5" r="5" style="fill: rgb(254, 196, 62); transform-origin: 424.17px 303.5px;" id="elrdn5bpc30ms" class="animable"></circle><circle cx="114.77" cy="291.76" r="5" style="fill: rgb(254, 196, 62); transform-origin: 114.77px 291.76px;" id="eljnv1pikwcw" class="animable"></circle><circle cx="244.14" cy="251.08" r="5" style="fill: rgb(254, 196, 62); transform-origin: 244.14px 251.08px;" id="elll7l187s6q" class="animable"></circle><circle cx="69.56" cy="311.43" r="5" style="fill: rgb(254, 196, 62); transform-origin: 69.56px 311.43px;" id="el81mhdwmsjj" class="animable"></circle><circle cx="90.17" cy="245" r="5" style="fill: rgb(254, 196, 62); transform-origin: 90.17px 245px;" id="el2de6cz1ktml" class="animable"></circle><path d="M393.33,274.36a2.5,2.5,0,1,1,3-1.85A2.5,2.5,0,0,1,393.33,274.36Z" style="fill: rgb(254, 196, 62); transform-origin: 393.899px 271.926px;" id="eluup8qdwptb" class="animable"></path><path d="M149.8,216.58a2.5,2.5,0,1,1-3.28,1.32A2.5,2.5,0,0,1,149.8,216.58Z" style="fill: rgb(254, 196, 62); transform-origin: 148.82px 218.88px;" id="eld371ikazl9o" class="animable"></path><path d="M68.65,240.24a2.5,2.5,0,1,1,.54,3.5A2.52,2.52,0,0,1,68.65,240.24Z" style="fill: rgb(254, 196, 62); transform-origin: 70.6681px 241.721px;" id="elfav6cply7a4" class="animable"></path><rect x="51.39" y="259.59" width="4.15" height="12.14" style="fill: rgb(254, 196, 62); transform-origin: 53.465px 265.66px;" id="eln952dzhc7o9" class="animable"></rect><rect x="58.42" y="249.69" width="4.15" height="22.04" style="fill: rgb(254, 196, 62); transform-origin: 60.495px 260.71px;" id="elfivm9c8j8ed" class="animable"></rect><rect x="65.45" y="253.52" width="4.15" height="18.21" style="fill: rgb(254, 196, 62); transform-origin: 67.525px 262.625px;" id="elqqajwhyb8c" class="animable"></rect><rect x="72.48" y="264.06" width="4.15" height="7.67" style="fill: rgb(254, 196, 62); transform-origin: 74.555px 267.895px;" id="elew5ggb2oyhl" class="animable"></rect><path d="M185.07,46.17h-2.81a.7.7,0,1,1,0-1.39h2.81a.7.7,0,1,1,0,1.39Zm.7,2.53a.7.7,0,0,0-.7-.7h-2.81a.7.7,0,1,0,0,1.39h2.81A.69.69,0,0,0,185.77,48.7Zm0,3.22a.7.7,0,0,0-.7-.7h-2.81a.7.7,0,1,0,0,1.39h2.81A.69.69,0,0,0,185.77,51.92Zm0,3.22a.7.7,0,0,0-.7-.7h-2.81a.7.7,0,1,0,0,1.39h2.81A.69.69,0,0,0,185.77,55.14Zm0,3.22a.7.7,0,0,0-.7-.7h-2.81a.7.7,0,1,0,0,1.39h2.81A.69.69,0,0,0,185.77,58.36Zm0,3.22a.69.69,0,0,0-.7-.69h-2.81a.69.69,0,0,0-.7.69.7.7,0,0,0,.7.7h2.81A.7.7,0,0,0,185.77,61.58Zm0,3.22a.69.69,0,0,0-.7-.69h-2.81a.7.7,0,1,0,0,1.39h2.81A.7.7,0,0,0,185.77,64.8Zm0,3.22a.69.69,0,0,0-.7-.69h-2.81a.7.7,0,1,0,0,1.39h2.81A.7.7,0,0,0,185.77,68Zm10.54-22.54a.69.69,0,0,0-.69-.7h-7.4a.7.7,0,1,0,0,1.39h7.4A.69.69,0,0,0,196.31,45.48Zm0,3.22a.69.69,0,0,0-.69-.7h-7.4a.7.7,0,1,0,0,1.39h7.4A.69.69,0,0,0,196.31,48.7Zm0,3.22a.69.69,0,0,0-.69-.7h-7.4a.7.7,0,1,0,0,1.39h7.4A.69.69,0,0,0,196.31,51.92Zm0,3.22a.69.69,0,0,0-.69-.7h-7.4a.7.7,0,1,0,0,1.39h7.4A.69.69,0,0,0,196.31,55.14Zm0,3.22a.69.69,0,0,0-.69-.7h-7.4a.7.7,0,1,0,0,1.39h7.4A.69.69,0,0,0,196.31,58.36Zm8.86,3.22a.69.69,0,0,0-.7-.69h-7.39a.69.69,0,0,0-.7.69.7.7,0,0,0,.7.7h7.39A.7.7,0,0,0,205.17,61.58Zm0,3.22a.69.69,0,0,0-.7-.69h-7.39a.7.7,0,1,0,0,1.39h7.39A.7.7,0,0,0,205.17,64.8Zm0,3.22a.69.69,0,0,0-.7-.69h-7.39a.7.7,0,1,0,0,1.39h7.39A.7.7,0,0,0,205.17,68Zm-5.6-22.54a.81.81,0,1,0-.81.8A.81.81,0,0,0,199.57,45.48Zm2.41,0a.81.81,0,1,0-.8.8A.8.8,0,0,0,202,45.48Zm2.42,0a.81.81,0,1,0-.81.8A.81.81,0,0,0,204.4,45.48Zm2.41,0a.81.81,0,1,0-.8.8A.8.8,0,0,0,206.81,45.48Zm2.42,0a.81.81,0,1,0-.8.8A.8.8,0,0,0,209.23,45.48Zm2.42,0a.81.81,0,1,0-.81.8A.81.81,0,0,0,211.65,45.48Zm-12.08,6.44a.81.81,0,1,0-.81.8A.81.81,0,0,0,199.57,51.92Zm2.41,0a.81.81,0,1,0-.8.8A.8.8,0,0,0,202,51.92Zm2.42,0a.81.81,0,1,0-.81.8A.81.81,0,0,0,204.4,51.92Zm2.41,0a.81.81,0,1,0-.8.8A.8.8,0,0,0,206.81,51.92Zm2.42,0a.81.81,0,1,0-.8.8A.8.8,0,0,0,209.23,51.92Zm2.42,0a.81.81,0,1,0-.81.8A.81.81,0,0,0,211.65,51.92Zm-3.83,9.26a.81.81,0,1,0-.8.8A.8.8,0,0,0,207.82,61.18Zm2.42,0a.81.81,0,1,0-.81.8A.81.81,0,0,0,210.24,61.18Zm2.41,0a.81.81,0,1,0-.8.8A.8.8,0,0,0,212.65,61.18Zm2.42,0a.81.81,0,1,0-.81.8A.81.81,0,0,0,215.07,61.18Zm2.41,0a.81.81,0,1,0-.8.8A.8.8,0,0,0,217.48,61.18Zm2.42,0a.81.81,0,1,0-.81.8A.81.81,0,0,0,219.9,61.18Zm-12.08,6.64a.81.81,0,1,0-.8.81A.8.8,0,0,0,207.82,67.82Zm2.42,0a.81.81,0,1,0-.81.81A.8.8,0,0,0,210.24,67.82Zm2.41,0a.81.81,0,1,0-.8.81A.8.8,0,0,0,212.65,67.82Zm2.42,0a.81.81,0,1,0-.81.81A.8.8,0,0,0,215.07,67.82Zm2.41,0a.81.81,0,1,0-.8.81A.8.8,0,0,0,217.48,67.82Zm2.42,0a.81.81,0,1,0-.81.81A.8.8,0,0,0,219.9,67.82Z" style="fill: rgb(254, 196, 62); transform-origin: 200.688px 56.6925px;" id="elau732zbu62" class="animable"></path><path d="M185.07,71.94h-2.81a.69.69,0,0,1-.7-.69.7.7,0,0,1,.7-.7h2.81a.7.7,0,0,1,.7.7A.69.69,0,0,1,185.07,71.94Zm.7,2.53a.7.7,0,0,0-.7-.7h-2.81a.7.7,0,0,0,0,1.4h2.81A.7.7,0,0,0,185.77,74.47Zm0,3.22a.69.69,0,0,0-.7-.69h-2.81a.69.69,0,0,0-.7.69.7.7,0,0,0,.7.7h2.81A.7.7,0,0,0,185.77,77.69Zm0,3.22a.69.69,0,0,0-.7-.69h-2.81a.7.7,0,1,0,0,1.39h2.81A.7.7,0,0,0,185.77,80.91Zm0,3.22a.69.69,0,0,0-.7-.69h-2.81a.7.7,0,1,0,0,1.39h2.81A.7.7,0,0,0,185.77,84.13Zm0,3.22a.69.69,0,0,0-.7-.69h-2.81a.7.7,0,1,0,0,1.39h2.81A.7.7,0,0,0,185.77,87.35Zm0,3.22a.69.69,0,0,0-.7-.69h-2.81a.7.7,0,1,0,0,1.39h2.81A.7.7,0,0,0,185.77,90.57Zm0,3.23a.7.7,0,0,0-.7-.7h-2.81a.7.7,0,1,0,0,1.39h2.81A.69.69,0,0,0,185.77,93.8Zm10.54-22.55a.7.7,0,0,0-.69-.7h-7.4a.71.71,0,0,0-.7.7.7.7,0,0,0,.7.69h7.4A.69.69,0,0,0,196.31,71.25Zm0,3.22a.7.7,0,0,0-.69-.7h-7.4a.7.7,0,1,0,0,1.4h7.4A.7.7,0,0,0,196.31,74.47Zm0,3.22a.69.69,0,0,0-.69-.69h-7.4a.7.7,0,0,0-.7.69.71.71,0,0,0,.7.7h7.4A.7.7,0,0,0,196.31,77.69Zm0,3.22a.69.69,0,0,0-.69-.69h-7.4a.7.7,0,1,0,0,1.39h7.4A.69.69,0,0,0,196.31,80.91Zm0,3.22a.69.69,0,0,0-.69-.69h-7.4a.7.7,0,1,0,0,1.39h7.4A.69.69,0,0,0,196.31,84.13Zm8.86,3.22a.69.69,0,0,0-.7-.69h-7.39a.7.7,0,1,0,0,1.39h7.39A.7.7,0,0,0,205.17,87.35Zm0,3.22a.69.69,0,0,0-.7-.69h-7.39a.7.7,0,1,0,0,1.39h7.39A.7.7,0,0,0,205.17,90.57Zm0,3.23a.7.7,0,0,0-.7-.7h-7.39a.7.7,0,1,0,0,1.39h7.39A.69.69,0,0,0,205.17,93.8Zm-5.6-22.55a.81.81,0,1,0-.81.8A.81.81,0,0,0,199.57,71.25Zm2.41,0a.81.81,0,1,0-.8.8A.8.8,0,0,0,202,71.25Zm2.42,0a.81.81,0,1,0-.81.8A.81.81,0,0,0,204.4,71.25Zm2.41,0a.81.81,0,1,0-.8.8A.8.8,0,0,0,206.81,71.25Zm2.42,0a.81.81,0,1,0-.8.8A.8.8,0,0,0,209.23,71.25Zm2.42,0a.81.81,0,1,0-.81.8A.81.81,0,0,0,211.65,71.25Zm-12.08,6.44a.81.81,0,1,0-.81.81A.8.8,0,0,0,199.57,77.69Zm2.41,0a.81.81,0,1,0-.8.81A.8.8,0,0,0,202,77.69Zm2.42,0a.81.81,0,1,0-.81.81A.8.8,0,0,0,204.4,77.69Zm2.41,0a.81.81,0,1,0-.8.81A.8.8,0,0,0,206.81,77.69Zm2.42,0a.81.81,0,1,0-.8.81A.8.8,0,0,0,209.23,77.69Zm2.42,0a.81.81,0,1,0-.81.81A.8.8,0,0,0,211.65,77.69ZM207.82,87a.81.81,0,1,0-.8.81A.8.8,0,0,0,207.82,87Zm2.42,0a.81.81,0,1,0-.81.81A.8.8,0,0,0,210.24,87Zm2.41,0a.81.81,0,1,0-.8.81A.8.8,0,0,0,212.65,87Zm2.42,0a.81.81,0,1,0-.81.81A.8.8,0,0,0,215.07,87Zm2.41,0a.81.81,0,1,0-.8.81A.8.8,0,0,0,217.48,87Zm2.42,0a.81.81,0,1,0-.81.81A.8.8,0,0,0,219.9,87Zm-12.08,6.64a.81.81,0,1,0-.8.81A.8.8,0,0,0,207.82,93.59Zm2.42,0a.81.81,0,1,0-.81.81A.8.8,0,0,0,210.24,93.59Zm2.41,0a.81.81,0,1,0-.8.81A.8.8,0,0,0,212.65,93.59Zm2.42,0a.81.81,0,1,0-.81.81A.8.8,0,0,0,215.07,93.59Zm2.41,0a.81.81,0,1,0-.8.81A.8.8,0,0,0,217.48,93.59Zm2.42,0a.81.81,0,1,0-.81.81A.8.8,0,0,0,219.9,93.59Z" style="fill: rgb(254, 196, 62); transform-origin: 200.689px 82.4625px;" id="el0qeq899qx04s" class="animable"></path><path d="M185.07,98.34h-2.81a.7.7,0,1,1,0-1.39h2.81a.7.7,0,1,1,0,1.39Zm.7,2.53a.7.7,0,0,0-.7-.7h-2.81a.7.7,0,1,0,0,1.39h2.81A.69.69,0,0,0,185.77,100.87Zm0,3.22a.7.7,0,0,0-.7-.7h-2.81a.7.7,0,1,0,0,1.39h2.81A.69.69,0,0,0,185.77,104.09Zm0,3.22a.7.7,0,0,0-.7-.7h-2.81a.7.7,0,1,0,0,1.39h2.81A.69.69,0,0,0,185.77,107.31Zm0,3.22a.7.7,0,0,0-.7-.7h-2.81a.7.7,0,1,0,0,1.39h2.81A.69.69,0,0,0,185.77,110.53Zm0,3.22a.7.7,0,0,0-.7-.7h-2.81a.7.7,0,0,0-.7.7.69.69,0,0,0,.7.69h2.81A.69.69,0,0,0,185.77,113.75Zm0,3.22a.69.69,0,0,0-.7-.69h-2.81a.69.69,0,0,0-.7.69.7.7,0,0,0,.7.7h2.81A.7.7,0,0,0,185.77,117Zm0,3.22a.69.69,0,0,0-.7-.69h-2.81a.7.7,0,1,0,0,1.39h2.81A.7.7,0,0,0,185.77,120.19Zm10.54-22.54a.69.69,0,0,0-.69-.7h-7.4a.7.7,0,1,0,0,1.39h7.4A.69.69,0,0,0,196.31,97.65Zm0,3.22a.69.69,0,0,0-.69-.7h-7.4a.7.7,0,1,0,0,1.39h7.4A.69.69,0,0,0,196.31,100.87Zm0,3.22a.69.69,0,0,0-.69-.7h-7.4a.7.7,0,1,0,0,1.39h7.4A.69.69,0,0,0,196.31,104.09Zm0,3.22a.69.69,0,0,0-.69-.7h-7.4a.7.7,0,1,0,0,1.39h7.4A.69.69,0,0,0,196.31,107.31Zm0,3.22a.69.69,0,0,0-.69-.7h-7.4a.7.7,0,1,0,0,1.39h7.4A.69.69,0,0,0,196.31,110.53Zm8.86,3.22a.7.7,0,0,0-.7-.7h-7.39a.7.7,0,0,0-.7.7.69.69,0,0,0,.7.69h7.39A.69.69,0,0,0,205.17,113.75Zm0,3.22a.69.69,0,0,0-.7-.69h-7.39a.69.69,0,0,0-.7.69.7.7,0,0,0,.7.7h7.39A.7.7,0,0,0,205.17,117Zm0,3.22a.69.69,0,0,0-.7-.69h-7.39a.7.7,0,1,0,0,1.39h7.39A.7.7,0,0,0,205.17,120.19Zm-5.6-22.54a.81.81,0,1,0-.81.8A.81.81,0,0,0,199.57,97.65Zm2.41,0a.81.81,0,1,0-.8.8A.8.8,0,0,0,202,97.65Zm2.42,0a.81.81,0,1,0-.81.8A.81.81,0,0,0,204.4,97.65Zm2.41,0a.81.81,0,1,0-.8.8A.8.8,0,0,0,206.81,97.65Zm2.42,0a.81.81,0,1,0-.8.8A.8.8,0,0,0,209.23,97.65Zm2.42,0a.81.81,0,1,0-.81.8A.81.81,0,0,0,211.65,97.65Zm-12.08,6.44a.81.81,0,1,0-.81.8A.81.81,0,0,0,199.57,104.09Zm2.41,0a.81.81,0,1,0-.8.8A.8.8,0,0,0,202,104.09Zm2.42,0a.81.81,0,1,0-.81.8A.81.81,0,0,0,204.4,104.09Zm2.41,0a.81.81,0,1,0-.8.8A.8.8,0,0,0,206.81,104.09Zm2.42,0a.81.81,0,1,0-.8.8A.8.8,0,0,0,209.23,104.09Zm2.42,0a.81.81,0,1,0-.81.8A.81.81,0,0,0,211.65,104.09Zm-3.83,9.26a.81.81,0,1,0-.8.8A.8.8,0,0,0,207.82,113.35Zm2.42,0a.81.81,0,1,0-.81.8A.81.81,0,0,0,210.24,113.35Zm2.41,0a.81.81,0,1,0-.8.8A.8.8,0,0,0,212.65,113.35Zm2.42,0a.81.81,0,1,0-.81.8A.81.81,0,0,0,215.07,113.35Zm2.41,0a.81.81,0,1,0-.8.8A.8.8,0,0,0,217.48,113.35Zm2.42,0a.81.81,0,1,0-.81.8A.81.81,0,0,0,219.9,113.35ZM207.82,120a.81.81,0,1,0-.8.81A.81.81,0,0,0,207.82,120Zm2.42,0a.81.81,0,1,0-.81.81A.81.81,0,0,0,210.24,120Zm2.41,0a.81.81,0,1,0-.8.81A.81.81,0,0,0,212.65,120Zm2.42,0a.81.81,0,1,0-.81.81A.81.81,0,0,0,215.07,120Zm2.41,0a.81.81,0,1,0-.8.81A.81.81,0,0,0,217.48,120Zm2.42,0a.81.81,0,1,0-.81.81A.81.81,0,0,0,219.9,120Z" style="fill: rgb(254, 196, 62); transform-origin: 200.688px 108.863px;" id="eljx111zrcq9p" class="animable"></path><path d="M228.34,46.17h-2.82a.7.7,0,0,1,0-1.39h2.82a.7.7,0,1,1,0,1.39Zm.7,2.53a.7.7,0,0,0-.7-.7h-2.82a.7.7,0,0,0,0,1.39h2.82A.69.69,0,0,0,229,48.7Zm0,3.22a.7.7,0,0,0-.7-.7h-2.82a.7.7,0,0,0,0,1.39h2.82A.69.69,0,0,0,229,51.92Zm0,3.22a.7.7,0,0,0-.7-.7h-2.82a.7.7,0,0,0,0,1.39h2.82A.69.69,0,0,0,229,55.14Zm0,3.22a.7.7,0,0,0-.7-.7h-2.82a.7.7,0,0,0,0,1.39h2.82A.69.69,0,0,0,229,58.36Zm0,3.22a.69.69,0,0,0-.7-.69h-2.82a.69.69,0,0,0-.69.69.7.7,0,0,0,.69.7h2.82A.7.7,0,0,0,229,61.58Zm0,3.22a.69.69,0,0,0-.7-.69h-2.82a.7.7,0,0,0,0,1.39h2.82A.7.7,0,0,0,229,64.8ZM229,68a.69.69,0,0,0-.7-.69h-2.82a.7.7,0,0,0,0,1.39h2.82A.7.7,0,0,0,229,68Zm10.54-22.54a.69.69,0,0,0-.69-.7h-7.4a.7.7,0,1,0,0,1.39h7.4A.69.69,0,0,0,239.58,45.48Zm0,3.22a.69.69,0,0,0-.69-.7h-7.4a.7.7,0,1,0,0,1.39h7.4A.69.69,0,0,0,239.58,48.7Zm0,3.22a.69.69,0,0,0-.69-.7h-7.4a.7.7,0,1,0,0,1.39h7.4A.69.69,0,0,0,239.58,51.92Zm0,3.22a.69.69,0,0,0-.69-.7h-7.4a.7.7,0,1,0,0,1.39h7.4A.69.69,0,0,0,239.58,55.14Zm0,3.22a.69.69,0,0,0-.69-.7h-7.4a.7.7,0,1,0,0,1.39h7.4A.69.69,0,0,0,239.58,58.36Zm8.86,3.22a.69.69,0,0,0-.7-.69h-7.39a.69.69,0,0,0-.7.69.7.7,0,0,0,.7.7h7.39A.7.7,0,0,0,248.44,61.58Zm0,3.22a.69.69,0,0,0-.7-.69h-7.39a.7.7,0,1,0,0,1.39h7.39A.7.7,0,0,0,248.44,64.8Zm0,3.22a.69.69,0,0,0-.7-.69h-7.39a.7.7,0,1,0,0,1.39h7.39A.7.7,0,0,0,248.44,68Zm-5.6-22.54a.81.81,0,1,0-.81.8A.81.81,0,0,0,242.84,45.48Zm2.41,0a.81.81,0,1,0-.8.8A.8.8,0,0,0,245.25,45.48Zm2.42,0a.81.81,0,1,0-.81.8A.81.81,0,0,0,247.67,45.48Zm2.41,0a.81.81,0,1,0-.8.8A.8.8,0,0,0,250.08,45.48Zm2.42,0a.81.81,0,1,0-.81.8A.81.81,0,0,0,252.5,45.48Zm2.42,0a.81.81,0,1,0-.81.8A.81.81,0,0,0,254.92,45.48Zm-12.08,6.44a.81.81,0,1,0-.81.8A.81.81,0,0,0,242.84,51.92Zm2.41,0a.81.81,0,1,0-.8.8A.8.8,0,0,0,245.25,51.92Zm2.42,0a.81.81,0,1,0-.81.8A.81.81,0,0,0,247.67,51.92Zm2.41,0a.81.81,0,1,0-.8.8A.8.8,0,0,0,250.08,51.92Zm2.42,0a.81.81,0,1,0-.81.8A.81.81,0,0,0,252.5,51.92Zm2.42,0a.81.81,0,1,0-.81.8A.81.81,0,0,0,254.92,51.92Zm-3.83,9.26a.81.81,0,1,0-.81.8A.81.81,0,0,0,251.09,61.18Zm2.42,0a.81.81,0,1,0-.81.8A.81.81,0,0,0,253.51,61.18Zm2.41,0a.81.81,0,1,0-.8.8A.8.8,0,0,0,255.92,61.18Zm2.42,0a.81.81,0,1,0-.81.8A.81.81,0,0,0,258.34,61.18Zm2.41,0a.81.81,0,1,0-.8.8A.8.8,0,0,0,260.75,61.18Zm2.42,0a.81.81,0,1,0-.81.8A.81.81,0,0,0,263.17,61.18Zm-12.08,6.64a.81.81,0,1,0-.81.81A.8.8,0,0,0,251.09,67.82Zm2.42,0a.81.81,0,1,0-.81.81A.8.8,0,0,0,253.51,67.82Zm2.41,0a.81.81,0,1,0-.8.81A.8.8,0,0,0,255.92,67.82Zm2.42,0a.81.81,0,1,0-.81.81A.8.8,0,0,0,258.34,67.82Zm2.41,0a.81.81,0,1,0-.8.81A.8.8,0,0,0,260.75,67.82Zm2.42,0a.81.81,0,1,0-.81.81A.8.8,0,0,0,263.17,67.82Z" style="fill: rgb(254, 196, 62); transform-origin: 244px 56.6725px;" id="el56o9efx2feb" class="animable"></path><path d="M228.34,72.57h-2.82a.7.7,0,0,1,0-1.39h2.82a.7.7,0,1,1,0,1.39Zm.7,2.52a.69.69,0,0,0-.7-.69h-2.82a.7.7,0,0,0,0,1.39h2.82A.7.7,0,0,0,229,75.09Zm0,3.22a.69.69,0,0,0-.7-.69h-2.82a.7.7,0,0,0,0,1.39h2.82A.7.7,0,0,0,229,78.31Zm0,3.22a.69.69,0,0,0-.7-.69h-2.82a.7.7,0,0,0,0,1.39h2.82A.7.7,0,0,0,229,81.53Zm0,3.22a.69.69,0,0,0-.7-.69h-2.82a.7.7,0,0,0,0,1.39h2.82A.7.7,0,0,0,229,84.75ZM229,88a.7.7,0,0,0-.7-.7h-2.82a.7.7,0,0,0,0,1.39h2.82A.69.69,0,0,0,229,88Zm0,3.22a.7.7,0,0,0-.7-.7h-2.82a.7.7,0,0,0,0,1.39h2.82A.69.69,0,0,0,229,91.2Zm0,3.22a.7.7,0,0,0-.7-.7h-2.82a.7.7,0,0,0,0,1.39h2.82A.69.69,0,0,0,229,94.42Zm10.54-22.55a.69.69,0,0,0-.69-.69h-7.4a.7.7,0,1,0,0,1.39h7.4A.69.69,0,0,0,239.58,71.87Zm0,3.22a.69.69,0,0,0-.69-.69h-7.4a.7.7,0,1,0,0,1.39h7.4A.69.69,0,0,0,239.58,75.09Zm0,3.22a.69.69,0,0,0-.69-.69h-7.4a.7.7,0,1,0,0,1.39h7.4A.69.69,0,0,0,239.58,78.31Zm0,3.22a.69.69,0,0,0-.69-.69h-7.4a.7.7,0,1,0,0,1.39h7.4A.69.69,0,0,0,239.58,81.53Zm0,3.22a.69.69,0,0,0-.69-.69h-7.4a.7.7,0,1,0,0,1.39h7.4A.69.69,0,0,0,239.58,84.75ZM248.44,88a.7.7,0,0,0-.7-.7h-7.39a.7.7,0,1,0,0,1.39h7.39A.69.69,0,0,0,248.44,88Zm0,3.22a.7.7,0,0,0-.7-.7h-7.39a.7.7,0,1,0,0,1.39h7.39A.69.69,0,0,0,248.44,91.2Zm0,3.22a.7.7,0,0,0-.7-.7h-7.39a.7.7,0,1,0,0,1.39h7.39A.69.69,0,0,0,248.44,94.42Zm-5.6-22.55a.81.81,0,1,0-.81.81A.8.8,0,0,0,242.84,71.87Zm2.41,0a.81.81,0,1,0-.8.81A.8.8,0,0,0,245.25,71.87Zm2.42,0a.81.81,0,1,0-.81.81A.8.8,0,0,0,247.67,71.87Zm2.41,0a.81.81,0,1,0-.8.81A.8.8,0,0,0,250.08,71.87Zm2.42,0a.81.81,0,1,0-.81.81A.8.8,0,0,0,252.5,71.87Zm2.42,0a.81.81,0,1,0-.81.81A.81.81,0,0,0,254.92,71.87Zm-12.08,6.44a.81.81,0,1,0-.81.81A.8.8,0,0,0,242.84,78.31Zm2.41,0a.81.81,0,1,0-.8.81A.8.8,0,0,0,245.25,78.31Zm2.42,0a.81.81,0,1,0-.81.81A.8.8,0,0,0,247.67,78.31Zm2.41,0a.81.81,0,1,0-.8.81A.8.8,0,0,0,250.08,78.31Zm2.42,0a.81.81,0,1,0-.81.81A.8.8,0,0,0,252.5,78.31Zm2.42,0a.81.81,0,1,0-.81.81A.81.81,0,0,0,254.92,78.31Zm-3.83,9.26a.81.81,0,1,0-.81.81A.8.8,0,0,0,251.09,87.57Zm2.42,0a.81.81,0,1,0-.81.81A.8.8,0,0,0,253.51,87.57Zm2.41,0a.81.81,0,1,0-.8.81A.8.8,0,0,0,255.92,87.57Zm2.42,0a.81.81,0,1,0-.81.81A.8.8,0,0,0,258.34,87.57Zm2.41,0a.81.81,0,1,0-.8.81A.8.8,0,0,0,260.75,87.57Zm2.42,0a.81.81,0,1,0-.81.81A.8.8,0,0,0,263.17,87.57Zm-12.08,6.65a.81.81,0,1,0-.81.8A.81.81,0,0,0,251.09,94.22Zm2.42,0a.81.81,0,1,0-.81.8A.81.81,0,0,0,253.51,94.22Zm2.41,0a.81.81,0,1,0-.8.8A.8.8,0,0,0,255.92,94.22Zm2.42,0a.81.81,0,1,0-.81.8A.81.81,0,0,0,258.34,94.22Zm2.41,0a.81.81,0,1,0-.8.8A.8.8,0,0,0,260.75,94.22Zm2.42,0a.81.81,0,1,0-.81.8A.81.81,0,0,0,263.17,94.22Z" style="fill: rgb(254, 196, 62); transform-origin: 244.017px 83.1075px;" id="el9p7r1kdnzdn" class="animable"></path><path d="M384.4,127.68h-2.82a.7.7,0,0,1,0-1.39h2.82a.7.7,0,1,1,0,1.39Zm.7,2.52a.69.69,0,0,0-.7-.69h-2.82a.7.7,0,0,0,0,1.39h2.82A.7.7,0,0,0,385.1,130.2Zm0,3.23a.7.7,0,0,0-.7-.7h-2.82a.7.7,0,0,0,0,1.39h2.82A.69.69,0,0,0,385.1,133.43Zm0,3.22a.7.7,0,0,0-.7-.7h-2.82a.7.7,0,0,0,0,1.39h2.82A.69.69,0,0,0,385.1,136.65Zm0,3.22a.7.7,0,0,0-.7-.7h-2.82a.7.7,0,0,0,0,1.39h2.82A.69.69,0,0,0,385.1,139.87Zm0,3.22a.7.7,0,0,0-.7-.7h-2.82a.7.7,0,0,0,0,1.39h2.82A.69.69,0,0,0,385.1,143.09Zm0,3.22a.7.7,0,0,0-.7-.7h-2.82a.7.7,0,0,0,0,1.39h2.82A.69.69,0,0,0,385.1,146.31Zm0,3.22a.7.7,0,0,0-.7-.7h-2.82a.7.7,0,0,0-.69.7.69.69,0,0,0,.69.69h2.82A.69.69,0,0,0,385.1,149.53ZM395.64,127a.69.69,0,0,0-.69-.69h-7.4a.7.7,0,1,0,0,1.39H395A.69.69,0,0,0,395.64,127Zm0,3.22a.69.69,0,0,0-.69-.69h-7.4a.7.7,0,1,0,0,1.39H395A.69.69,0,0,0,395.64,130.2Zm0,3.23a.69.69,0,0,0-.69-.7h-7.4a.7.7,0,1,0,0,1.39H395A.69.69,0,0,0,395.64,133.43Zm0,3.22a.69.69,0,0,0-.69-.7h-7.4a.7.7,0,1,0,0,1.39H395A.69.69,0,0,0,395.64,136.65Zm0,3.22a.69.69,0,0,0-.69-.7h-7.4a.7.7,0,1,0,0,1.39H395A.69.69,0,0,0,395.64,139.87Zm8.86,3.22a.7.7,0,0,0-.7-.7h-7.39a.7.7,0,1,0,0,1.39h7.39A.69.69,0,0,0,404.5,143.09Zm0,3.22a.7.7,0,0,0-.7-.7h-7.39a.7.7,0,1,0,0,1.39h7.39A.69.69,0,0,0,404.5,146.31Zm0,3.22a.7.7,0,0,0-.7-.7h-7.39a.7.7,0,0,0-.7.7.69.69,0,0,0,.7.69h7.39A.69.69,0,0,0,404.5,149.53ZM398.9,127a.81.81,0,1,0-.81.81A.8.8,0,0,0,398.9,127Zm2.41,0a.81.81,0,1,0-.8.81A.8.8,0,0,0,401.31,127Zm2.42,0a.81.81,0,1,0-.81.81A.8.8,0,0,0,403.73,127Zm2.41,0a.81.81,0,1,0-.8.81A.8.8,0,0,0,406.14,127Zm2.42,0a.81.81,0,1,0-.81.81A.8.8,0,0,0,408.56,127Zm2.42,0a.81.81,0,1,0-.81.81A.81.81,0,0,0,411,127Zm-12.08,6.45a.81.81,0,1,0-.81.8A.81.81,0,0,0,398.9,133.43Zm2.41,0a.81.81,0,1,0-.8.8A.8.8,0,0,0,401.31,133.43Zm2.42,0a.81.81,0,1,0-.81.8A.81.81,0,0,0,403.73,133.43Zm2.41,0a.81.81,0,1,0-.8.8A.8.8,0,0,0,406.14,133.43Zm2.42,0a.81.81,0,1,0-.81.8A.81.81,0,0,0,408.56,133.43Zm2.42,0a.81.81,0,1,0-.81.8A.81.81,0,0,0,411,133.43Zm-3.83,9.26a.81.81,0,1,0-.81.8A.81.81,0,0,0,407.15,142.69Zm2.42,0a.81.81,0,1,0-.81.8A.81.81,0,0,0,409.57,142.69Zm2.41,0a.81.81,0,1,0-.8.8A.8.8,0,0,0,412,142.69Zm2.42,0a.81.81,0,1,0-.81.8A.81.81,0,0,0,414.4,142.69Zm2.41,0a.81.81,0,1,0-.8.8A.8.8,0,0,0,416.81,142.69Zm2.42,0a.81.81,0,1,0-.81.8A.81.81,0,0,0,419.23,142.69Zm-12.08,6.64a.81.81,0,1,0-.81.8A.81.81,0,0,0,407.15,149.33Zm2.42,0a.81.81,0,1,0-.81.8A.81.81,0,0,0,409.57,149.33Zm2.41,0a.81.81,0,1,0-.8.8A.8.8,0,0,0,412,149.33Zm2.42,0a.81.81,0,1,0-.81.8A.81.81,0,0,0,414.4,149.33Zm2.41,0a.81.81,0,1,0-.8.8A.8.8,0,0,0,416.81,149.33Zm2.42,0a.81.81,0,1,0-.81.8A.81.81,0,0,0,419.23,149.33Z" style="fill: rgb(254, 196, 62); transform-origin: 400.06px 138.215px;" id="elrhojruu06tn" class="animable"></path><path d="M384.4,153.45h-2.82a.7.7,0,0,1,0-1.39h2.82a.7.7,0,1,1,0,1.39Zm.7,2.53a.7.7,0,0,0-.7-.7h-2.82a.7.7,0,0,0,0,1.39h2.82A.69.69,0,0,0,385.1,156Zm0,3.22a.7.7,0,0,0-.7-.7h-2.82a.7.7,0,0,0,0,1.39h2.82A.69.69,0,0,0,385.1,159.2Zm0,3.22a.7.7,0,0,0-.7-.7h-2.82a.7.7,0,0,0-.69.7.69.69,0,0,0,.69.69h2.82A.69.69,0,0,0,385.1,162.42Zm0,3.22a.69.69,0,0,0-.7-.69h-2.82a.69.69,0,0,0-.69.69.7.7,0,0,0,.69.7h2.82A.7.7,0,0,0,385.1,165.64Zm0,3.22a.69.69,0,0,0-.7-.69h-2.82a.7.7,0,0,0,0,1.39h2.82A.7.7,0,0,0,385.1,168.86Zm0,3.22a.69.69,0,0,0-.7-.69h-2.82a.7.7,0,0,0,0,1.39h2.82A.7.7,0,0,0,385.1,172.08Zm0,3.22a.69.69,0,0,0-.7-.69h-2.82a.7.7,0,0,0,0,1.39h2.82A.7.7,0,0,0,385.1,175.3Zm10.54-22.54a.69.69,0,0,0-.69-.7h-7.4a.7.7,0,1,0,0,1.39H395A.69.69,0,0,0,395.64,152.76Zm0,3.22a.69.69,0,0,0-.69-.7h-7.4a.7.7,0,1,0,0,1.39H395A.69.69,0,0,0,395.64,156Zm0,3.22a.69.69,0,0,0-.69-.7h-7.4a.7.7,0,1,0,0,1.39H395A.69.69,0,0,0,395.64,159.2Zm0,3.22a.7.7,0,0,0-.69-.7h-7.4a.7.7,0,0,0-.7.7.69.69,0,0,0,.7.69H395A.69.69,0,0,0,395.64,162.42Zm0,3.22A.69.69,0,0,0,395,165h-7.4a.69.69,0,0,0-.7.69.7.7,0,0,0,.7.7H395A.7.7,0,0,0,395.64,165.64Zm8.86,3.22a.69.69,0,0,0-.7-.69h-7.39a.7.7,0,1,0,0,1.39h7.39A.7.7,0,0,0,404.5,168.86Zm0,3.22a.69.69,0,0,0-.7-.69h-7.39a.7.7,0,1,0,0,1.39h7.39A.7.7,0,0,0,404.5,172.08Zm0,3.22a.69.69,0,0,0-.7-.69h-7.39a.7.7,0,1,0,0,1.39h7.39A.7.7,0,0,0,404.5,175.3Zm-5.6-22.54a.81.81,0,1,0-.81.8A.81.81,0,0,0,398.9,152.76Zm2.41,0a.81.81,0,1,0-.8.8A.8.8,0,0,0,401.31,152.76Zm2.42,0a.81.81,0,1,0-.81.8A.81.81,0,0,0,403.73,152.76Zm2.41,0a.81.81,0,1,0-.8.8A.8.8,0,0,0,406.14,152.76Zm2.42,0a.81.81,0,1,0-.81.8A.81.81,0,0,0,408.56,152.76Zm2.42,0a.81.81,0,1,0-.81.8A.81.81,0,0,0,411,152.76ZM398.9,159.2a.81.81,0,1,0-.81.8A.81.81,0,0,0,398.9,159.2Zm2.41,0a.81.81,0,1,0-.8.8A.8.8,0,0,0,401.31,159.2Zm2.42,0a.81.81,0,1,0-.81.8A.81.81,0,0,0,403.73,159.2Zm2.41,0a.81.81,0,1,0-.8.8A.8.8,0,0,0,406.14,159.2Zm2.42,0a.81.81,0,1,0-.81.8A.81.81,0,0,0,408.56,159.2Zm2.42,0a.81.81,0,1,0-.81.8A.81.81,0,0,0,411,159.2Zm-3.83,9.26a.81.81,0,1,0-.81.8A.81.81,0,0,0,407.15,168.46Zm2.42,0a.81.81,0,1,0-.81.8A.81.81,0,0,0,409.57,168.46Zm2.41,0a.81.81,0,1,0-.8.8A.8.8,0,0,0,412,168.46Zm2.42,0a.81.81,0,1,0-.81.8A.81.81,0,0,0,414.4,168.46Zm2.41,0a.81.81,0,1,0-.8.8A.8.8,0,0,0,416.81,168.46Zm2.42,0a.81.81,0,1,0-.81.8A.81.81,0,0,0,419.23,168.46Zm-12.08,6.64a.81.81,0,1,0-.81.81A.8.8,0,0,0,407.15,175.1Zm2.42,0a.81.81,0,1,0-.81.81A.8.8,0,0,0,409.57,175.1Zm2.41,0a.81.81,0,1,0-.8.81A.8.8,0,0,0,412,175.1Zm2.42,0a.81.81,0,1,0-.81.81A.8.8,0,0,0,414.4,175.1Zm2.41,0a.81.81,0,1,0-.8.81A.8.8,0,0,0,416.81,175.1Zm2.42,0a.81.81,0,1,0-.81.81A.8.8,0,0,0,419.23,175.1Z" style="fill: rgb(254, 196, 62); transform-origin: 400.06px 163.973px;" id="elrg6qij9nzif" class="animable"></path><path d="M384.4,179.85h-2.82a.7.7,0,0,1,0-1.39h2.82a.7.7,0,1,1,0,1.39Zm.7,2.52a.69.69,0,0,0-.7-.69h-2.82a.7.7,0,0,0,0,1.39h2.82A.7.7,0,0,0,385.1,182.37Zm0,3.22a.69.69,0,0,0-.7-.69h-2.82a.7.7,0,0,0,0,1.39h2.82A.7.7,0,0,0,385.1,185.59Zm0,3.23a.7.7,0,0,0-.7-.7h-2.82a.7.7,0,0,0,0,1.39h2.82A.69.69,0,0,0,385.1,188.82Zm0,3.22a.7.7,0,0,0-.7-.7h-2.82a.7.7,0,0,0,0,1.39h2.82A.69.69,0,0,0,385.1,192Zm0,3.22a.7.7,0,0,0-.7-.7h-2.82a.7.7,0,0,0,0,1.39h2.82A.69.69,0,0,0,385.1,195.26Zm0,3.22a.7.7,0,0,0-.7-.7h-2.82a.7.7,0,0,0,0,1.39h2.82A.69.69,0,0,0,385.1,198.48Zm0,3.22a.7.7,0,0,0-.7-.7h-2.82a.7.7,0,0,0,0,1.39h2.82A.69.69,0,0,0,385.1,201.7Zm10.54-22.55a.69.69,0,0,0-.69-.69h-7.4a.7.7,0,1,0,0,1.39H395A.69.69,0,0,0,395.64,179.15Zm0,3.22a.69.69,0,0,0-.69-.69h-7.4a.7.7,0,1,0,0,1.39H395A.69.69,0,0,0,395.64,182.37Zm0,3.22a.69.69,0,0,0-.69-.69h-7.4a.7.7,0,1,0,0,1.39H395A.69.69,0,0,0,395.64,185.59Zm0,3.23a.69.69,0,0,0-.69-.7h-7.4a.7.7,0,1,0,0,1.39H395A.69.69,0,0,0,395.64,188.82Zm0,3.22a.69.69,0,0,0-.69-.7h-7.4a.7.7,0,1,0,0,1.39H395A.69.69,0,0,0,395.64,192Zm8.86,3.22a.7.7,0,0,0-.7-.7h-7.39a.7.7,0,1,0,0,1.39h7.39A.69.69,0,0,0,404.5,195.26Zm0,3.22a.7.7,0,0,0-.7-.7h-7.39a.7.7,0,1,0,0,1.39h7.39A.69.69,0,0,0,404.5,198.48Zm0,3.22a.7.7,0,0,0-.7-.7h-7.39a.7.7,0,1,0,0,1.39h7.39A.69.69,0,0,0,404.5,201.7Zm-5.6-22.55a.81.81,0,1,0-.81.81A.8.8,0,0,0,398.9,179.15Zm2.41,0a.81.81,0,1,0-.8.81A.8.8,0,0,0,401.31,179.15Zm2.42,0a.81.81,0,1,0-.81.81A.8.8,0,0,0,403.73,179.15Zm2.41,0a.81.81,0,1,0-.8.81A.8.8,0,0,0,406.14,179.15Zm2.42,0a.81.81,0,1,0-.81.81A.8.8,0,0,0,408.56,179.15Zm2.42,0a.81.81,0,1,0-.81.81A.81.81,0,0,0,411,179.15Zm-12.08,6.44a.81.81,0,1,0-.81.81A.8.8,0,0,0,398.9,185.59Zm2.41,0a.81.81,0,1,0-.8.81A.8.8,0,0,0,401.31,185.59Zm2.42,0a.81.81,0,1,0-.81.81A.8.8,0,0,0,403.73,185.59Zm2.41,0a.81.81,0,1,0-.8.81A.8.8,0,0,0,406.14,185.59Zm2.42,0a.81.81,0,1,0-.81.81A.8.8,0,0,0,408.56,185.59Zm2.42,0a.81.81,0,1,0-.81.81A.81.81,0,0,0,411,185.59Zm-3.83,9.26a.81.81,0,1,0-.81.81A.8.8,0,0,0,407.15,194.85Zm2.42,0a.81.81,0,1,0-.81.81A.8.8,0,0,0,409.57,194.85Zm2.41,0a.81.81,0,1,0-.8.81A.8.8,0,0,0,412,194.85Zm2.42,0a.81.81,0,1,0-.81.81A.8.8,0,0,0,414.4,194.85Zm2.41,0a.81.81,0,1,0-.8.81A.8.8,0,0,0,416.81,194.85Zm2.42,0a.81.81,0,1,0-.81.81A.8.8,0,0,0,419.23,194.85Zm-12.08,6.65a.81.81,0,1,0-.81.8A.81.81,0,0,0,407.15,201.5Zm2.42,0a.81.81,0,1,0-.81.8A.81.81,0,0,0,409.57,201.5Zm2.41,0a.81.81,0,1,0-.8.8A.8.8,0,0,0,412,201.5Zm2.42,0a.81.81,0,1,0-.81.8A.81.81,0,0,0,414.4,201.5Zm2.41,0a.81.81,0,1,0-.8.8A.8.8,0,0,0,416.81,201.5Zm2.42,0a.81.81,0,1,0-.81.8A.81.81,0,0,0,419.23,201.5Z" style="fill: rgb(254, 196, 62); transform-origin: 400.097px 190.368px;" id="el3yt9rxyqgt5" class="animable"></path><path d="M427.67,127.68h-2.82a.7.7,0,0,1,0-1.39h2.82a.7.7,0,1,1,0,1.39Zm.7,2.52a.69.69,0,0,0-.7-.69h-2.82a.7.7,0,0,0,0,1.39h2.82A.7.7,0,0,0,428.37,130.2Zm0,3.23a.7.7,0,0,0-.7-.7h-2.82a.7.7,0,0,0,0,1.39h2.82A.69.69,0,0,0,428.37,133.43Zm0,3.22a.7.7,0,0,0-.7-.7h-2.82a.7.7,0,0,0,0,1.39h2.82A.69.69,0,0,0,428.37,136.65Zm0,3.22a.7.7,0,0,0-.7-.7h-2.82a.7.7,0,0,0,0,1.39h2.82A.69.69,0,0,0,428.37,139.87Zm0,3.22a.7.7,0,0,0-.7-.7h-2.82a.7.7,0,0,0,0,1.39h2.82A.69.69,0,0,0,428.37,143.09Zm0,3.22a.7.7,0,0,0-.7-.7h-2.82a.7.7,0,0,0,0,1.39h2.82A.69.69,0,0,0,428.37,146.31Zm0,3.22a.7.7,0,0,0-.7-.7h-2.82a.7.7,0,0,0-.69.7.69.69,0,0,0,.69.69h2.82A.69.69,0,0,0,428.37,149.53ZM438.91,127a.69.69,0,0,0-.7-.69h-7.39a.7.7,0,1,0,0,1.39h7.39A.7.7,0,0,0,438.91,127Zm0,3.22a.69.69,0,0,0-.7-.69h-7.39a.7.7,0,1,0,0,1.39h7.39A.7.7,0,0,0,438.91,130.2Zm0,3.23a.7.7,0,0,0-.7-.7h-7.39a.7.7,0,1,0,0,1.39h7.39A.69.69,0,0,0,438.91,133.43Zm0,3.22a.7.7,0,0,0-.7-.7h-7.39a.7.7,0,1,0,0,1.39h7.39A.69.69,0,0,0,438.91,136.65Zm0,3.22a.7.7,0,0,0-.7-.7h-7.39a.7.7,0,1,0,0,1.39h7.39A.69.69,0,0,0,438.91,139.87Zm8.86,3.22a.7.7,0,0,0-.7-.7h-7.4a.7.7,0,0,0,0,1.39h7.4A.69.69,0,0,0,447.77,143.09Zm0,3.22a.7.7,0,0,0-.7-.7h-7.4a.7.7,0,0,0,0,1.39h7.4A.69.69,0,0,0,447.77,146.31Zm0,3.22a.7.7,0,0,0-.7-.7h-7.4a.7.7,0,0,0-.69.7.69.69,0,0,0,.69.69h7.4A.69.69,0,0,0,447.77,149.53ZM442.17,127a.81.81,0,0,0-.81-.8.81.81,0,0,0,0,1.61A.81.81,0,0,0,442.17,127Zm2.41,0a.81.81,0,1,0-.8.81A.8.8,0,0,0,444.58,127Zm2.42,0a.81.81,0,1,0-.81.81A.8.8,0,0,0,447,127Zm2.41,0a.81.81,0,1,0-.8.81A.8.8,0,0,0,449.41,127Zm2.42,0a.81.81,0,1,0-.81.81A.8.8,0,0,0,451.83,127Zm2.41,0a.81.81,0,1,0-.8.81A.8.8,0,0,0,454.24,127Zm-12.07,6.45a.81.81,0,0,0-.81-.81.81.81,0,1,0,.81.81Zm2.41,0a.81.81,0,1,0-.8.8A.8.8,0,0,0,444.58,133.43Zm2.42,0a.81.81,0,1,0-.81.8A.81.81,0,0,0,447,133.43Zm2.41,0a.81.81,0,1,0-.8.8A.8.8,0,0,0,449.41,133.43Zm2.42,0a.81.81,0,1,0-.81.8A.81.81,0,0,0,451.83,133.43Zm2.41,0a.81.81,0,1,0-.8.8A.8.8,0,0,0,454.24,133.43Zm-3.82,9.26a.81.81,0,1,0-.81.8A.81.81,0,0,0,450.42,142.69Zm2.41,0a.81.81,0,1,0-.8.8A.8.8,0,0,0,452.83,142.69Zm2.42,0a.81.81,0,1,0-.8.8A.8.8,0,0,0,455.25,142.69Zm2.42,0a.81.81,0,1,0-.81.8A.81.81,0,0,0,457.67,142.69Zm2.41,0a.81.81,0,1,0-.8.8A.8.8,0,0,0,460.08,142.69Zm2.42,0a.81.81,0,1,0-.81.8A.81.81,0,0,0,462.5,142.69Zm-12.08,6.64a.81.81,0,1,0-.81.8A.81.81,0,0,0,450.42,149.33Zm2.41,0a.81.81,0,1,0-.8.8A.8.8,0,0,0,452.83,149.33Zm2.42,0a.81.81,0,1,0-.8.8A.8.8,0,0,0,455.25,149.33Zm2.42,0a.81.81,0,1,0-.81.8A.81.81,0,0,0,457.67,149.33Zm2.41,0a.81.81,0,1,0-.8.8A.8.8,0,0,0,460.08,149.33Zm2.42,0a.81.81,0,1,0-.81.8A.81.81,0,0,0,462.5,149.33Z" style="fill: rgb(254, 196, 62); transform-origin: 443.33px 138.215px;" id="elrs5rkzyb92f" class="animable"></path><path d="M427.67,154.07h-2.82a.69.69,0,0,1-.69-.69.7.7,0,0,1,.69-.7h2.82a.7.7,0,0,1,.7.7A.69.69,0,0,1,427.67,154.07Zm.7,2.53a.69.69,0,0,0-.7-.69h-2.82a.69.69,0,0,0-.69.69.7.7,0,0,0,.69.7h2.82A.7.7,0,0,0,428.37,156.6Zm0,3.22a.69.69,0,0,0-.7-.69h-2.82a.7.7,0,0,0,0,1.39h2.82A.7.7,0,0,0,428.37,159.82Zm0,3.22a.69.69,0,0,0-.7-.69h-2.82a.7.7,0,0,0,0,1.39h2.82A.7.7,0,0,0,428.37,163Zm0,3.22a.69.69,0,0,0-.7-.69h-2.82a.7.7,0,0,0,0,1.39h2.82A.7.7,0,0,0,428.37,166.26Zm0,3.22a.69.69,0,0,0-.7-.69h-2.82a.7.7,0,0,0,0,1.39h2.82A.7.7,0,0,0,428.37,169.48Zm0,3.22a.69.69,0,0,0-.7-.69h-2.82a.7.7,0,0,0,0,1.39h2.82A.7.7,0,0,0,428.37,172.7Zm0,3.23a.7.7,0,0,0-.7-.7h-2.82a.7.7,0,0,0,0,1.39h2.82A.69.69,0,0,0,428.37,175.93Zm10.54-22.55a.7.7,0,0,0-.7-.7h-7.39a.7.7,0,0,0-.7.7.69.69,0,0,0,.7.69h7.39A.69.69,0,0,0,438.91,153.38Zm0,3.22a.69.69,0,0,0-.7-.69h-7.39a.69.69,0,0,0-.7.69.7.7,0,0,0,.7.7h7.39A.7.7,0,0,0,438.91,156.6Zm0,3.22a.69.69,0,0,0-.7-.69h-7.39a.7.7,0,1,0,0,1.39h7.39A.7.7,0,0,0,438.91,159.82Zm0,3.22a.69.69,0,0,0-.7-.69h-7.39a.7.7,0,1,0,0,1.39h7.39A.7.7,0,0,0,438.91,163Zm0,3.22a.69.69,0,0,0-.7-.69h-7.39a.7.7,0,1,0,0,1.39h7.39A.7.7,0,0,0,438.91,166.26Zm8.86,3.22a.69.69,0,0,0-.7-.69h-7.4a.7.7,0,0,0,0,1.39h7.4A.7.7,0,0,0,447.77,169.48Zm0,3.22a.69.69,0,0,0-.7-.69h-7.4a.7.7,0,0,0,0,1.39h7.4A.7.7,0,0,0,447.77,172.7Zm0,3.23a.7.7,0,0,0-.7-.7h-7.4a.7.7,0,0,0,0,1.39h7.4A.69.69,0,0,0,447.77,175.93Zm-5.6-22.55a.81.81,0,0,0-.81-.81.81.81,0,1,0,.81.81Zm2.41,0a.81.81,0,1,0-.8.8A.8.8,0,0,0,444.58,153.38Zm2.42,0a.81.81,0,1,0-.81.8A.81.81,0,0,0,447,153.38Zm2.41,0a.81.81,0,1,0-.8.8A.8.8,0,0,0,449.41,153.38Zm2.42,0a.81.81,0,1,0-.81.8A.81.81,0,0,0,451.83,153.38Zm2.41,0a.81.81,0,1,0-.8.8A.8.8,0,0,0,454.24,153.38Zm-12.07,6.44a.81.81,0,0,0-.81-.8.81.81,0,0,0,0,1.61A.81.81,0,0,0,442.17,159.82Zm2.41,0a.81.81,0,1,0-.8.81A.8.8,0,0,0,444.58,159.82Zm2.42,0a.81.81,0,1,0-.81.81A.8.8,0,0,0,447,159.82Zm2.41,0a.81.81,0,1,0-.8.81A.8.8,0,0,0,449.41,159.82Zm2.42,0a.81.81,0,1,0-.81.81A.8.8,0,0,0,451.83,159.82Zm2.41,0a.81.81,0,1,0-.8.81A.8.8,0,0,0,454.24,159.82Zm-3.82,9.26a.81.81,0,1,0-.81.81A.8.8,0,0,0,450.42,169.08Zm2.41,0a.81.81,0,1,0-.8.81A.8.8,0,0,0,452.83,169.08Zm2.42,0a.81.81,0,1,0-.8.81A.8.8,0,0,0,455.25,169.08Zm2.42,0a.81.81,0,1,0-.81.81A.8.8,0,0,0,457.67,169.08Zm2.41,0a.81.81,0,1,0-.8.81A.8.8,0,0,0,460.08,169.08Zm2.42,0a.81.81,0,1,0-.81.81A.8.8,0,0,0,462.5,169.08Zm-12.08,6.64a.81.81,0,1,0-.81.81A.8.8,0,0,0,450.42,175.72Zm2.41,0a.81.81,0,1,0-.8.81A.8.8,0,0,0,452.83,175.72Zm2.42,0a.81.81,0,1,0-.8.81A.8.8,0,0,0,455.25,175.72Zm2.42,0a.81.81,0,1,0-.81.81A.8.8,0,0,0,457.67,175.72Zm2.41,0a.81.81,0,1,0-.8.81A.8.8,0,0,0,460.08,175.72Zm2.42,0a.81.81,0,1,0-.81.81A.8.8,0,0,0,462.5,175.72Z" style="fill: rgb(254, 196, 62); transform-origin: 443.33px 164.59px;" id="el2dtf75pq1b9" class="animable"></path><rect x="347.39" y="226.85" width="26.16" height="21.51" style="fill: rgb(255, 255, 255); stroke: rgb(143, 143, 143); stroke-miterlimit: 10; transform-origin: 360.47px 237.605px;" id="elpb0oqqfwgmp" class="animable"></rect><polyline points="347.68 238.47 357.56 232.08 363.37 239.93 368.31 237.31 372.96 242.83" style="fill: none; stroke: rgb(143, 143, 143); stroke-miterlimit: 10; transform-origin: 360.32px 237.455px;" id="elorz1mytq08c" class="animable"></polyline><path d="M370.35,232.08a3.2,3.2,0,1,1-3.2-3.2A3.2,3.2,0,0,1,370.35,232.08Z" style="fill: none; stroke: rgb(143, 143, 143); stroke-miterlimit: 10; transform-origin: 367.15px 232.08px;" id="el18w285m0swn" class="animable"></path><line x1="125.88" y1="373.42" x2="156.61" y2="373.42" style="fill: none; stroke: rgb(143, 143, 143); stroke-miterlimit: 10; transform-origin: 141.245px 373.42px;" id="elp39wy97nr0s" class="animable"></line><rect x="127.93" y="360.97" width="4.44" height="12.14" style="fill: rgb(254, 196, 62); transform-origin: 130.15px 367.04px;" id="eljf6c8rp6i88" class="animable"></rect><rect x="135.44" y="351.06" width="4.44" height="22.04" style="fill: rgb(254, 196, 62); transform-origin: 137.66px 362.08px;" id="elwgqzrob6bd7" class="animable"></rect><rect x="142.95" y="354.9" width="4.44" height="18.21" style="fill: rgb(254, 196, 62); transform-origin: 145.17px 364.005px;" id="eljrgaix920uc" class="animable"></rect><rect x="150.46" y="365.44" width="4.44" height="7.67" style="fill: rgb(254, 196, 62); transform-origin: 152.68px 369.275px;" id="el01ypcqk3liyu" class="animable"></rect><circle cx="140.54" cy="364.08" r="20.67" style="fill: none; stroke: rgb(143, 143, 143); stroke-miterlimit: 10; transform-origin: 140.54px 364.08px;" id="elw713vavsmh" class="animable"></circle></g><g id="freepik--Floor--inject-15" class="animable" style="transform-origin: 252.915px 477.27px;"><line x1="29" y1="477.27" x2="476.83" y2="477.27" style="fill: none; stroke: rgb(38, 50, 56); stroke-linecap: round; stroke-linejoin: round; transform-origin: 252.915px 477.27px;" id="elcm9rrox103e" class="animable"></line></g><defs>     <filter id="active" height="200%">         <feMorphology in="SourceAlpha" result="DILATED" operator="dilate" radius="2"></feMorphology>                <feFlood flood-color="#32DFEC" flood-opacity="1" result="PINK"></feFlood>        <feComposite in="PINK" in2="DILATED" operator="in" result="OUTLINE"></feComposite>        <feMerge>            <feMergeNode in="OUTLINE"></feMergeNode>            <feMergeNode in="SourceGraphic"></feMergeNode>        </feMerge>    </filter>    <filter id="hover" height="200%">        <feMorphology in="SourceAlpha" result="DILATED" operator="dilate" radius="2"></feMorphology>                <feFlood flood-color="#ff0000" flood-opacity="0.5" result="PINK"></feFlood>        <feComposite in="PINK" in2="DILATED" operator="in" result="OUTLINE"></feComposite>        <feMerge>            <feMergeNode in="OUTLINE"></feMergeNode>            <feMergeNode in="SourceGraphic"></feMergeNode>        </feMerge>            <feColorMatrix type="matrix" values="0   0   0   0   0                0   1   0   0   0                0   0   0   0   0                0   0   0   1   0 "></feColorMatrix>    </filter></defs></svg>