<svg xmlns="http://www.w3.org/2000/svg" width="7.19in" height="4.48in" viewBox="0 0 517.54 322.52"><title>Evernote_Lockup_Secondary_RGB</title><rect x="0.81" y="1.46" width="517.42" height="321.1" style="fill:none"/><path d="M52.08,268.49l3.4-.69c3-.8,3.8-1.2,3.8-7.2V213.52c0-6-.9-6.49-3.8-7.19l-3.4-.7v-2.8h54.17l1,19.89h-3.1a69,69,0,0,0-5.6-10.59c-3.19-4.6-5.29-5-12.19-5a32.44,32.44,0,0,0-9.09,1v25.48H80c7,0,8.6-.8,9.8-3a31,31,0,0,0,3.1-7.6h3v25.79h-3a45.67,45.67,0,0,0-3.1-8c-1.2-2.5-2.5-3-9.8-3H77.27V257c0,8.9.3,9.9,10,9.9,8,0,9.6-1,12.89-5.9,1.8-2.7,3.7-6.9,6.3-13.19h3.2l-1.4,23.48H52.18l-.1-2.8Z"/><path d="M118,231c-2.29-5.59-3.39-7-5.89-7.79l-1.9-.6V220h29.68v2.6l-2.7.7c-2.1.6-3.09,1.6-3.09,4a16.85,16.85,0,0,0,1.29,5.29l8.3,22.79h.5l8-22.79a16.05,16.05,0,0,0,1.29-5.49c0-2.2-1-3.3-3.09-3.8l-2.7-.7V220H166v2.6l-1.9.6c-2.6.9-3.7,2.4-6.1,8.89l-15.29,39.18h-8.39Z"/><path d="M163.72,245.41c0-17.19,12.69-26.69,25.79-26.69,13.59,0,22.08,6.8,22.38,24.69H179.31c.3,16.19,6.4,20.59,16.59,20.59a30.79,30.79,0,0,0,14.49-3.7v3.3a29.19,29.19,0,0,1-20.88,9C172.31,272.39,163.72,262.2,163.72,245.41Zm15.59-5.8,16.89-.9c0-11.89-1.6-16.29-7.49-16.29C183.71,222.42,179.71,227.22,179.31,239.61Z"/><path d="M238,226.32c2.8-3,8.49-7.9,15.09-7.9a7.7,7.7,0,1,1,0,15.39,7.61,7.61,0,0,1-7-4.59h0a3.1,3.1,0,0,0-2.79-1.4c-1.8,0-3.9,1.3-5.2,2.5h0v32c0,4.6.4,5.1,3.4,5.6l3.3.69v2.7H216.29v-2.7l2.6-.69c3.3-.9,3.7-1.4,3.7-5.6V231.61c0-4.19-.5-4.49-3.3-6.39L216,223v-2l20.79-2.4,1.1.8-.2,6.8h.3"/><path d="M263.77,268.59l2.59-.7c3.3-.89,3.7-1.39,3.7-5.59V231.61c0-4.19-.5-4.49-3.3-6.39l-3.29-2.2v-2l20.78-2.4,1.1.7-.2,6.3h.4c5.2-3.7,11.7-7,18.89-7,8.4,0,12.9,4.3,12.9,13.19V262.2c0,4.3.4,4.8,3.59,5.6l2.6.69v2.7H296.05v-2.7l2.4-.59c3-.8,3.29-1.1,3.29-5.7V235.71c0-6-2.19-7.89-6.79-7.89a42.23,42.23,0,0,0-9.2,1.3V262.3c0,4.7.3,4.9,3.3,5.69l2.4.6v2.7H264v-2.7Z"/><path d="M325.43,245.71c0-18.89,13.39-27,26.69-27,14.29,0,26.78,8.6,26.78,26.49,0,18.89-13.19,27.18-26.78,27.18C337.83,272.39,325.43,263.8,325.43,245.71Zm37,.5c0-19.89-3.8-23.69-10.59-23.69-6.2,0-9.9,4.5-9.9,21.49,0,20.19,3.3,24.58,10.5,24.58C358.31,268.59,362.41,265.1,362.41,246.21Z"/><path d="M387.5,258.8v-33h-6.2v-2.4a27.49,27.49,0,0,0,16.39-16.59h5.6V220h13.09l-1.3,5.8H403.29v32c0,4.9,1.5,6.9,6.4,6.9a36,36,0,0,0,7.09-.9v2.8a22.25,22.25,0,0,1-15.59,5.79C392.3,272.39,387.5,268.49,387.5,258.8Z"/><path d="M418.78,245.41c0-17.19,12.69-26.69,25.79-26.69,13.59,0,22.09,6.8,22.39,24.69H434.37c.3,16.19,6.4,20.59,16.59,20.59a30.86,30.86,0,0,0,14.5-3.7v3.3a29.23,29.23,0,0,1-20.89,9C427.28,272.39,418.78,262.2,418.78,245.41Zm15.49-5.8,16.89-.9c0-11.89-1.6-16.29-7.49-16.29C438.67,222.42,434.67,227.22,434.27,239.61Z"/><path d="M231.47,79.72a6.67,6.67,0,0,1-1.32,4.49c-1.3,1.21-3.32,1.32-4.5,1.32h-12.8a67,67,0,0,0-7.4.2,10.49,10.49,0,0,0-2.3.7c-.15.06-.2,0-.09-.1l29.21-29.71c.1-.1.16-.06.1.1a10.49,10.49,0,0,0-.7,2.3,67,67,0,0,0-.2,7.4Zm27.15,89.84a15.24,15.24,0,0,1-5.89-6.9A15.08,15.08,0,0,1,266.87,142a4.48,4.48,0,0,1,4.5,4.5,4.55,4.55,0,0,1-2.33,3.93,5.36,5.36,0,0,1-1.7.58,7.38,7.38,0,0,0-3.29,1.08,4.45,4.45,0,0,0-1.78,3.51,5.52,5.52,0,0,0,1.6,3.9,9.52,9.52,0,0,0,6.8,2.8A12.29,12.29,0,0,0,283,150c0-6.1-4.1-11.5-9.5-13.9a18.65,18.65,0,0,0-3.3-1c-1.5-.3-2.9-.5-3-.5-4.2-.5-14.7-3.8-15.4-13.1,0,0-3.1,14-9.3,17.8a10.22,10.22,0,0,1-2.3.8,13.44,13.44,0,0,1-2.2.3c-10.1.6-20.8-2.6-28.2-10.2,0,0-5-4.1-7.6-15.6-.6-2.8-1.8-7.8-2.5-12.5-.3-1.7-.4-3-.5-4.2,0-4.85,3-8.2,6.75-8.67l.59,0h19.76c3.5,0,5.5-.9,6.8-2.1,1.7-1.6,2.1-3.9,2.1-6.6V60.07c0-.14,0-.47,0-.58.47-3.75,3.82-6.76,8.67-6.76h2.4a23.83,23.83,0,0,1,3.31.25,25.8,25.8,0,0,1,2.69.55c6.1,1.52,7.4,7.7,7.4,7.7l17.3,3c5.5,1,19.1,1.9,21.7,15.6,6.1,32.6,2.4,64.2,2.1,64.2-4.3,30.8-29.9,29.3-29.9,29.3A22.22,22.22,0,0,1,258.62,169.56ZM281.67,104c-3.31-.35-6.12,1-7.15,3.51a2.62,2.62,0,0,0-.28,1.4.86.86,0,0,0,.51.5c1.21.58,3.23.87,6.12,1.22s4.92.54,6.23.26a.79.79,0,0,0,.61-.36,2.5,2.5,0,0,0,.06-1.43C287.37,106.38,285,104.44,281.67,104Z" style="fill:#00a82d"/></svg>