<svg class="animated" id="freepik_stories-filing-system" xmlns="http://www.w3.org/2000/svg" viewBox="0 0 500 500" version="1.1" xmlns:xlink="http://www.w3.org/1999/xlink" xmlns:svgjs="http://svgjs.com/svgjs"><style>svg#freepik_stories-filing-system:not(.animated) .animable {opacity: 0;}svg#freepik_stories-filing-system.animated #freepik--background-simple--inject-103 {animation: 1s 1 forwards cubic-bezier(.36,-0.01,.5,1.38) slideRight;animation-delay: 0s;}svg#freepik_stories-filing-system.animated #freepik--filing-cabinet--inject-103 {animation: 1s 1 forwards cubic-bezier(.36,-0.01,.5,1.38) slideUp;animation-delay: 0s;}svg#freepik_stories-filing-system.animated #freepik--Plants--inject-103 {animation: 1s 1 forwards cubic-bezier(.36,-0.01,.5,1.38) slideLeft;animation-delay: 0s;}svg#freepik_stories-filing-system.animated #freepik--Character--inject-103 {animation: 1s 1 forwards cubic-bezier(.36,-0.01,.5,1.38) zoomOut;animation-delay: 0s;}svg#freepik_stories-filing-system.animated #freepik--Floor--inject-103 {animation: 1s 1 forwards cubic-bezier(.36,-0.01,.5,1.38) zoomOut;animation-delay: 0s;}            @keyframes slideRight {                0% {                    opacity: 0;                    transform: translateX(30px);                }                100% {                    opacity: 1;                    transform: translateX(0);                }            }                    @keyframes slideUp {                0% {                    opacity: 0;                    transform: translateY(30px);                }                100% {                    opacity: 1;                    transform: inherit;                }            }                    @keyframes slideLeft {                0% {                    opacity: 0;                    transform: translateX(-30px);                }                100% {                    opacity: 1;                    transform: translateX(0);                }            }                    @keyframes zoomOut {                0% {                    opacity: 0;                    transform: scale(1.5);                }                100% {                    opacity: 1;                    transform: scale(1);                }            }        </style><g id="freepik--background-simple--inject-103" class="animable" style="transform-origin: 233.864px 180.135px;"><path d="M403.76,214.67c-14.57,37.61-48.61,66.14-84,79.72-27.45,10.53-56.67,9.49-85.79.44-27.63-8.58-53-22.51-81.38-16.23-22.26,4.93-47.36,12-67.48-8.33-10.05-10.14-16.72-23.9-21.12-38-14-44.71-7-92,23-121.35C112.6,85.8,149.25,73.68,184.6,75.82a115.09,115.09,0,0,1,20.15,3c17.46,4.25,36.52,10.9,54.45,8.49,21.11-2.84,35.77-18.9,55-26.27,19.87-7.6,40.48,1.38,56.31,18.51C403.66,115.4,421.31,169.36,403.76,214.67Z" style="fill: rgb(104, 124, 133); transform-origin: 233.864px 180.135px;" id="el7uu7t7mn16u" class="animable"></path><g id="el1rcqfwtrbjv"><path d="M403.76,214.67c-14.57,37.61-48.61,66.14-84,79.72-27.45,10.53-56.67,9.49-85.79.44-27.63-8.58-53-22.51-81.38-16.23-22.26,4.93-47.36,12-67.48-8.33-10.05-10.14-16.72-23.9-21.12-38-14-44.71-7-92,23-121.35C112.6,85.8,149.25,73.68,184.6,75.82a115.09,115.09,0,0,1,20.15,3c17.46,4.25,36.52,10.9,54.45,8.49,21.11-2.84,35.77-18.9,55-26.27,19.87-7.6,40.48,1.38,56.31,18.51C403.66,115.4,421.31,169.36,403.76,214.67Z" style="fill: rgb(255, 255, 255); opacity: 0.7; transform-origin: 233.864px 180.135px;" class="animable"></path></g><polygon points="153 119.47 77.93 119.47 78.69 112.49 153.76 112.49 153 119.47" style="fill: rgb(255, 255, 255); transform-origin: 115.845px 115.98px;" id="eljbogmtabeb" class="animable"></polygon><polygon points="153 129.24 77.93 129.24 78.69 122.26 153.76 122.26 153 129.24" style="fill: rgb(255, 255, 255); transform-origin: 115.845px 125.75px;" id="elzbdpb8o4bfm" class="animable"></polygon><polygon points="153 139 77.93 139 78.69 132.03 153.76 132.03 153 139" style="fill: rgb(255, 255, 255); transform-origin: 115.845px 135.515px;" id="elpx77ud9hg4" class="animable"></polygon><polygon points="153 148.77 77.93 148.77 78.69 141.79 153.76 141.79 153 148.77" style="fill: rgb(255, 255, 255); transform-origin: 115.845px 145.28px;" id="elhgsjknomjde" class="animable"></polygon><polygon points="153 158.54 77.93 158.54 78.69 151.56 153.76 151.56 153 158.54" style="fill: rgb(255, 255, 255); transform-origin: 115.845px 155.05px;" id="elk7yxcqitki" class="animable"></polygon><polygon points="153 168.3 77.93 168.3 78.69 161.33 153.76 161.33 153 168.3" style="fill: rgb(255, 255, 255); transform-origin: 115.845px 164.815px;" id="elzt4y6gdijl" class="animable"></polygon><polygon points="153 178.07 77.93 178.07 78.69 171.09 153.76 171.09 153 178.07" style="fill: rgb(255, 255, 255); transform-origin: 115.845px 174.58px;" id="elc8sbxvg9rit" class="animable"></polygon><polygon points="153 187.84 77.93 187.84 78.69 180.86 153.76 180.86 153 187.84" style="fill: rgb(255, 255, 255); transform-origin: 115.845px 184.35px;" id="elp6rknzlkeve" class="animable"></polygon><polygon points="153 197.6 77.93 197.6 78.69 190.63 153.76 190.63 153 197.6" style="fill: rgb(255, 255, 255); transform-origin: 115.845px 194.115px;" id="eluhisiyft0pm" class="animable"></polygon><polygon points="153 207.37 77.93 207.37 78.69 200.4 153.76 200.4 153 207.37" style="fill: rgb(255, 255, 255); transform-origin: 115.845px 203.885px;" id="elzawhtsn6xc" class="animable"></polygon><polygon points="153 217.14 77.93 217.14 78.69 210.16 153.76 210.16 153 217.14" style="fill: rgb(255, 255, 255); transform-origin: 115.845px 213.65px;" id="elyvkrvu3z39" class="animable"></polygon><polygon points="232.37 119.47 157.3 119.47 158.06 112.49 233.13 112.49 232.37 119.47" style="fill: rgb(255, 255, 255); transform-origin: 195.215px 115.98px;" id="elljikban798f" class="animable"></polygon><polygon points="232.37 129.24 157.3 129.24 158.06 122.26 233.13 122.26 232.37 129.24" style="fill: rgb(255, 255, 255); transform-origin: 195.215px 125.75px;" id="elbic5hjf4c1o" class="animable"></polygon><polygon points="232.37 139 157.3 139 158.06 132.03 233.13 132.03 232.37 139" style="fill: rgb(255, 255, 255); transform-origin: 195.215px 135.515px;" id="el632zf157mxi" class="animable"></polygon><polygon points="232.37 148.77 157.3 148.77 158.06 141.79 233.13 141.79 232.37 148.77" style="fill: rgb(255, 255, 255); transform-origin: 195.215px 145.28px;" id="elrbfiniyzy7" class="animable"></polygon><polygon points="232.37 158.54 157.3 158.54 158.06 151.56 233.13 151.56 232.37 158.54" style="fill: rgb(255, 255, 255); transform-origin: 195.215px 155.05px;" id="elfexs2m8atct" class="animable"></polygon><polygon points="232.37 168.3 157.3 168.3 158.06 161.33 233.13 161.33 232.37 168.3" style="fill: rgb(255, 255, 255); transform-origin: 195.215px 164.815px;" id="elk86j10sgk0m" class="animable"></polygon><polygon points="232.37 178.07 157.3 178.07 158.06 171.09 233.13 171.09 232.37 178.07" style="fill: rgb(255, 255, 255); transform-origin: 195.215px 174.58px;" id="eltvh4hug43cb" class="animable"></polygon><polygon points="232.37 187.84 157.3 187.84 158.06 180.86 233.13 180.86 232.37 187.84" style="fill: rgb(255, 255, 255); transform-origin: 195.215px 184.35px;" id="elrgj5319gmc" class="animable"></polygon><polygon points="232.37 197.6 157.3 197.6 158.06 190.63 233.13 190.63 232.37 197.6" style="fill: rgb(255, 255, 255); transform-origin: 195.215px 194.115px;" id="el16guwgfl4vf" class="animable"></polygon><polygon points="232.37 207.37 157.3 207.37 158.06 200.4 233.13 200.4 232.37 207.37" style="fill: rgb(255, 255, 255); transform-origin: 195.215px 203.885px;" id="eloyo73z3llx" class="animable"></polygon><polygon points="232.37 217.14 157.3 217.14 158.06 210.16 233.13 210.16 232.37 217.14" style="fill: rgb(255, 255, 255); transform-origin: 195.215px 213.65px;" id="elht2c0nraql" class="animable"></polygon></g><g id="freepik--filing-cabinet--inject-103" class="animable" style="transform-origin: 330.435px 261.47px;"><rect x="242.33" y="97.25" width="132.63" height="328.44" style="fill: rgb(255, 255, 255); stroke: rgb(38, 50, 56); stroke-linecap: round; stroke-linejoin: round; transform-origin: 308.645px 261.47px;" id="el7jy9bcic1m4" class="animable"></rect><rect x="354.79" y="97.25" width="63.75" height="328.44" style="fill: rgb(38, 50, 56); stroke: rgb(38, 50, 56); stroke-linecap: round; stroke-linejoin: round; transform-origin: 386.665px 261.47px;" id="elwn3gljzumqq" class="animable"></rect><rect x="319.48" y="103.66" width="31.9" height="43.87" style="fill: rgb(255, 255, 255); stroke: rgb(38, 50, 56); stroke-linecap: round; stroke-linejoin: round; transform-origin: 335.43px 125.595px;" id="el83ezcl1nw6o" class="animable"></rect><rect x="328.97" y="120.05" width="12.93" height="7.94" style="fill: rgb(104, 124, 133); stroke: rgb(38, 50, 56); stroke-linecap: round; stroke-linejoin: round; transform-origin: 335.435px 124.02px;" id="elck83qjeiche" class="animable"></rect><rect x="282.98" y="103.66" width="31.9" height="43.87" style="fill: rgb(255, 255, 255); stroke: rgb(38, 50, 56); stroke-linecap: round; stroke-linejoin: round; transform-origin: 298.93px 125.595px;" id="eltk1uhry66n" class="animable"></rect><rect x="292.47" y="120.05" width="12.93" height="7.94" style="fill: rgb(104, 124, 133); stroke: rgb(38, 50, 56); stroke-linecap: round; stroke-linejoin: round; transform-origin: 298.935px 124.02px;" id="elz4zkyiw5b5" class="animable"></rect><rect x="246.48" y="103.66" width="31.9" height="43.87" style="fill: rgb(255, 255, 255); stroke: rgb(38, 50, 56); stroke-linecap: round; stroke-linejoin: round; transform-origin: 262.43px 125.595px;" id="el9fk5fc6dji" class="animable"></rect><rect x="255.97" y="120.05" width="12.93" height="7.94" style="fill: rgb(104, 124, 133); stroke: rgb(38, 50, 56); stroke-linecap: round; stroke-linejoin: round; transform-origin: 262.435px 124.02px;" id="elo7jddbd990q" class="animable"></rect><rect x="319.48" y="154.3" width="31.9" height="43.87" style="fill: rgb(255, 255, 255); stroke: rgb(38, 50, 56); stroke-linecap: round; stroke-linejoin: round; transform-origin: 335.43px 176.235px;" id="eln1umvkc4ti8" class="animable"></rect><rect x="328.97" y="170.69" width="12.93" height="7.94" style="fill: rgb(104, 124, 133); stroke: rgb(38, 50, 56); stroke-linecap: round; stroke-linejoin: round; transform-origin: 335.435px 174.66px;" id="elku3oyum4iza" class="animable"></rect><rect x="246.48" y="154.3" width="31.9" height="43.87" style="fill: rgb(255, 255, 255); stroke: rgb(38, 50, 56); stroke-linecap: round; stroke-linejoin: round; transform-origin: 262.43px 176.235px;" id="elhzgtvlvmi98" class="animable"></rect><rect x="255.97" y="170.69" width="12.93" height="7.94" style="fill: rgb(255, 255, 255); stroke: rgb(38, 50, 56); stroke-linecap: round; stroke-linejoin: round; transform-origin: 262.435px 174.66px;" id="eld9j75yzdmdd" class="animable"></rect><rect x="284.01" y="155.68" width="29.63" height="35.41" style="fill: rgb(38, 50, 56); stroke: rgb(38, 50, 56); stroke-linecap: round; stroke-linejoin: round; transform-origin: 298.825px 173.385px;" id="el3oyxm2zja83" class="animable"></rect><rect x="281.96" y="158.74" width="29.63" height="35.41" style="fill: rgb(255, 255, 255); stroke: rgb(38, 50, 56); stroke-linecap: round; stroke-linejoin: round; transform-origin: 296.775px 176.445px;" id="ela13x1n2oq04" class="animable"></rect><rect x="277.86" y="158.74" width="29.63" height="35.41" style="fill: rgb(255, 255, 255); stroke: rgb(38, 50, 56); stroke-linecap: round; stroke-linejoin: round; transform-origin: 292.675px 176.445px;" id="eld99t8u4kbwe" class="animable"></rect><rect x="273.76" y="158.74" width="29.63" height="35.41" style="fill: rgb(255, 255, 255); stroke: rgb(38, 50, 56); stroke-linecap: round; stroke-linejoin: round; transform-origin: 288.575px 176.445px;" id="elqyhhilp18os" class="animable"></rect><rect x="269.66" y="158.74" width="29.63" height="35.41" style="fill: rgb(255, 255, 255); stroke: rgb(38, 50, 56); stroke-linecap: round; stroke-linejoin: round; transform-origin: 284.475px 176.445px;" id="elqz1thhj08l" class="animable"></rect><rect x="265.56" y="158.74" width="29.63" height="35.41" style="fill: rgb(255, 255, 255); stroke: rgb(38, 50, 56); stroke-linecap: round; stroke-linejoin: round; transform-origin: 280.375px 176.445px;" id="elbo69n7rzv79" class="animable"></rect><rect x="261.46" y="158.74" width="29.63" height="35.41" style="fill: rgb(255, 255, 255); stroke: rgb(38, 50, 56); stroke-linecap: round; stroke-linejoin: round; transform-origin: 276.275px 176.445px;" id="el1fmp90hrllf" class="animable"></rect><rect x="284.01" y="161.35" width="29.63" height="35.41" style="fill: rgb(38, 50, 56); stroke: rgb(38, 50, 56); stroke-linecap: round; stroke-linejoin: round; transform-origin: 298.825px 179.055px;" id="elnhhcgq7feg" class="animable"></rect><rect x="257.08" y="154.3" width="31.9" height="43.87" style="fill: rgb(255, 255, 255); stroke: rgb(38, 50, 56); stroke-linecap: round; stroke-linejoin: round; transform-origin: 273.03px 176.235px;" id="elwi5rwxbic0a" class="animable"></rect><rect x="266.57" y="170.69" width="12.93" height="7.94" style="fill: rgb(104, 124, 133); stroke: rgb(38, 50, 56); stroke-linecap: round; stroke-linejoin: round; transform-origin: 273.035px 174.66px;" id="eld52wql70bbr" class="animable"></rect><rect x="319.48" y="204.93" width="31.9" height="43.87" style="fill: rgb(255, 255, 255); stroke: rgb(38, 50, 56); stroke-linecap: round; stroke-linejoin: round; transform-origin: 335.43px 226.865px;" id="elurc0wax3cqb" class="animable"></rect><rect x="328.97" y="221.32" width="12.93" height="7.94" style="fill: rgb(104, 124, 133); stroke: rgb(38, 50, 56); stroke-linecap: round; stroke-linejoin: round; transform-origin: 335.435px 225.29px;" id="elrzov0qnpzfi" class="animable"></rect><rect x="282.98" y="204.93" width="31.9" height="43.87" style="fill: rgb(255, 255, 255); stroke: rgb(38, 50, 56); stroke-linecap: round; stroke-linejoin: round; transform-origin: 298.93px 226.865px;" id="elqf5k9cccdpa" class="animable"></rect><rect x="292.47" y="221.32" width="12.93" height="7.94" style="fill: rgb(104, 124, 133); stroke: rgb(38, 50, 56); stroke-linecap: round; stroke-linejoin: round; transform-origin: 298.935px 225.29px;" id="el25xvthmcgh5h" class="animable"></rect><rect x="246.48" y="204.93" width="31.9" height="43.87" style="fill: rgb(255, 255, 255); stroke: rgb(38, 50, 56); stroke-linecap: round; stroke-linejoin: round; transform-origin: 262.43px 226.865px;" id="elel6d8bc8z3j" class="animable"></rect><rect x="255.97" y="221.32" width="12.93" height="7.94" style="fill: rgb(104, 124, 133); stroke: rgb(38, 50, 56); stroke-linecap: round; stroke-linejoin: round; transform-origin: 262.435px 225.29px;" id="eli7101zr759a" class="animable"></rect><rect x="319.48" y="255.56" width="31.9" height="43.87" style="fill: rgb(255, 255, 255); stroke: rgb(38, 50, 56); stroke-linecap: round; stroke-linejoin: round; transform-origin: 335.43px 277.495px;" id="elh012575yab" class="animable"></rect><rect x="328.97" y="271.95" width="12.93" height="7.94" style="fill: rgb(104, 124, 133); stroke: rgb(38, 50, 56); stroke-linecap: round; stroke-linejoin: round; transform-origin: 335.435px 275.92px;" id="elebrj8agu20b" class="animable"></rect><rect x="282.98" y="255.56" width="31.9" height="43.87" style="fill: rgb(255, 255, 255); stroke: rgb(38, 50, 56); stroke-linecap: round; stroke-linejoin: round; transform-origin: 298.93px 277.495px;" id="elhkx91cjti65" class="animable"></rect><rect x="292.47" y="271.95" width="12.93" height="7.94" style="fill: rgb(104, 124, 133); stroke: rgb(38, 50, 56); stroke-linecap: round; stroke-linejoin: round; transform-origin: 298.935px 275.92px;" id="el6j1xmkzz9jj" class="animable"></rect><rect x="246.48" y="255.56" width="31.9" height="43.87" style="fill: rgb(255, 255, 255); stroke: rgb(38, 50, 56); stroke-linecap: round; stroke-linejoin: round; transform-origin: 262.43px 277.495px;" id="el831056xzp8" class="animable"></rect><rect x="255.97" y="271.95" width="12.93" height="7.94" style="fill: rgb(104, 124, 133); stroke: rgb(38, 50, 56); stroke-linecap: round; stroke-linejoin: round; transform-origin: 262.435px 275.92px;" id="el3d70pm0pfnd" class="animable"></rect><rect x="319.48" y="306.19" width="31.9" height="43.87" style="fill: rgb(255, 255, 255); stroke: rgb(38, 50, 56); stroke-linecap: round; stroke-linejoin: round; transform-origin: 335.43px 328.125px;" id="elyejpl9bl9bj" class="animable"></rect><rect x="328.97" y="322.58" width="12.93" height="7.94" style="fill: rgb(104, 124, 133); stroke: rgb(38, 50, 56); stroke-linecap: round; stroke-linejoin: round; transform-origin: 335.435px 326.55px;" id="el7q8svup2eo9" class="animable"></rect><rect x="282.98" y="306.19" width="31.9" height="43.87" style="fill: rgb(255, 255, 255); stroke: rgb(38, 50, 56); stroke-linecap: round; stroke-linejoin: round; transform-origin: 298.93px 328.125px;" id="eltkbn5xc0n8" class="animable"></rect><rect x="292.47" y="322.58" width="12.93" height="7.94" style="fill: rgb(104, 124, 133); stroke: rgb(38, 50, 56); stroke-linecap: round; stroke-linejoin: round; transform-origin: 298.935px 326.55px;" id="ele4tb1qhqa3f" class="animable"></rect><rect x="246.48" y="306.19" width="31.9" height="43.87" style="fill: rgb(255, 255, 255); stroke: rgb(38, 50, 56); stroke-linecap: round; stroke-linejoin: round; transform-origin: 262.43px 328.125px;" id="el20wap7iobb8" class="animable"></rect><rect x="255.97" y="322.58" width="12.93" height="7.94" style="fill: rgb(104, 124, 133); stroke: rgb(38, 50, 56); stroke-linecap: round; stroke-linejoin: round; transform-origin: 262.435px 326.55px;" id="el70k7naz6xpi" class="animable"></rect><rect x="319.48" y="356.82" width="31.9" height="43.87" style="fill: rgb(255, 255, 255); stroke: rgb(38, 50, 56); stroke-linecap: round; stroke-linejoin: round; transform-origin: 335.43px 378.755px;" id="el9tay4oqj5a" class="animable"></rect><rect x="328.97" y="373.21" width="12.93" height="7.94" style="fill: rgb(104, 124, 133); stroke: rgb(38, 50, 56); stroke-linecap: round; stroke-linejoin: round; transform-origin: 335.435px 377.18px;" id="elnhgp04b8b6" class="animable"></rect><rect x="282.98" y="356.82" width="31.9" height="43.87" style="fill: rgb(255, 255, 255); stroke: rgb(38, 50, 56); stroke-linecap: round; stroke-linejoin: round; transform-origin: 298.93px 378.755px;" id="elpv1jebysk9" class="animable"></rect><rect x="292.47" y="373.21" width="12.93" height="7.94" style="fill: rgb(104, 124, 133); stroke: rgb(38, 50, 56); stroke-linecap: round; stroke-linejoin: round; transform-origin: 298.935px 377.18px;" id="elqgtvba1qv2o" class="animable"></rect><rect x="246.48" y="356.82" width="31.9" height="43.87" style="fill: rgb(255, 255, 255); stroke: rgb(38, 50, 56); stroke-linecap: round; stroke-linejoin: round; transform-origin: 262.43px 378.755px;" id="elmw0n80d2bvh" class="animable"></rect><rect x="255.97" y="373.21" width="12.93" height="7.94" style="fill: rgb(104, 124, 133); stroke: rgb(38, 50, 56); stroke-linecap: round; stroke-linejoin: round; transform-origin: 262.435px 377.18px;" id="elyb2finwpl1" class="animable"></rect></g><g id="freepik--Plants--inject-103" class="animable" style="transform-origin: 109.807px 326.33px;"><path d="M105.64,248.87s-4.38,5-6.88,15,8.75,17.5,5,28.12S93.14,307.6,95,318.22s10,11.25,3.74,23.12-11.87,16.24-10,27.49,25.61,25.62,25.61,25.62,16.25-18.12,16.87-30-14.37-19.37-11.87-30,8.75-19.37,8.13-29.37-12.5-17.49-12.5-25,5-11.87,5-20.62-11.25-16.25-11.25-21.24,2.5-11.25,2.5-11.25S99.39,234.5,105.64,248.87Z" style="fill: rgb(104, 124, 133); transform-origin: 109.807px 310.71px;" id="elbiasztib9x" class="animable"></path><g id="elr3hpkxd6ta"><path d="M105.64,248.87s-4.38,5-6.88,15,8.75,17.5,5,28.12S93.14,307.6,95,318.22s10,11.25,3.74,23.12-11.87,16.24-10,27.49,25.61,25.62,25.61,25.62,16.25-18.12,16.87-30-14.37-19.37-11.87-30,8.75-19.37,8.13-29.37-12.5-17.49-12.5-25,5-11.87,5-20.62-11.25-16.25-11.25-21.24,2.5-11.25,2.5-11.25S99.39,234.5,105.64,248.87Z" style="fill: rgb(255, 255, 255); opacity: 0.5; transform-origin: 109.807px 310.71px;" class="animable"></path></g><line x1="111.89" y1="390.7" x2="110.64" y2="255.74" style="fill: none; stroke: rgb(38, 50, 56); stroke-linecap: round; stroke-linejoin: round; transform-origin: 111.265px 323.22px;" id="el2vcwzie7fwr" class="animable"></line><polyline points="124.49 359.81 112.25 372.05 98.37 359.81" style="fill: none; stroke: rgb(38, 50, 56); stroke-linecap: round; stroke-linejoin: round; transform-origin: 111.43px 365.93px;" id="elhp5f9u5i9d8" class="animable"></polyline><polyline points="120.41 305.94 111.43 319.81 103.68 307.16" style="fill: none; stroke: rgb(38, 50, 56); stroke-linecap: round; stroke-linejoin: round; transform-origin: 112.045px 312.875px;" id="elzq0zca2gjwb" class="animable"></polyline><polyline points="105.72 265.13 111.02 271.66 115.51 263.9" style="fill: none; stroke: rgb(38, 50, 56); stroke-linecap: round; stroke-linejoin: round; transform-origin: 110.615px 267.78px;" id="elbmth5v5dobm" class="animable"></polyline><rect x="96.27" y="390.7" width="31.24" height="34.99" style="fill: rgb(38, 50, 56); transform-origin: 111.89px 408.195px;" id="elh0qk0tttbjp" class="animable"></rect></g><g id="freepik--Character--inject-103" class="animable" style="transform-origin: 200.581px 277.293px;"><path d="M181.67,292l-20.65.29s2.91,24.72.58,37.52-8.43,22.68-8.43,32c0,6.12-3.51,27.12-4.37,39.73,0,0-4,3.11-4.87,4.56s0,3.2,2.33,4.95a15.06,15.06,0,0,1,5.53,6.4c1.45,3.2,3.49,6.68,6.1,7.56,3.11,1,1.16-2.4.68-3.89a33.06,33.06,0,0,1-1.72-11.46c.59-13.53,2.47-27.88,7.66-40.87S182.55,305.71,181.67,292Z" style="fill: rgb(255, 255, 255); stroke: rgb(38, 50, 56); stroke-linecap: round; stroke-linejoin: round; transform-origin: 162.656px 358.596px;" id="el3xbi7ieqq84" class="animable"></path><polygon points="152.83 416.61 157.85 413.41 158.72 418.35 154.58 422.42 152.83 416.61" style="fill: rgb(38, 50, 56); stroke: rgb(38, 50, 56); stroke-linecap: round; stroke-linejoin: round; transform-origin: 155.775px 417.915px;" id="el2ndpb3hulcb" class="animable"></polygon><path d="M145.39,412s2.4,1.34,2.7,5.53.3,7.19,2.4,8.09,7.78.6,7.78.6-4.88-4.8-6.48-8.69S148.08,409.72,145.39,412Z" style="fill: rgb(255, 255, 255); stroke: rgb(38, 50, 56); stroke-linecap: round; stroke-linejoin: round; transform-origin: 151.83px 418.797px;" id="eljzec2j755n" class="animable"></path><path d="M143.58,406.33s1.33-.71,4.4,2.36,6.05,10.14,7.38,12.7,4.1,3.69,4.61,3.49,2.05.61,1.54,1.22-2.36.72-3.79.31-4.61-3.28-5.64-5.33-2.76-6.35-4.4-7.78a11.3,11.3,0,0,0-4.41-2.56C142,410.43,140.51,408.18,143.58,406.33Z" style="fill: rgb(38, 50, 56); stroke: rgb(38, 50, 56); stroke-linecap: round; stroke-linejoin: round; transform-origin: 151.69px 416.456px;" id="eluj14qn2trc8" class="animable"></path><path d="M142,409.82l-1.64,10.55,1.54.41,3.07-9.43S145,409.71,142,409.82Z" style="fill: rgb(38, 50, 56); stroke: rgb(38, 50, 56); stroke-linecap: round; stroke-linejoin: round; transform-origin: 142.665px 415.297px;" id="ell4rqsh9sza" class="animable"></path><path d="M193.28,139.51a21.46,21.46,0,0,1,1.27,5.55c.15,2.7,1.26,5.39,2.22,6.34s3.48,1.43,3,2.7-3.17,2.54-3.17,2.54-.16,6.81-1,8.72a4.49,4.49,0,0,1-3.81,3,43.43,43.43,0,0,1-5.87-1.11s-1.11,8.72-1.42,11.26a50.21,50.21,0,0,0-.32,5.39L175,178s2.86-8.88,2.86-11.73-.64-3.17-.64-3.17-4.44-2.7-6.34-7,4.76-9.67,6.66-8.09a39.12,39.12,0,0,1,4.28,4.6Z" style="fill: rgb(255, 255, 255); stroke: rgb(38, 50, 56); stroke-linecap: round; stroke-linejoin: round; transform-origin: 185.186px 161.705px;" id="elyyw2asr1hth" class="animable"></path><path d="M170.29,136.18s-5.71-5.87-11.58-7.93-16.65,5.55-21.09,16.34,2.06,20.93,5.39,25.21,7,9.67,4.92,12l-2.06,2.38a6.41,6.41,0,0,0,6-2.22c2.54-3,5.71-10.79,2.54-20.93s-6.5-23-1.74-26.48,12.52-2.07,14.58.79l2.06,2.85Z" style="fill: rgb(38, 50, 56); stroke: rgb(38, 50, 56); stroke-linecap: round; stroke-linejoin: round; transform-origin: 153.204px 156.091px;" id="elfv2jrv1t8sq" class="animable"></path><path d="M177.9,164.72a32.09,32.09,0,0,1-14.27-12.05c-5.71-8.88,7.61-18.07,14.9-21.72s14.11-4.12,17,1.27-4.6,13.79-8.41,17.12-4.91,7.61-6.81,7.61-.64-4.6-4.44-4-1.75,5.71-.64,7.29a4.65,4.65,0,0,0,3.17,1.75Z" style="fill: rgb(38, 50, 56); stroke: rgb(38, 50, 56); stroke-linecap: round; stroke-linejoin: round; transform-origin: 179.211px 146.454px;" id="el73xqgfngc9d" class="animable"></path><path d="M190,130.46s1.64,9.37-5.85,15.7-15.7,6.33-15.94,9.37" style="fill: none; stroke: rgb(255, 255, 255); stroke-linecap: round; stroke-linejoin: round; stroke-width: 0.75px; transform-origin: 179.181px 142.995px;" id="el32kbom75wby" class="animable"></path><path d="M166.32,154.6s-.23-4.93,5.39-8.91,15.23-7.26,15.23-14.06" style="fill: none; stroke: rgb(255, 255, 255); stroke-linecap: round; stroke-linejoin: round; stroke-width: 0.75px; transform-origin: 176.629px 143.115px;" id="elc6v0dv6r2s5" class="animable"></path><path d="M150.39,133.74s-8.67,7.73-6.8,17.11,10.78,18.74,9.61,24.36-4.22,6.56-4.22,6.56" style="fill: none; stroke: rgb(255, 255, 255); stroke-linecap: round; stroke-linejoin: round; stroke-width: 0.75px; transform-origin: 148.316px 157.755px;" id="el1di3f1crznc" class="animable"></path><path d="M148.28,135.38s-8,4.92-8.9,14.53,1.18,16.34,3.63,19.89" style="fill: none; stroke: rgb(255, 255, 255); stroke-linecap: round; stroke-linejoin: round; stroke-width: 0.75px; transform-origin: 143.723px 152.59px;" id="elb6y40gyv84e" class="animable"></path><path d="M260.85,169.68s3.55,2.37,2.62,3.13a41,41,0,0,1-4.31,3.22c-.76.33-2.8-.51-2.54-1.61S260.85,169.68,260.85,169.68Z" style="fill: rgb(255, 255, 255); stroke: rgb(38, 50, 56); stroke-linecap: round; stroke-linejoin: round; transform-origin: 260.111px 172.891px;" id="elpgu2ydapfwh" class="animable"></path><path d="M188.59,188.12l26,15.06L250,180.3s3.72-7.43,4.5-8.21,5.09-3.52,7.24-5.28,3.13-3.52,3.13-2.55-2.74,5.28-3.52,6.07-3.33,3.52-3.33,4.1,5.28-1.76,5.87-2,1.75-.7.78.67-3.85,2.33-5.42,3.89-3.57,3.65-5.92,4.63-28.75,23.86-31.49,27.18a13,13,0,0,1-9,4.7c-2.15,0-17-6.07-17-6.07Z" style="fill: rgb(255, 255, 255); stroke: rgb(38, 50, 56); stroke-linecap: round; stroke-linejoin: round; transform-origin: 226.817px 188.742px;" id="el6uuf6f8dsnm" class="animable"></path><path d="M227.82,194.63l-13.22,8.55-26-15.06,7.23,19.36s14.87,6.07,17,6.07a13,13,0,0,0,9-4.7c1-1.2,5-4.93,9.95-9.27Z" style="fill: rgb(38, 50, 56); stroke: rgb(38, 50, 56); stroke-linecap: round; stroke-linejoin: round; transform-origin: 210.19px 200.835px;" id="elvh7bpf1ynln" class="animable"></path><polygon points="191.72 212.76 225.55 197.51 232.78 214.72 195.82 229.58 191.72 212.76" style="fill: rgb(104, 124, 133); stroke: rgb(38, 50, 56); stroke-linecap: round; stroke-linejoin: round; transform-origin: 212.25px 213.545px;" id="el2efyjzg1p98" class="animable"></polygon><path d="M190.66,188.43s-7.89-10.92-12.54-12.55-10.69,4.65-12.31,14.17,8.13,38.56,8.36,39.49,17,4.18,17,4.18,8.82-23.92,8.36-30.66S190.66,188.43,190.66,188.43Z" style="fill: rgb(38, 50, 56); stroke: rgb(38, 50, 56); stroke-linecap: round; stroke-linejoin: round; transform-origin: 182.588px 204.671px;" id="elnh3t72tel2" class="animable"></path><path d="M169.06,413s-1.58-.27-1.58.72v11.7h1.23l1.35-7.29s1.11,0,3.57,2.22,3.64,4.21,5.24,5.32,7.7,1,8.68,1,1.42-1.41.4-1.57-6.68-3.36-7.91-4.34-5.79-7-7.27-7.76S169.06,413,169.06,413Z" style="fill: rgb(38, 50, 56); stroke: rgb(38, 50, 56); stroke-linecap: round; stroke-linejoin: round; transform-origin: 178.006px 419.668px;" id="elu7ov6mvnx6o" class="animable"></path><path d="M166.89,293.18s4.34,28.81.93,40.89-6.19,18.27-5.26,26.94,8.67,35,8.67,41.5-3.34,7.25-2.17,10.53c.8,2.22,6.81,5.27,9,7.74s4.65,4.65,5.89,4.65,4,1.24,4-.31-2.47-1.24-3.4-3.41-6.63-12.62-6.74-16c-.18-5.31-1.32-44.05.23-55.2s5.27-33.14,6.82-38.71,2.47-17.66,2.47-17.66Z" style="fill: rgb(255, 255, 255); stroke: rgb(38, 50, 56); stroke-linecap: round; stroke-linejoin: round; transform-origin: 175.164px 359.54px;" id="eleic04lfqvxo" class="animable"></path><path d="M174.17,229.54s-15.64,16-17.19,29.5c-1,8.74,3,48,3,48h32.29s1.16-48.27,0-57.1a139.64,139.64,0,0,1-1.16-16.26Z" style="fill: rgb(104, 124, 133); stroke: rgb(38, 50, 56); stroke-linecap: round; stroke-linejoin: round; transform-origin: 174.803px 268.29px;" id="elipjdrs00fnk" class="animable"></path><path d="M178.81,421.64l3.44-5.05,2.47,3.57-2.47,5S180.53,425.09,178.81,421.64Z" style="fill: rgb(38, 50, 56); stroke: rgb(38, 50, 56); stroke-linecap: round; stroke-linejoin: round; transform-origin: 181.765px 420.875px;" id="el2b0hxl3saza" class="animable"></path><path d="M177.64,183.82s-4.5-.78-7.63,5.09,8.41,49.47,8.6,51.23,36.38-16.23,37-16.23,7.62-.59,9.77-2.15a42.46,42.46,0,0,0,4.31-3.72s4.69-2.93,3.12-3.32-11.34,1.56-11.34,1.56,3.72-3.12,3.72-3.91-.39-1.56-1.76-.78-6.26,4.3-7.24,6.06a10.57,10.57,0,0,0-1.17,2.74s-21.51,5.48-24.45,6.06-4.69,1-4.69,1L182.33,193" style="fill: rgb(38, 50, 56); stroke: rgb(38, 50, 56); stroke-linecap: round; stroke-linejoin: round; transform-origin: 201.302px 212.023px;" id="elxagbpifex9" class="animable"></path><line x1="185.85" y1="227.43" x2="183.42" y2="195.6" style="fill: none; stroke: rgb(255, 255, 255); stroke-linecap: round; stroke-linejoin: round; stroke-width: 0.75px; transform-origin: 184.635px 211.515px;" id="ely42bphmkxro" class="animable"></line><path d="M175,185.05s-4.45,1.88-4.92,9.85,5.62,33.5,5.62,33.5" style="fill: none; stroke: rgb(255, 255, 255); stroke-linecap: round; stroke-linejoin: round; stroke-width: 0.75px; transform-origin: 172.877px 206.725px;" id="elcke8xoil288" class="animable"></path><path d="M192,226.12c.24,1.71.8,5.66,1.15,8.32,10.2-4.7,22.06-10.53,22.4-10.53.58,0,7.62-.59,9.77-2.15a42.46,42.46,0,0,0,4.31-3.72s4.69-2.93,3.12-3.32-11.34,1.56-11.34,1.56,3.72-3.12,3.72-3.91-.39-1.56-1.76-.78-6.26,4.3-7.24,6.06a10.57,10.57,0,0,0-1.17,2.74S197.74,224.78,192,226.12Z" style="fill: rgb(255, 255, 255); stroke: rgb(38, 50, 56); stroke-linecap: round; stroke-linejoin: round; transform-origin: 212.536px 222.853px;" id="elcjz1ngzeqf6" class="animable"></path><path d="M159.88,263.92s6.89,14.29,9.44,18.88" style="fill: none; stroke: rgb(38, 50, 56); stroke-linecap: round; stroke-linejoin: round; stroke-width: 0.75px; transform-origin: 164.6px 273.36px;" id="elsg82p1qnya" class="animable"></path></g><g id="freepik--Floor--inject-103" class="animable" style="transform-origin: 264.755px 428.1px;"><rect x="70.98" y="426.17" width="387.55" height="3.86" style="fill: rgb(38, 50, 56); stroke: rgb(38, 50, 56); stroke-linecap: round; stroke-linejoin: round; transform-origin: 264.755px 428.1px;" id="elmqr1txzka38" class="animable"></rect></g><defs>     <filter id="active" height="200%">         <feMorphology in="SourceAlpha" result="DILATED" operator="dilate" radius="2"></feMorphology>                <feFlood flood-color="#32DFEC" flood-opacity="1" result="PINK"></feFlood>        <feComposite in="PINK" in2="DILATED" operator="in" result="OUTLINE"></feComposite>        <feMerge>            <feMergeNode in="OUTLINE"></feMergeNode>            <feMergeNode in="SourceGraphic"></feMergeNode>        </feMerge>    </filter>    <filter id="hover" height="200%">        <feMorphology in="SourceAlpha" result="DILATED" operator="dilate" radius="2"></feMorphology>                <feFlood flood-color="#ff0000" flood-opacity="0.5" result="PINK"></feFlood>        <feComposite in="PINK" in2="DILATED" operator="in" result="OUTLINE"></feComposite>        <feMerge>            <feMergeNode in="OUTLINE"></feMergeNode>            <feMergeNode in="SourceGraphic"></feMergeNode>        </feMerge>            <feColorMatrix type="matrix" values="0   0   0   0   0                0   1   0   0   0                0   0   0   0   0                0   0   0   1   0 "></feColorMatrix>    </filter></defs></svg>