<svg class="animated" id="freepik_stories-rising" xmlns="http://www.w3.org/2000/svg" viewBox="0 0 500 500" version="1.1" xmlns:xlink="http://www.w3.org/1999/xlink" xmlns:svgjs="http://svgjs.com/svgjs"><style>svg#freepik_stories-rising:not(.animated) .animable {opacity: 0;}svg#freepik_stories-rising.animated #freepik--background-complete--inject-119 {animation: 1s 1 forwards cubic-bezier(.36,-0.01,.5,1.38) zoomOut;animation-delay: 0s;}svg#freepik_stories-rising.animated #freepik--Shadow--inject-119 {animation: 1s 1 forwards cubic-bezier(.36,-0.01,.5,1.38) slideRight;animation-delay: 0s;}svg#freepik_stories-rising.animated #freepik--Character--inject-119 {animation: 1s 1 forwards cubic-bezier(.36,-0.01,.5,1.38) fadeIn;animation-delay: 0s;}svg#freepik_stories-rising.animated #freepik--Arrow--inject-119 {animation: 1s 1 forwards cubic-bezier(.36,-0.01,.5,1.38) slideUp;animation-delay: 0s;}            @keyframes zoomOut {                0% {                    opacity: 0;                    transform: scale(1.5);                }                100% {                    opacity: 1;                    transform: scale(1);                }            }                    @keyframes slideRight {                0% {                    opacity: 0;                    transform: translateX(30px);                }                100% {                    opacity: 1;                    transform: translateX(0);                }            }                    @keyframes fadeIn {                0% {                    opacity: 0;                }                100% {                    opacity: 1;                }            }                    @keyframes slideUp {                0% {                    opacity: 0;                    transform: translateY(30px);                }                100% {                    opacity: 1;                    transform: inherit;                }            }        </style><g id="freepik--background-complete--inject-119" class="animable" style="transform-origin: 250px 228.23px;"><rect y="382.4" width="500" height="0.25" style="fill: rgb(235, 235, 235); transform-origin: 250px 382.525px;" id="elmr416hvkuvg" class="animable"></rect><rect x="90.46" y="391.92" width="24.87" height="0.25" style="fill: rgb(235, 235, 235); transform-origin: 102.895px 392.045px;" id="elhi5h84sjx5w" class="animable"></rect><rect x="152.33" y="389.21" width="27.5" height="0.25" style="fill: rgb(235, 235, 235); transform-origin: 166.08px 389.335px;" id="elkur79b401ls" class="animable"></rect><rect x="47.67" y="401.21" width="58.11" height="0.25" style="fill: rgb(235, 235, 235); transform-origin: 76.725px 401.335px;" id="elh3o0g9h7a8m" class="animable"></rect><rect x="428.3" y="399.53" width="21.6" height="0.25" style="fill: rgb(235, 235, 235); transform-origin: 439.1px 399.655px;" id="elx721uludzq" class="animable"></rect><rect x="214.79" y="391.14" width="27.93" height="0.25" style="fill: rgb(235, 235, 235); transform-origin: 228.755px 391.265px;" id="elnbs5yz75rwr" class="animable"></rect><rect x="300.67" y="395.31" width="70.22" height="0.25" style="fill: rgb(235, 235, 235); transform-origin: 335.78px 395.435px;" id="elgdnq63posm8" class="animable"></rect><path d="M237,337.8H43.91a5.71,5.71,0,0,1-5.7-5.71V60.66A5.71,5.71,0,0,1,43.91,55H237a5.71,5.71,0,0,1,5.71,5.71V332.09A5.71,5.71,0,0,1,237,337.8ZM43.91,55.2a5.46,5.46,0,0,0-5.45,5.46V332.09a5.46,5.46,0,0,0,5.45,5.46H237a5.47,5.47,0,0,0,5.46-5.46V60.66A5.47,5.47,0,0,0,237,55.2Z" style="fill: rgb(235, 235, 235); transform-origin: 140.46px 196.4px;" id="ela87gxsyhj48" class="animable"></path><path d="M453.31,337.8H260.21a5.72,5.72,0,0,1-5.71-5.71V60.66A5.72,5.72,0,0,1,260.21,55h193.1A5.71,5.71,0,0,1,459,60.66V332.09A5.71,5.71,0,0,1,453.31,337.8ZM260.21,55.2a5.47,5.47,0,0,0-5.46,5.46V332.09a5.47,5.47,0,0,0,5.46,5.46h193.1a5.47,5.47,0,0,0,5.46-5.46V60.66a5.47,5.47,0,0,0-5.46-5.46Z" style="fill: rgb(235, 235, 235); transform-origin: 356.75px 196.4px;" id="elszmnw4xxii9" class="animable"></path><rect x="59.66" y="83.51" width="152.34" height="189.74" style="fill: rgb(230, 230, 230); transform-origin: 135.83px 178.38px;" id="elxmeld6sy2di" class="animable"></rect><rect x="61.23" y="83.51" width="154.13" height="189.74" style="fill: rgb(245, 245, 245); transform-origin: 138.295px 178.38px;" id="el23yr2ri41mo" class="animable"></rect><path d="M61.76,80.92H214a1.34,1.34,0,0,0,1.34-1.34h0A1.34,1.34,0,0,0,214,78.25H61.76a1.34,1.34,0,0,0-1.33,1.33h0A1.34,1.34,0,0,0,61.76,80.92Z" style="fill: rgb(230, 230, 230); transform-origin: 137.885px 79.585px;" id="eliifhtgbzt8p" class="animable"></path><rect x="59.66" y="273.25" width="152.34" height="2.64" style="fill: rgb(230, 230, 230); transform-origin: 135.83px 274.57px;" id="elmjpixljrc9m" class="animable"></rect><rect x="84.06" y="273.25" width="146.74" height="2.64" style="fill: rgb(245, 245, 245); transform-origin: 157.43px 274.57px;" id="elp89zd8ik8wk" class="animable"></rect><g id="elpmhg5fogsac"><rect x="49.57" y="106.04" width="177.46" height="144.68" style="fill: rgb(250, 250, 250); transform-origin: 138.3px 178.38px; transform: rotate(90deg);" class="animable"></rect></g><polygon points="116.21 267.11 127.37 89.65 147.44 89.65 136.28 267.11 116.21 267.11" style="fill: rgb(255, 255, 255); transform-origin: 131.825px 178.38px;" id="elm0q3vac3b4e" class="animable"></polygon><polygon points="141.96 267.11 153.12 89.65 162.43 89.65 151.27 267.11 141.96 267.11" style="fill: rgb(255, 255, 255); transform-origin: 152.195px 178.38px;" id="eli1t26b49hm8" class="animable"></polygon><g id="elwfs86forl1n"><rect x="150.62" y="148.24" width="119.45" height="0.6" style="fill: rgb(230, 230, 230); transform-origin: 210.345px 148.54px; transform: rotate(90deg);" class="animable"></rect></g><g id="el25lnbbpbzy5"><g style="opacity: 0.4; transform-origin: 78.0036px 168.045px;" class="animable"><path d="M56.11,89.34v171.2h0c8.87,0,16.88-8.23,20.51-21,7.69-26.93,19.54-71,23.2-151.15.56-12.38-2-12.84-5.38-12.84H59.82C57.77,75.58,56.11,81.74,56.11,89.34Z" style="fill: rgb(230, 230, 230); transform-origin: 78.0036px 168.045px;" id="elbryugz3pesb" class="animable"></path></g></g><g id="el2a0tyee62o5"><g style="opacity: 0.4; transform-origin: 197.336px 168.045px;" class="animable"><path d="M219.23,89.34v171.2h0c-8.86,0-16.87-8.23-20.51-21-7.68-26.93-19.53-71-23.2-151.15-.56-12.38,2-12.84,5.38-12.84h34.62C217.57,75.58,219.23,81.74,219.23,89.34Z" style="fill: rgb(230, 230, 230); transform-origin: 197.336px 168.045px;" id="eljbeuv2dkens" class="animable"></path></g></g><rect x="162.16" y="305.12" width="17.67" height="77.27" style="fill: rgb(230, 230, 230); transform-origin: 170.995px 343.755px;" id="elxwft15ke8a" class="animable"></rect><polygon points="172.18 382.4 179.83 382.4 179.83 369.58 172 369.58 172.18 382.4" style="fill: rgb(245, 245, 245); transform-origin: 175.915px 375.99px;" id="elsnzyfx5cqcp" class="animable"></polygon><rect x="60.31" y="305.12" width="17.67" height="77.27" style="fill: rgb(230, 230, 230); transform-origin: 69.145px 343.755px;" id="ely0x4gj893" class="animable"></rect><rect x="71.3" y="305.12" width="108.53" height="72.86" style="fill: rgb(245, 245, 245); transform-origin: 125.565px 341.55px;" id="el3912i18maj6" class="animable"></rect><polygon points="78.95 382.4 71.3 382.4 71.3 369.58 79.14 369.58 78.95 382.4" style="fill: rgb(245, 245, 245); transform-origin: 75.22px 375.99px;" id="eldf6embf85cm" class="animable"></polygon><rect x="77.24" y="311.25" width="96.66" height="26.87" style="fill: rgb(240, 240, 240); transform-origin: 125.57px 324.685px;" id="el9nabnd638li" class="animable"></rect><path d="M125.57,329.29a7.85,7.85,0,1,1,7.84-7.84A7.85,7.85,0,0,1,125.57,329.29Zm0-14.86a7,7,0,1,0,7,7A7,7,0,0,0,125.57,314.43Z" style="fill: rgb(255, 255, 255); transform-origin: 125.56px 321.44px;" id="elr4moqm003ib" class="animable"></path><rect x="77.24" y="344.62" width="96.66" height="26.87" style="fill: rgb(240, 240, 240); transform-origin: 125.57px 358.055px;" id="elqpjod4yvrui" class="animable"></rect><path d="M125.57,362.66a7.85,7.85,0,1,1,7.84-7.85A7.86,7.86,0,0,1,125.57,362.66Zm0-14.87a7,7,0,1,0,7,7A7,7,0,0,0,125.57,347.79Z" style="fill: rgb(255, 255, 255); transform-origin: 125.56px 354.81px;" id="elwjwoxjylc9" class="animable"></path><g id="elk174d0ozgx"><rect x="298.07" y="293.02" width="60.3" height="89.37" style="fill: rgb(230, 230, 230); transform-origin: 328.22px 337.705px; transform: rotate(180deg);" class="animable"></rect></g><rect x="358.36" y="293.02" width="79.25" height="89.37" style="fill: rgb(240, 240, 240); transform-origin: 397.985px 337.705px;" id="eli65yzslymx" class="animable"></rect><g id="eldihn7bn1k"><rect x="298.07" y="285.41" width="139.54" height="9.26" style="fill: rgb(230, 230, 230); opacity: 0.7; mix-blend-mode: multiply; transform-origin: 367.84px 290.04px; transform: rotate(180deg);" class="animable"></rect></g><g id="elw4zv0o1ayo"><rect x="295.03" y="284.47" width="63.34" height="8.56" style="fill: rgb(230, 230, 230); transform-origin: 326.7px 288.75px; transform: rotate(180deg);" class="animable"></rect></g><rect x="358.36" y="284.47" width="82.29" height="8.56" style="fill: rgb(240, 240, 240); transform-origin: 399.505px 288.75px;" id="elv8kehcmxh" class="animable"></rect><g id="el0t2x5osfcm3"><rect x="225.75" y="327.23" width="49.33" height="55.16" style="fill: rgb(235, 235, 235); transform-origin: 250.415px 354.81px; transform: rotate(180deg);" class="animable"></rect></g><rect x="275.07" y="327.23" width="64.83" height="55.16" style="fill: rgb(245, 245, 245); transform-origin: 307.485px 354.81px;" id="el5162tahestu" class="animable"></rect><g id="eldg4nylob8uq"><rect x="225.75" y="321" width="114.16" height="7.57" style="fill: rgb(230, 230, 230); opacity: 0.7; mix-blend-mode: multiply; transform-origin: 282.83px 324.785px; transform: rotate(180deg);" class="animable"></rect></g><g id="el0k5h5myi73j"><rect x="223.26" y="320.23" width="51.82" height="7" style="fill: rgb(235, 235, 235); transform-origin: 249.17px 323.73px; transform: rotate(180deg);" class="animable"></rect></g><rect x="275.07" y="320.23" width="67.32" height="7" style="fill: rgb(245, 245, 245); transform-origin: 308.73px 323.73px;" id="eldr36bz293u4" class="animable"></rect><rect x="312.05" y="97.72" width="100.56" height="155.57" style="fill: rgb(230, 230, 230); transform-origin: 362.33px 175.505px;" id="elr6xh2253ws8" class="animable"></rect><rect x="313.51" y="97.72" width="107.7" height="155.57" style="fill: rgb(245, 245, 245); transform-origin: 367.36px 175.505px;" id="elgf31yyxjd09" class="animable"></rect><g id="elkmrlr51krt8"><rect x="296.44" y="128.52" width="141.84" height="93.97" rx="5.4" style="fill: rgb(255, 255, 255); transform-origin: 367.36px 175.505px; transform: rotate(90deg);" class="animable"></rect></g><g id="eli78wh2fe9n"><rect x="363.38" y="151.11" width="7.96" height="48.79" style="fill: rgb(245, 245, 245); transform-origin: 367.36px 175.505px; transform: rotate(45deg);" class="animable"></rect></g><g id="elckcno8r01tn"><rect x="349.19" y="136.92" width="7.96" height="48.79" style="fill: rgb(245, 245, 245); transform-origin: 353.17px 161.315px; transform: rotate(45deg);" class="animable"></rect></g><g id="elej82ymbw219"><rect x="377.57" y="165.3" width="7.96" height="48.79" style="fill: rgb(245, 245, 245); transform-origin: 381.55px 189.695px; transform: rotate(45deg);" class="animable"></rect></g></g><g id="freepik--Shadow--inject-119" class="animable" style="transform-origin: 250px 416.24px;"><ellipse id="freepik--path--inject-119" cx="250" cy="416.24" rx="193.89" ry="11.32" style="fill: rgb(245, 245, 245); transform-origin: 250px 416.24px;" class="animable"></ellipse></g><g id="freepik--Character--inject-119" class="animable" style="transform-origin: 235.611px 247.984px;"><path d="M251.66,345.48l1.13-3.87h-55l-20.73,70.63h10l10-34h13.28l10,34h11.76l10-34H255.3l10,34h6Zm-53.82,30.1,5.85-19.92,5.84,19.92ZM224.15,405l-7.84-26.72H232Zm8.64-29.42H215.51l-8.83-30.1.34-1.17H242Zm10,0,5.85-19.92,5.84,19.92Z" style="fill: rgb(252, 176, 1); transform-origin: 224.18px 376.925px;" id="elo0rwkz3uw4" class="animable"></path><g id="el8l3v0oc0iwo"><path d="M251.66,345.48l1.13-3.87h-55l-20.73,70.63h10l10-34h13.28l10,34h11.76l10-34H255.3l10,34h6Zm-53.82,30.1,5.85-19.92,5.84,19.92ZM224.15,405l-7.84-26.72H232Zm8.64-29.42H215.51l-8.83-30.1.34-1.17H242Zm10,0,5.85-19.92,5.84,19.92Z" style="opacity: 0.2; transform-origin: 224.18px 376.925px;" class="animable"></path></g><path d="M254.85,341.61H203.9l20.73,70.63h6l-10-34h39l10,34h6Zm-35,34-9.18-31.27h39l9.17,31.27Z" style="fill: rgb(252, 176, 1); transform-origin: 239.765px 376.925px;" id="el7q8gfgz3k74" class="animable"></path><g id="el97sugm4e6ke"><path d="M254.85,341.61H203.9l20.73,70.63h6l-10-34h39l10,34h6m-55.73-36.66-9.18-31.27h39l9.17,31.27Z" style="fill: rgb(255, 255, 255); opacity: 0.4; transform-origin: 239.765px 376.925px;" class="animable"></path></g><path d="M253.81,87.92s2.21-5.25,14.25-4c8.75.91,14.07,10.33,13.41,23.66s-6.13,19.08-6.13,19.08l-28.7-14.92S244.68,89.67,253.81,87.92Z" style="fill: rgb(38, 50, 56); transform-origin: 263.994px 105.194px;" id="elc6ibens3mf4" class="animable"></path><path d="M279.67,102v20.67C284.17,104.06,279.67,102,279.67,102Z" style="fill: rgb(38, 50, 56); transform-origin: 280.67px 112.335px;" id="eldshq22otyrp" class="animable"></path><path d="M278.21,93.66l4.68,20.13C281.85,91.25,277,90.21,278.21,93.66Z" style="fill: rgb(38, 50, 56); transform-origin: 280.454px 102.984px;" id="elkfu3bzbxf1l" class="animable"></path><path d="M277.46,144.19c.73,1.94,1.5,4,2.32,6s1.64,4,2.53,6,1.84,3.86,2.83,5.7c.51.91,1,1.8,1.56,2.66.26.46.55.83.83,1.26l.37.54a1.81,1.81,0,0,0,.18.23,4,4,0,0,0,1.53.9,11.69,11.69,0,0,0,2.53.55,31,31,0,0,0,6,0,61.21,61.21,0,0,0,6.36-.83c2.13-.35,4.3-.82,6.37-1.29l1.35,3.77A62.63,62.63,0,0,1,299,174a33.92,33.92,0,0,1-7.32.72,18.16,18.16,0,0,1-4.07-.56,10.94,10.94,0,0,1-4.35-2.18,10.07,10.07,0,0,1-1-1c-.18-.2-.25-.3-.35-.42l-.29-.36c-.37-.49-.79-1-1.12-1.47l-1-1.49-1-1.51a70,70,0,0,1-3.41-6.14c-1-2.09-2-4.18-2.88-6.3s-1.7-4.23-2.44-6.5Z" style="fill: rgb(255, 195, 189); transform-origin: 290.995px 159.456px;" id="elbcjh3qucr1" class="animable"></path><path d="M310.35,170.44l5,1.29.85-6.78s-5.07-.06-7.49,2.17Z" style="fill: rgb(255, 195, 189); transform-origin: 312.455px 168.34px;" id="elh0ok4as1ork" class="animable"></path><polygon points="321.54 172.12 320.83 167.12 316.15 164.95 315.31 171.73 321.54 172.12" style="fill: rgb(255, 195, 189); transform-origin: 318.425px 168.535px;" id="elabodd6ygptk" class="animable"></polygon><g id="elhylyfhtq4g"><polygon points="321.54 172.12 320.83 167.12 318.7 166.13 316.15 171.78 321.54 172.12" style="opacity: 0.2; transform-origin: 318.845px 169.125px;" class="animable"></polygon></g><path d="M263.55,138.73c.31,2.6,2.2,7.61,3.74,11.36,1.12,2.7,2,4.73,2,4.73l1.49-.56,12.38-4.67c-.63-6.72-1.81-14.06-8.89-17.76C269.87,129.5,263,134.08,263.55,138.73Z" style="fill: rgb(252, 176, 1); transform-origin: 273.339px 143.012px;" id="elhg0a19o878n" class="animable"></path><g id="elve2z8v9v48q"><path d="M267.29,150.09c1.12,2.7,2,4.73,2,4.73l1.49-.56c-.08-2.64-.41-6.82-1.73-8.77A11.43,11.43,0,0,0,267.29,150.09Z" style="opacity: 0.3; transform-origin: 269.035px 150.155px;" class="animable"></path></g><polygon points="220.68 333.59 228.7 334.35 230.85 315.85 222.84 315.09 220.68 333.59" style="fill: rgb(255, 195, 189); transform-origin: 225.765px 324.72px;" id="elqf8mo8upaz" class="animable"></polygon><polygon points="154.67 311.9 161.13 316.77 173.98 303.21 167.52 298.35 154.67 311.9" style="fill: rgb(255, 195, 189); transform-origin: 164.325px 307.56px;" id="elym4rf6l1c8" class="animable"></polygon><path d="M162.4,316.1l-4.63-7.83a.63.63,0,0,0-.8-.26l-6.55,2.89a1.34,1.34,0,0,0-.55,1.88c1.67,2.69,2.6,3.91,4.64,7.35,1.25,2.12,3.72,7,5.45,9.91s4.64,1.31,4.17-.07c-2.09-6.17-1.87-9.67-1.46-12.45A2.11,2.11,0,0,0,162.4,316.1Z" style="fill: rgb(38, 50, 56); transform-origin: 156.932px 319.814px;" id="el1jx4lfqbawv" class="animable"></path><path d="M229.72,332h-9.55a.76.76,0,0,0-.73.58l-1.87,7.55a1.23,1.23,0,0,0,1.21,1.52c3.36,0,5-.24,9.16-.24,2.58,0,9.26.25,12.83.25s4.12-3.53,2.67-3.85c-6.52-1.43-10.3-3.4-12.35-5.29A2,2,0,0,0,229.72,332Z" style="fill: rgb(38, 50, 56); transform-origin: 230.86px 336.83px;" id="elgbh6n0qx8ae" class="animable"></path><g id="eleru17pyw45"><polygon points="230.85 315.85 229.74 325.39 221.63 325.39 222.83 315.09 230.85 315.85" style="opacity: 0.2; transform-origin: 226.24px 320.24px;" class="animable"></polygon></g><g id="elrbnyfcbfm5"><polygon points="167.52 298.35 173.97 303.22 167.35 310.2 160.89 305.33 167.52 298.35" style="opacity: 0.2; transform-origin: 167.43px 304.275px;" class="animable"></polygon></g><path d="M225.5,165.1l30.43,12c23.24-41.55,20.29-44,20.29-44s-4.8-3.2-9.83-5.93c-.76-.41-1.53-.81-2.29-1.2a105.13,105.13,0,0,0-13.81-5.45c-.7-.24-1.39-.46-2.09-.68a97.72,97.72,0,0,0-11.46-2.7c-.72,5.92-1.4,10.92-2.1,15.26-.9,5.66-1.8,10.18-2.76,14.08A122.17,122.17,0,0,1,225.5,165.1Z" style="fill: rgb(252, 176, 1); transform-origin: 250.92px 147.12px;" id="elns4t8itfkx" class="animable"></path><g id="el9z87bupbubl"><path d="M231.88,146.45c3.16-4.08,6.43-13.78,5.85-17.54l-3.09,3.46C233.74,138,232.84,142.55,231.88,146.45Z" style="opacity: 0.3; transform-origin: 234.839px 137.68px;" class="animable"></path></g><path d="M270.18,128c-1.27-6.78-21.82-11.81-21.82-11.81L260,136.39l1.84.74S271,132.51,270.18,128Z" style="fill: rgb(252, 176, 1); transform-origin: 259.296px 126.66px;" id="el778opnx9x7k" class="animable"></path><g id="elmh9vx7p0r7q"><path d="M270.18,128c-1.27-6.78-21.82-11.81-21.82-11.81L260,136.39l1.84.74S271,132.51,270.18,128Z" style="opacity: 0.3; transform-origin: 259.296px 126.66px;" class="animable"></path></g><path d="M255.89,111.77c-1.18,3.85-3,7.61-5.61,8.72,0,0-1.41,10,7.81,19.57,10.43-6.32,6-14.12,6-14.12-4.53-3.15-3.42-6.51-.07-11.52l-3.4-3.08A2.56,2.56,0,0,0,255.89,111.77Z" style="fill: rgb(255, 195, 189); transform-origin: 257.614px 125.004px;" id="elentkvvpf6ph" class="animable"></path><path d="M247.79,119.69l.57-3.5s4.75,2.56,6.72,6.7S254,134.83,254,134.83l-7.38-7.05Z" style="fill: rgb(252, 176, 1); transform-origin: 251.181px 125.51px;" id="elog1o24txh1" class="animable"></path><g id="elh42d9n4xeqi"><path d="M260.63,111.33a2.57,2.57,0,0,0-4.61.09,16.79,16.79,0,0,0,5.19,8.72,17.28,17.28,0,0,1,2.81-5.72Z" style="opacity: 0.2; transform-origin: 260.02px 115.04px;" class="animable"></path></g><path d="M252.63,98c.22,8.06.15,11.47,4,15.81,5.8,6.54,15.47,4.72,17.62-3.2,1.93-7.12,1.24-19.1-6.38-22.73A10.6,10.6,0,0,0,252.63,98Z" style="fill: rgb(255, 195, 189); transform-origin: 263.888px 102.298px;" id="elqks41a0yy59" class="animable"></path><path d="M253.4,90.92c6,6.34,17.42,2.5,17.42,2.5l6,3.63-3.18-7.22-7-4.11S250.33,87.67,253.4,90.92Z" style="fill: rgb(38, 50, 56); transform-origin: 264.918px 91.385px;" id="els54i4gv2tvb" class="animable"></path><path d="M254.06,88.42a19.24,19.24,0,0,1,4.83,7.33c2,5-6,8.83-6,8.83S246.39,97.75,254.06,88.42Z" style="fill: rgb(38, 50, 56); transform-origin: 254.765px 96.5px;" id="elurp234jzuu8" class="animable"></path><path d="M250.6,105.32a6,6,0,0,0,2.5,3.76c1.71,1.15,3.15-.23,3.17-2.19,0-1.76-.85-4.48-2.8-4.84S250.22,103.44,250.6,105.32Z" style="fill: rgb(255, 195, 189); transform-origin: 253.402px 105.751px;" id="elkfj69276r8p" class="animable"></path><path d="M255.93,177.1s-5.39,40.62-9.33,71.86C243.47,273.79,232,321.65,232,321.65l-11.71-1.16s4.89-54.31,9.38-71.74c-2.77-35.85-10-70.56,1.81-81.47Z" style="fill: rgb(38, 50, 56); transform-origin: 238.11px 244.465px;" id="el45pki3vtp8f" class="animable"></path><polygon points="218.42 317.64 233.86 318.11 233.02 323.38 218.57 323.16 218.42 317.64" style="fill: rgb(252, 176, 1); transform-origin: 226.14px 320.51px;" id="elwhmoys5byzk" class="animable"></polygon><g id="eljcss7zc34qm"><path d="M236.72,198.09,225,188.35c-.41,12.53,1.64,28.73,3.37,46C234.3,221.93,238.41,208.64,236.72,198.09Z" style="opacity: 0.3; transform-origin: 231.025px 211.35px;" class="animable"></path></g><path d="M249.25,174.58s-21.68,45.19-30.36,75.33c-10.84,23.83-47.26,58-47.26,58l-8.3-7.41s29.11-48.81,39-57.09c4.74-34.91,8.45-68.43,23.16-78.29Z" style="fill: rgb(38, 50, 56); transform-origin: 206.29px 236.515px;" id="elfom0wretb26" class="animable"></path><polygon points="171.23 310.57 160.46 301.64 163.26 296.82 175.07 307.19 171.23 310.57" style="fill: rgb(252, 176, 1); transform-origin: 167.765px 303.695px;" id="el6v5xutg5tlv" class="animable"></polygon><path d="M225.7,163.12l-2.37,2.21c-.18.17,0,.49.34.62l31.91,12.59c.28.11.55.07.63-.1l1.28-2.64c.08-.18-.1-.44-.4-.56l-30.81-12.16A.58.58,0,0,0,225.7,163.12Z" style="fill: rgb(252, 176, 1); transform-origin: 240.384px 170.811px;" id="el65x49zyfkr6" class="animable"></path><g id="els9zrzszphfs"><path d="M225.7,163.12l-2.37,2.21c-.18.17,0,.49.34.62l31.91,12.59c.28.11.55.07.63-.1l1.28-2.64c.08-.18-.1-.44-.4-.56l-30.81-12.16A.58.58,0,0,0,225.7,163.12Z" style="fill: rgb(255, 255, 255); opacity: 0.2; transform-origin: 240.384px 170.811px;" class="animable"></path></g><path d="M228.58,168.23l-.83-.33c-.16-.06-.25-.2-.21-.3l1.69-3.41c.05-.1.22-.13.38-.07l.83.33c.16.06.26.2.21.3L229,168.17C228.92,168.27,228.74,168.3,228.58,168.23Z" style="fill: rgb(38, 50, 56); transform-origin: 229.097px 166.179px;" id="el0m4cbbl3hgmf" class="animable"></path><path d="M253.16,177.93l-.83-.33c-.16-.06-.26-.2-.21-.3l1.68-3.42c0-.1.23-.13.39-.06l.83.32c.16.07.26.2.21.3l-1.69,3.42C253.49,178,253.32,178,253.16,177.93Z" style="fill: rgb(38, 50, 56); transform-origin: 253.675px 175.879px;" id="el7yxt7w7whlg" class="animable"></path><path d="M240.87,173.08l-.83-.33c-.16-.06-.26-.2-.21-.3l1.68-3.42c.05-.1.23-.13.39-.06l.83.33c.16.06.26.19.21.3L241.26,173C241.21,173.11,241,173.14,240.87,173.08Z" style="fill: rgb(38, 50, 56); transform-origin: 241.385px 171.021px;" id="elv5cihccmbu" class="animable"></path><path d="M264.18,100.88c0,.66.31,1.21.73,1.23s.78-.49.8-1.14-.31-1.21-.73-1.23S264.21,100.23,264.18,100.88Z" style="fill: rgb(38, 50, 56); transform-origin: 264.945px 100.925px;" id="elydgefqxlhxk" class="animable"></path><path d="M271.45,101.29c0,.65.31,1.2.73,1.23s.77-.49.8-1.15-.31-1.2-.73-1.22S271.48,100.64,271.45,101.29Z" style="fill: rgb(38, 50, 56); transform-origin: 272.216px 101.335px;" id="elytsvowspac" class="animable"></path><path d="M272.07,100.17l1.56-.36S272.79,101,272.07,100.17Z" style="fill: rgb(38, 50, 56); transform-origin: 272.85px 100.137px;" id="el94trb2smigk" class="animable"></path><path d="M270.63,102.21a18.11,18.11,0,0,0,2.16,4.3,2.71,2.71,0,0,1-2.31.31Z" style="fill: rgb(237, 132, 126); transform-origin: 271.635px 104.58px;" id="elaa0fgegdm5f" class="animable"></path><path d="M267.43,109.34a.24.24,0,0,0,.12-.18.21.21,0,0,0-.19-.2,5.2,5.2,0,0,1-4.08-2.26.2.2,0,0,0-.26-.07.21.21,0,0,0-.07.27,5.57,5.57,0,0,0,4.4,2.45Z" style="fill: rgb(38, 50, 56); transform-origin: 265.238px 107.979px;" id="elq4x73yz3z2" class="animable"></path><path d="M263.55,98.34a.31.31,0,0,0,.16-.12,2.94,2.94,0,0,1,2.46-1.14.39.39,0,0,0,.42-.34.4.4,0,0,0-.34-.43,3.64,3.64,0,0,0-3.13,1.42.39.39,0,0,0,.06.54A.39.39,0,0,0,263.55,98.34Z" style="fill: rgb(38, 50, 56); transform-origin: 264.815px 97.3308px;" id="elyinyue98we" class="animable"></path><path d="M276.05,98.21a.1.1,0,0,0,0,0,.4.4,0,0,0-.14-.53,3.7,3.7,0,0,0-3.45-.28.39.39,0,0,0-.16.51.39.39,0,0,0,.51.18,3,3,0,0,1,2.73.25A.36.36,0,0,0,276.05,98.21Z" style="fill: rgb(38, 50, 56); transform-origin: 274.18px 97.7483px;" id="elmnt12mjfzt" class="animable"></path><path d="M163.65,320.28l.12.05a1.05,1.05,0,0,0,1-.27.65.65,0,0,0,.26-.61c-.13-1-2.71-2.31-3-2.45a.17.17,0,0,0-.2,0,.19.19,0,0,0-.06.2C162.09,318.22,162.74,319.89,163.65,320.28Zm-1.36-2.73c1,.55,2.31,1.41,2.37,1.95a.27.27,0,0,1-.12.27.72.72,0,0,1-.67.19C163.35,319.8,162.77,318.91,162.29,317.55Z" style="fill: rgb(252, 176, 1); transform-origin: 163.399px 318.665px;" id="elayt1birx7pj" class="animable"></path><path d="M162.06,317.43c.88.39,2.83.64,3.45.05a.67.67,0,0,0,.12-.83,1,1,0,0,0-.63-.57c-1.1-.34-3.06.87-3.14.93a.19.19,0,0,0-.09.17.19.19,0,0,0,.1.16Zm2.91-.95a.64.64,0,0,1,.32.33c.1.23,0,.33,0,.39-.41.39-2,.29-2.88-.05a4.26,4.26,0,0,1,2.51-.7Z" style="fill: rgb(252, 176, 1); transform-origin: 163.746px 316.925px;" id="elwp866tldd9i" class="animable"></path><path d="M234,333.53a3.12,3.12,0,0,0,1.85-.45,1.16,1.16,0,0,0,.46-.92.57.57,0,0,0-.25-.52c-.89-.58-4.1.89-4.73,1.2a.17.17,0,0,0-.1.19.2.2,0,0,0,.15.17A13.17,13.17,0,0,0,234,333.53Zm1.47-1.65a.65.65,0,0,1,.38.08.19.19,0,0,1,.08.18.79.79,0,0,1-.32.64c-.55.42-1.86.48-3.58.16A11.61,11.61,0,0,1,235.47,331.88Z" style="fill: rgb(252, 176, 1); transform-origin: 233.769px 332.522px;" id="elt349oqflugn" class="animable"></path><path d="M231.42,333.2h.07c1.07-.45,3.19-2.19,3-3.09,0-.2-.17-.44-.66-.5-1.91-.23-2.61,3.22-2.64,3.37a.16.16,0,0,0,.07.18A.18.18,0,0,0,231.42,333.2ZM233.7,330h.13c.2,0,.31.08.33.17.08.53-1.38,1.9-2.46,2.5C231.93,331.82,232.56,330,233.7,330Z" style="fill: rgb(252, 176, 1); transform-origin: 232.843px 331.402px;" id="el6m7b71cv4ou" class="animable"></path><path d="M264.8,99.77l1.56-.37S265.52,100.58,264.8,99.77Z" style="fill: rgb(38, 50, 56); transform-origin: 265.58px 99.727px;" id="elp6vva90znza" class="animable"></path><path d="M236.75,130.21c-3.23,3-6.49,6.11-9.61,9.23-1.56,1.57-3.07,3.17-4.51,4.78a44.42,44.42,0,0,0-3.89,4.85,8.74,8.74,0,0,0-1,1.86s0,0,0,0,0-.13,0,0a2.29,2.29,0,0,0,0,.37,4.29,4.29,0,0,0,.16.81,9.35,9.35,0,0,0,3.06,3.8A45.42,45.42,0,0,0,232,162l-1,3.89c-1.25-.18-2.37-.42-3.54-.7a35.81,35.81,0,0,1-3.46-1,32.13,32.13,0,0,1-6.76-3.09,18.75,18.75,0,0,1-3.22-2.48,13,13,0,0,1-2.7-3.73,10,10,0,0,1-.79-2.46,9.7,9.7,0,0,1-.15-1.32,6.49,6.49,0,0,1,0-.87c0-.28.07-.59.12-.83a11.11,11.11,0,0,1,.82-2.45c.31-.68.64-1.28,1-1.86a50.72,50.72,0,0,1,4.34-6c1.52-1.83,3.1-3.56,4.7-5.25,3.2-3.4,6.49-6.57,10-9.68Z" style="fill: rgb(255, 195, 189); transform-origin: 223.558px 145.03px;" id="elfkbbtf9hcdl" class="animable"></path><path d="M228.84,165.12l4,5.24,4-5.51s-3.75-3.4-7-3.33Z" style="fill: rgb(255, 195, 189); transform-origin: 232.84px 165.939px;" id="elm3xj33jx0lr" class="animable"></path><polygon points="236.11 173.78 238.89 169.57 236.82 164.85 232.81 170.36 236.11 173.78" style="fill: rgb(255, 195, 189); transform-origin: 235.85px 169.315px;" id="elxzogosp0kq" class="animable"></polygon><path d="M236.74,117.11c-4-.46-12.33,9-12.33,9l7.47,13.19s11.07-7.83,10.66-12.84C242.18,122.06,241.83,117.69,236.74,117.11Z" style="fill: rgb(252, 176, 1); transform-origin: 233.481px 128.197px;" id="ellco0dmsbfd" class="animable"></path></g><g id="freepik--Arrow--inject-119" class="animable" style="transform-origin: 254.505px 272.96px;"><g id="elywfmae6u5tb"><rect x="325.64" y="243.17" width="4.8" height="1" style="fill: rgb(252, 176, 1); transform-origin: 328.04px 243.67px; transform: rotate(-59.98deg);" class="animable"></rect></g><g id="el7xsb0dchhuh"><rect x="327.36" y="229.31" width="17.38" height="1" style="fill: rgb(252, 176, 1); transform-origin: 336.05px 229.81px; transform: rotate(-59.98deg);" class="animable"></rect></g><polygon points="368.01 126.35 298.46 157.98 325.39 157.98 233.26 317.44 281.95 317.44 374.08 157.98 401.01 157.98 368.01 126.35" style="fill: rgb(252, 176, 1); transform-origin: 317.135px 221.895px;" id="elksveww813bg" class="animable"></polygon><polygon points="281.95 317.44 233.26 317.44 200.14 260.1 248.82 260.1 281.95 317.44" style="fill: rgb(252, 176, 1); transform-origin: 241.045px 288.77px;" id="elsenuj46gsim" class="animable"></polygon><g id="elc4mfmxd4osv"><polygon points="281.95 317.44 233.26 317.44 200.14 260.1 248.82 260.1 281.95 317.44" style="opacity: 0.3; transform-origin: 241.045px 288.77px;" class="animable"></polygon></g><polygon points="248.83 260.1 200.13 260.1 108 419.57 156.69 419.57 248.83 260.1" style="fill: rgb(252, 176, 1); transform-origin: 178.415px 339.835px;" id="el2btvg2goare" class="animable"></polygon></g><defs>     <filter id="active" height="200%">         <feMorphology in="SourceAlpha" result="DILATED" operator="dilate" radius="2"></feMorphology>                <feFlood flood-color="#32DFEC" flood-opacity="1" result="PINK"></feFlood>        <feComposite in="PINK" in2="DILATED" operator="in" result="OUTLINE"></feComposite>        <feMerge>            <feMergeNode in="OUTLINE"></feMergeNode>            <feMergeNode in="SourceGraphic"></feMergeNode>        </feMerge>    </filter>    <filter id="hover" height="200%">        <feMorphology in="SourceAlpha" result="DILATED" operator="dilate" radius="2"></feMorphology>                <feFlood flood-color="#ff0000" flood-opacity="0.5" result="PINK"></feFlood>        <feComposite in="PINK" in2="DILATED" operator="in" result="OUTLINE"></feComposite>        <feMerge>            <feMergeNode in="OUTLINE"></feMergeNode>            <feMergeNode in="SourceGraphic"></feMergeNode>        </feMerge>            <feColorMatrix type="matrix" values="0   0   0   0   0                0   1   0   0   0                0   0   0   0   0                0   0   0   1   0 "></feColorMatrix>    </filter></defs></svg>