<svg class="animated" id="freepik_stories-superhero" xmlns="http://www.w3.org/2000/svg" viewBox="0 0 500 500" version="1.1" xmlns:xlink="http://www.w3.org/1999/xlink" xmlns:svgjs="http://svgjs.com/svgjs"><style>svg#freepik_stories-superhero:not(.animated) .animable {opacity: 0;}svg#freepik_stories-superhero.animated #freepik--Floor--inject-38 {animation: 1s 1 forwards cubic-bezier(.36,-0.01,.5,1.38) slideRight;animation-delay: 0s;}svg#freepik_stories-superhero.animated #freepik--Shadows--inject-38 {animation: 1s 1 forwards cubic-bezier(.36,-0.01,.5,1.38) slideUp;animation-delay: 0s;}svg#freepik_stories-superhero.animated #freepik--Buildings--inject-38 {animation: 1s 1 forwards cubic-bezier(.36,-0.01,.5,1.38) slideRight;animation-delay: 0s;}svg#freepik_stories-superhero.animated #freepik--character-2--inject-38 {animation: 1s 1 forwards cubic-bezier(.36,-0.01,.5,1.38) zoomOut;animation-delay: 0s;}svg#freepik_stories-superhero.animated #freepik--character-1--inject-38 {animation: 1s 1 forwards cubic-bezier(.36,-0.01,.5,1.38) zoomOut;animation-delay: 0s;}            @keyframes slideRight {                0% {                    opacity: 0;                    transform: translateX(30px);                }                100% {                    opacity: 1;                    transform: translateX(0);                }            }                    @keyframes slideUp {                0% {                    opacity: 0;                    transform: translateY(30px);                }                100% {                    opacity: 1;                    transform: inherit;                }            }                    @keyframes zoomOut {                0% {                    opacity: 0;                    transform: scale(1.5);                }                100% {                    opacity: 1;                    transform: scale(1);                }            }        </style><g id="freepik--Floor--inject-38" class="animable" style="transform-origin: 251.85px 332.92px;"><ellipse id="freepik--floor--inject-38" cx="251.85" cy="332.92" rx="224.7" ry="122.23" style="fill: rgb(250, 250, 250); transform-origin: 251.85px 332.92px;" class="animable"></ellipse></g><g id="freepik--Shadows--inject-38" class="animable" style="transform-origin: 253.09px 326.52px;"><ellipse cx="184.63" cy="403.7" rx="44.19" ry="26.29" style="fill: rgb(235, 235, 235); transform-origin: 184.63px 403.7px;" id="elas2sbnlaiwj" class="animable"></ellipse><path d="M328.9,403.82c7.89,4.56,7.89,11.95,0,16.51s-20.69,4.55-28.59,0-7.89-11.95,0-16.51S321,399.26,328.9,403.82Z" style="fill: rgb(235, 235, 235); transform-origin: 314.603px 412.073px;" id="elqvahs0n4jym" class="animable"></path><polygon points="256.96 247.07 272.09 255.81 268.3 257.99 302.35 277.65 306.13 275.47 321.26 284.2 350.37 267.36 286 230.2 256.96 247.07" style="fill: rgb(235, 235, 235); transform-origin: 303.665px 257.2px;" id="elmhzk2ec7zw" class="animable"></polygon><polygon points="97.98 327.11 147.16 298.71 97.98 270.32 48.8 298.71 97.98 327.11" style="fill: rgb(235, 235, 235); transform-origin: 97.98px 298.715px;" id="elrw2nnvum2gj" class="animable"></polygon><polygon points="192.58 275.47 241.76 247.07 200.26 223.05 150.97 251.44 192.58 275.47" style="fill: rgb(235, 235, 235); transform-origin: 196.365px 249.26px;" id="eli6ahyrrr68" class="animable"></polygon><polygon points="351.46 298.71 404.42 329.29 457.38 298.71 404.43 268.13 351.46 298.71" style="fill: rgb(235, 235, 235); transform-origin: 404.42px 298.71px;" id="el8epw6v6xij" class="animable"></polygon></g><g id="freepik--Buildings--inject-38" class="animable" style="transform-origin: 253.35px 193.156px;"><polygon points="234.08 247.15 192.6 271.1 192.6 121.17 234.08 97.23 234.08 247.15" style="fill: rgb(250, 250, 250); transform-origin: 213.34px 184.165px;" id="eljdll5319osd" class="animable"></polygon><polygon points="229.47 244.49 224.86 247.15 224.86 107.87 229.47 105.21 229.47 244.49" style="fill: rgb(235, 235, 235); transform-origin: 227.165px 176.18px;" id="elhxsh4qmknf9" class="animable"></polygon><polygon points="220.25 249.72 215.65 252.38 215.65 113.19 220.25 110.53 220.25 249.72" style="fill: rgb(235, 235, 235); transform-origin: 217.95px 181.455px;" id="eli00wj1sjl2" class="animable"></polygon><polygon points="211.04 255.04 206.43 257.7 206.43 118.51 211.04 115.85 211.04 255.04" style="fill: rgb(235, 235, 235); transform-origin: 208.735px 186.775px;" id="el3m96ks9g71x" class="animable"></polygon><polygon points="201.82 260.45 197.21 263.12 197.21 123.84 201.82 121.17 201.82 260.45" style="fill: rgb(235, 235, 235); transform-origin: 199.515px 192.145px;" id="el5wqs4426z1l" class="animable"></polygon><polygon points="160.34 252.47 192.6 271.1 192.6 121.17 160.34 102.55 160.34 252.47" style="fill: rgb(240, 240, 240); transform-origin: 176.47px 186.825px;" id="elms58cd9piyk" class="animable"></polygon><polygon points="164.95 249.81 169.56 252.47 169.56 113.19 164.95 110.53 164.95 249.81" style="fill: rgb(224, 224, 224); transform-origin: 167.255px 181.5px;" id="elaeh3xkqxgd8" class="animable"></polygon><polygon points="174.17 255.13 178.78 257.79 178.78 118.51 174.17 115.85 174.17 255.13" style="fill: rgb(224, 224, 224); transform-origin: 176.475px 186.82px;" id="elibi03bzrvp" class="animable"></polygon><polygon points="183.38 260.45 187.99 263.12 187.99 123.84 183.38 121.17 183.38 260.45" style="fill: rgb(224, 224, 224); transform-origin: 185.685px 192.145px;" id="elya027wfufor" class="animable"></polygon><polygon points="160.34 102.55 201.82 78.6 234.08 97.23 192.6 121.17 160.34 102.55" style="fill: rgb(107, 124, 133); transform-origin: 197.21px 99.885px;" id="el9ctssgmd7bj" class="animable"></polygon><polygon points="160.34 102.55 201.82 78.6 234.08 97.23 192.6 121.17 160.34 102.55" style="fill: rgb(235, 235, 235); transform-origin: 197.21px 99.885px;" id="el46zm1fyhivz" class="animable"></polygon><polygon points="192.6 99.89 220.25 83.92 201.82 73.28 174.17 89.25 192.6 99.89" style="fill: rgb(235, 235, 235); transform-origin: 197.21px 86.585px;" id="el29cqz9l2dni" class="animable"></polygon><polygon points="192.6 113.19 192.6 99.89 220.25 83.92 220.25 97.23 192.6 113.19" style="fill: rgb(250, 250, 250); transform-origin: 206.425px 98.555px;" id="elpbqb8xlgvje" class="animable"></polygon><polygon points="174.17 102.55 174.17 89.25 192.6 99.89 192.6 113.19 174.17 102.55" style="fill: rgb(240, 240, 240); transform-origin: 183.385px 101.22px;" id="elwd353cbfq" class="animable"></polygon><path d="M194.23,88.31a.81.81,0,0,1-.47.66,2.54,2.54,0,0,1-2.31,0,.8.8,0,0,1-.48-.66v-26h3.26Z" style="fill: rgb(250, 250, 250); transform-origin: 192.6px 75.7789px;" id="elxz4d75vntpm" class="animable"></path><path d="M194.05,62.77c-.7.75-2.6.67-3.06-.22a.58.58,0,0,1,0-.41c.46-.9,2.36-1,3.06-.23A.59.59,0,0,1,194.05,62.77Z" style="fill: rgb(235, 235, 235); transform-origin: 192.594px 62.3364px;" id="elqgmomc6xzh" class="animable"></path><polygon points="357.38 297.76 404.42 324.92 404.43 184.54 357.38 157.38 357.38 297.76" style="fill: rgb(250, 250, 250); transform-origin: 380.905px 241.15px;" id="elu3kb74wph2s" class="animable"></polygon><polygon points="404.42 324.92 451.47 297.76 451.47 157.38 404.43 184.54 404.42 324.92" style="fill: rgb(240, 240, 240); transform-origin: 427.945px 241.15px;" id="eldpwek1stor8" class="animable"></polygon><polygon points="451.47 157.38 404.42 130.22 357.38 157.38 404.43 184.54 451.47 157.38" style="fill: rgb(235, 235, 235); transform-origin: 404.425px 157.38px;" id="el188u0vaejv7" class="animable"></polygon><polygon points="404.42 179.11 404.42 135.66 442.06 113.93 442.06 157.26 404.42 179.11" style="fill: rgb(240, 240, 240); transform-origin: 423.24px 146.52px;" id="elxh9co1qin6p" class="animable"></polygon><polygon points="366.79 157.38 366.79 113.93 404.42 135.66 404.42 179.11 366.79 157.38" style="fill: rgb(250, 250, 250); transform-origin: 385.605px 146.52px;" id="el2wcf42s8lbw" class="animable"></polygon><polygon points="442.06 113.93 404.42 92.2 366.79 113.93 404.42 135.66 442.06 113.93" style="fill: rgb(235, 235, 235); transform-origin: 404.425px 113.93px;" id="el5ymm3ab4945" class="animable"></polygon><polygon points="404.42 130.22 376.2 113.93 376.2 81.34 404.42 97.63 404.42 130.22" style="fill: rgb(250, 250, 250); transform-origin: 390.31px 105.78px;" id="el45mkcaj6i38" class="animable"></polygon><polygon points="404.42 130.22 432.65 113.93 432.65 81.34 404.42 97.63 404.42 130.22" style="fill: rgb(240, 240, 240); transform-origin: 418.535px 105.78px;" id="el8hfw2xpvr5" class="animable"></polygon><polygon points="432.65 81.34 404.42 65.04 376.2 81.34 404.42 97.63 432.65 81.34" style="fill: rgb(235, 235, 235); transform-origin: 404.425px 81.335px;" id="el6kmnhzmotma" class="animable"></polygon><polygon points="399.72 315.41 395.02 312.7 395.02 184.54 399.72 187.26 399.72 315.41" style="fill: rgb(235, 235, 235); transform-origin: 397.37px 249.975px;" id="elq4ikb8m7yj" class="animable"></polygon><polygon points="391.49 310.66 386.78 307.94 386.78 179.79 391.49 182.51 391.49 310.66" style="fill: rgb(235, 235, 235); transform-origin: 389.135px 245.225px;" id="elp1cqd3468e" class="animable"></polygon><polygon points="383.25 305.91 378.55 303.19 378.55 175.04 383.25 177.75 383.25 305.91" style="fill: rgb(235, 235, 235); transform-origin: 380.9px 240.475px;" id="elzgnpbkpck2" class="animable"></polygon><polygon points="375.02 301.15 370.32 298.44 370.32 170.28 375.02 173 375.02 301.15" style="fill: rgb(235, 235, 235); transform-origin: 372.67px 235.715px;" id="el04fabusms96z" class="animable"></polygon><polygon points="366.79 296.4 362.09 293.69 362.09 165.53 366.79 168.25 366.79 296.4" style="fill: rgb(235, 235, 235); transform-origin: 364.44px 230.965px;" id="ele36dh303kg" class="animable"></polygon><polygon points="409.13 315.41 413.83 312.7 413.83 184.54 409.13 187.26 409.13 315.41" style="fill: rgb(224, 224, 224); transform-origin: 411.48px 249.975px;" id="el7zw5w6nvzrm" class="animable"></polygon><polygon points="417.36 310.66 422.07 307.94 422.07 179.79 417.36 182.51 417.36 310.66" style="fill: rgb(224, 224, 224); transform-origin: 419.715px 245.225px;" id="elcur7fg5e6hg" class="animable"></polygon><polygon points="425.59 305.91 430.3 303.19 430.3 175.04 425.6 177.75 425.59 305.91" style="fill: rgb(224, 224, 224); transform-origin: 427.945px 240.475px;" id="elmx6d4vfslzq" class="animable"></polygon><polygon points="433.83 301.15 438.53 298.44 438.53 170.28 433.83 173 433.83 301.15" style="fill: rgb(224, 224, 224); transform-origin: 436.18px 235.715px;" id="ela8bo4mgxfrc" class="animable"></polygon><polygon points="442.06 296.4 446.76 293.69 446.76 165.53 442.06 168.25 442.06 296.4" style="fill: rgb(224, 224, 224); transform-origin: 444.41px 230.965px;" id="elua10kmuvudr" class="animable"></polygon><polygon points="408.54 171.3 413.24 168.59 413.24 136 408.54 138.71 408.54 171.3" style="fill: rgb(224, 224, 224); transform-origin: 410.89px 153.65px;" id="eliv1jlgvlj8k" class="animable"></polygon><polygon points="416.77 166.55 421.48 163.84 421.48 131.24 416.77 133.96 416.77 166.55" style="fill: rgb(224, 224, 224); transform-origin: 419.125px 148.895px;" id="elwb3h9tdrma" class="animable"></polygon><polygon points="425 161.8 429.71 159.08 429.71 126.49 425 129.21 425 161.8" style="fill: rgb(224, 224, 224); transform-origin: 427.355px 144.145px;" id="elo83wjqak26n" class="animable"></polygon><polygon points="433.24 157.04 437.94 154.33 437.94 121.74 433.24 124.45 433.24 157.04" style="fill: rgb(224, 224, 224); transform-origin: 435.59px 139.39px;" id="el4atye2frq12" class="animable"></polygon><polygon points="400.31 171.3 395.6 168.59 395.6 136 400.31 138.71 400.31 171.3" style="fill: rgb(235, 235, 235); transform-origin: 397.955px 153.65px;" id="el0ugfgkg5cdk" class="animable"></polygon><polygon points="392.07 166.55 387.37 163.84 387.37 131.24 392.07 133.96 392.07 166.55" style="fill: rgb(235, 235, 235); transform-origin: 389.72px 148.895px;" id="el0m9rb932kx5f" class="animable"></polygon><polygon points="383.84 161.8 379.14 159.08 379.14 126.49 383.84 129.21 383.84 161.8" style="fill: rgb(235, 235, 235); transform-origin: 381.49px 144.145px;" id="elaleyxxeerh" class="animable"></polygon><polygon points="375.61 157.04 370.9 154.33 370.9 121.74 375.61 124.45 375.61 157.04" style="fill: rgb(235, 235, 235); transform-origin: 373.255px 139.39px;" id="elghsdehttkmc" class="animable"></polygon><polygon points="407.95 122.76 412.65 120.04 412.66 98.31 407.95 101.03 407.95 122.76" style="fill: rgb(224, 224, 224); transform-origin: 410.305px 110.535px;" id="el7qrvarppr5o" class="animable"></polygon><polygon points="416.18 118 420.89 115.29 420.89 93.56 416.18 96.28 416.18 118" style="fill: rgb(224, 224, 224); transform-origin: 418.535px 105.78px;" id="elth0imovzmt" class="animable"></polygon><polygon points="424.42 113.25 429.12 110.53 429.12 88.81 424.42 91.52 424.42 113.25" style="fill: rgb(224, 224, 224); transform-origin: 426.77px 101.03px;" id="elgetdq64j76k" class="animable"></polygon><polygon points="400.89 122.76 396.19 120.04 396.19 98.31 400.89 101.03 400.89 122.76" style="fill: rgb(235, 235, 235); transform-origin: 398.54px 110.535px;" id="elzl0v6euinl" class="animable"></polygon><polygon points="392.66 118 387.96 115.29 387.96 93.56 392.66 96.28 392.66 118" style="fill: rgb(235, 235, 235); transform-origin: 390.31px 105.78px;" id="el6vs9xtz7dds" class="animable"></polygon><polygon points="384.43 113.25 379.73 110.53 379.73 88.81 384.43 91.52 384.43 113.25" style="fill: rgb(235, 235, 235); transform-origin: 382.08px 101.03px;" id="ely6qan4zw23" class="animable"></polygon><polygon points="277.19 254.39 263.97 246.75 263.97 89.16 277.19 96.79 277.19 254.39" style="fill: rgb(245, 245, 245); transform-origin: 270.58px 171.775px;" id="elmc70scntata" class="animable"></polygon><polygon points="263.97 89.16 286.01 76.44 299.23 84.07 277.19 96.79 263.97 89.16" style="fill: rgb(235, 235, 235); transform-origin: 281.6px 86.615px;" id="elokg5ryp9wxf" class="animable"></polygon><polygon points="321.26 279.83 308.04 272.2 308.04 114.61 321.26 122.24 321.26 279.83" style="fill: rgb(250, 250, 250); transform-origin: 314.65px 197.22px;" id="elst72p37jkci" class="animable"></polygon><polygon points="303.63 274.75 272.78 256.93 272.78 78.98 303.64 96.79 303.63 274.75" style="fill: rgb(250, 250, 250); transform-origin: 288.21px 176.865px;" id="el8p6t2lcw4sp" class="animable"></polygon><polygon points="321.26 279.83 343.3 267.11 343.3 109.52 321.26 122.24 321.26 279.83" style="fill: rgb(240, 240, 240); transform-origin: 332.28px 194.675px;" id="eldp65ztubehl" class="animable"></polygon><polygon points="325.67 272.2 325.67 124.78 330.08 122.24 330.08 269.66 325.67 272.2" style="fill: rgb(224, 224, 224); transform-origin: 327.875px 197.22px;" id="ell7c0celne8" class="animable"></polygon><polygon points="316.86 272.2 316.86 124.78 312.45 122.24 312.45 269.66 316.86 272.2" style="fill: rgb(235, 235, 235); transform-origin: 314.655px 197.22px;" id="elrcc8oh1u7x9" class="animable"></polygon><polygon points="271.02 245.59 271.02 98.17 266.62 95.63 266.62 243.04 271.02 245.59" style="fill: rgb(250, 250, 250); transform-origin: 268.82px 170.61px;" id="elg48jz9lso67" class="animable"></polygon><polygon points="271.02 245.59 271.02 98.17 266.62 95.63 266.62 243.04 271.02 245.59" style="fill: rgb(230, 230, 230); transform-origin: 268.82px 170.61px;" id="el72qenirmc6v" class="animable"></polygon><polygon points="334.49 267.11 334.49 119.69 338.89 117.15 338.89 264.57 334.49 267.11" style="fill: rgb(224, 224, 224); transform-origin: 336.69px 192.13px;" id="elmd26r6i764d" class="animable"></polygon><polygon points="308.04 114.61 330.08 101.88 343.3 109.52 321.26 122.24 308.04 114.61" style="fill: rgb(235, 235, 235); transform-origin: 325.67px 112.06px;" id="el6zu08ga7gy" class="animable"></polygon><polygon points="308.04 272.2 303.63 274.75 303.63 96.79 330.08 81.52 330.08 101.88 308.04 114.61 308.04 272.2" style="fill: rgb(240, 240, 240); transform-origin: 316.855px 178.135px;" id="elcajnodrxt3j" class="animable"></polygon><polygon points="272.78 78.98 299.23 63.71 330.08 81.52 303.63 96.79 272.78 78.98" style="fill: rgb(235, 235, 235); transform-origin: 301.43px 80.25px;" id="elds6ea3wnq95" class="animable"></polygon><polygon points="299.23 267.18 299.23 101.1 294.82 98.56 294.82 264.63 299.23 267.18" style="fill: rgb(235, 235, 235); transform-origin: 297.025px 182.87px;" id="el4q1n6dcxbnw" class="animable"></polygon><polygon points="290.41 262.09 290.41 96.01 286 93.47 286.01 259.55 290.41 262.09" style="fill: rgb(235, 235, 235); transform-origin: 288.205px 177.78px;" id="el71d017zd42k" class="animable"></polygon><polygon points="281.6 257 281.6 90.92 277.19 88.38 277.19 254.46 281.6 257" style="fill: rgb(235, 235, 235); transform-origin: 279.395px 172.69px;" id="elqk46pw5psg" class="animable"></polygon><polygon points="97.98 322.74 97.98 186.41 55.23 161.72 55.23 298.06 97.98 322.74" style="fill: rgb(240, 240, 240); transform-origin: 76.605px 242.23px;" id="elshwwnsy7z" class="animable"></polygon><polygon points="97.98 186.41 140.73 161.72 140.73 298.05 97.98 322.74 97.98 186.41" style="fill: rgb(250, 250, 250); transform-origin: 119.355px 242.23px;" id="el2nbo7szgezp" class="animable"></polygon><polygon points="59.5 169.13 63.78 171.6 63.78 298.06 59.5 295.59 59.5 169.13" style="fill: rgb(224, 224, 224); transform-origin: 61.64px 233.595px;" id="elv44vjd1jp3" class="animable"></polygon><polygon points="69.48 174.89 73.75 177.36 73.75 303.82 69.48 301.35 69.48 174.89" style="fill: rgb(224, 224, 224); transform-origin: 71.615px 239.355px;" id="elw1pqgaf8rcd" class="animable"></polygon><polygon points="79.45 180.65 83.73 183.12 83.73 309.58 79.45 307.11 79.45 180.65" style="fill: rgb(224, 224, 224); transform-origin: 81.59px 245.115px;" id="el01o438n8yysr" class="animable"></polygon><polygon points="89.43 186.41 93.7 188.88 93.7 315.34 89.43 312.87 89.43 186.41" style="fill: rgb(224, 224, 224); transform-origin: 91.565px 250.875px;" id="elngeryb4kxj" class="animable"></polygon><polygon points="136.46 169.13 132.18 171.6 132.18 298.06 136.46 295.59 136.46 169.13" style="fill: rgb(235, 235, 235); transform-origin: 134.32px 233.595px;" id="el5myrlbfiz77" class="animable"></polygon><polygon points="126.48 174.89 122.21 177.36 122.21 303.82 126.48 301.35 126.48 174.89" style="fill: rgb(235, 235, 235); transform-origin: 124.345px 239.355px;" id="elurvxw94u0rd" class="animable"></polygon><polygon points="116.51 180.65 112.23 183.12 112.23 309.58 116.51 307.11 116.51 180.65" style="fill: rgb(235, 235, 235); transform-origin: 114.37px 245.115px;" id="el2sbyu1n9srv" class="animable"></polygon><polygon points="106.53 186.41 102.26 188.88 102.25 315.34 106.53 312.87 106.53 186.41" style="fill: rgb(235, 235, 235); transform-origin: 104.39px 250.875px;" id="elmqtd61qgmap" class="animable"></polygon><polygon points="140.73 161.72 97.98 137.04 55.23 161.72 97.98 186.41 140.73 161.72" style="fill: rgb(235, 235, 235); transform-origin: 97.98px 161.725px;" id="eloudhxobdsah" class="animable"></polygon><polygon points="97.98 181.47 97.98 112.21 63.77 91.99 63.77 161.72 97.98 181.47" style="fill: rgb(240, 240, 240); transform-origin: 80.875px 136.73px;" id="elhs3xybhsq9" class="animable"></polygon><polygon points="97.98 181.47 97.98 112.21 132.18 91.99 132.18 161.73 97.98 181.47" style="fill: rgb(250, 250, 250); transform-origin: 115.08px 136.73px;" id="elm668dl9vk0l" class="animable"></polygon><polygon points="68.05 99.63 72.33 102.1 72.33 161.72 68.05 159.26 68.05 99.63" style="fill: rgb(224, 224, 224); transform-origin: 70.19px 130.675px;" id="elmbb6bib16mr" class="animable"></polygon><polygon points="78.74 105.8 83.01 108.27 83.02 167.9 78.74 165.43 78.74 105.8" style="fill: rgb(224, 224, 224); transform-origin: 80.88px 136.85px;" id="eldyigm1rjcfn" class="animable"></polygon><polygon points="89.43 111.97 93.7 114.44 93.7 174.07 89.43 171.6 89.43 111.97" style="fill: rgb(224, 224, 224); transform-origin: 91.565px 143.02px;" id="elcmtkjxkduo8" class="animable"></polygon><polygon points="127.91 99.63 123.63 102.1 123.63 161.72 127.91 159.26 127.91 99.63" style="fill: rgb(235, 235, 235); transform-origin: 125.77px 130.675px;" id="el9grq7iectrp" class="animable"></polygon><polygon points="117.22 105.8 112.94 108.27 112.94 167.9 117.22 165.43 117.22 105.8" style="fill: rgb(235, 235, 235); transform-origin: 115.08px 136.85px;" id="el6ap5tbsbku" class="animable"></polygon><polygon points="106.53 111.97 102.26 114.44 102.25 174.07 106.53 171.6 106.53 111.97" style="fill: rgb(235, 235, 235); transform-origin: 104.39px 143.02px;" id="eleqmtg4wf6y" class="animable"></polygon><polygon points="132.18 91.99 97.98 72.48 63.77 91.99 97.98 112.21 132.18 91.99" style="fill: rgb(235, 235, 235); transform-origin: 97.975px 92.345px;" id="elckmb8ad89p9" class="animable"></polygon><polygon points="97.98 104.57 97.98 89.76 119.36 77.42 119.36 92.22 97.98 104.57" style="fill: rgb(250, 250, 250); transform-origin: 108.67px 90.995px;" id="ell2h2etdlgv" class="animable"></polygon><polygon points="76.6 92.22 76.6 77.42 97.98 89.76 97.98 104.57 76.6 92.22" style="fill: rgb(240, 240, 240); transform-origin: 87.29px 90.995px;" id="elwrjgzvsfcko" class="animable"></polygon><polygon points="119.36 77.42 97.98 65.07 76.6 77.42 97.98 89.76 119.36 77.42" style="fill: rgb(235, 235, 235); transform-origin: 97.98px 77.415px;" id="eltqs84qz9n3p" class="animable"></polygon></g><g id="freepik--character-2--inject-38" class="animable" style="transform-origin: 353.152px 255.5px;"><g id="freepik--Character--inject-38" class="animable" style="transform-origin: 353.152px 255.5px;"><path d="M302.86,144.69c0,8.52,3.07,29.34,26.66,38.79,18.26,7.32,35.14-2,39.15-5.82,5-4.81,10.48-15.19,2.81-23.45-8.52-9.16-19.33,4.09-31.21-4.05C326.55,140.75,302.86,144.69,302.86,144.69Z" style="fill: rgb(38, 50, 56); transform-origin: 339.073px 165.039px;" id="elithl1wtf1e9" class="animable"></path><path d="M329.85,170.17c.82-.18.78-.78,2.14-1.08,14.09-3.07,23.37,10.28,33.21,21.48,9.53,10.84,46.47,38.23,64,34.46-.85,12.32-16.35,25.2-35.2,23.16,0,0-3.57,8.46-21.17,12.72-14.39,3.49-29.92-6.67-46-17.25-21-13.83-29.37-33.54-27.15-50.92,1.47-11.56,9.43-17.07,17.72-21C325,168.14,329.85,170.17,329.85,170.17Z" style="fill: rgb(107, 124, 133); transform-origin: 364.267px 215.126px;" id="elu7lqvraf43q" class="animable"></path><g id="elp5bubklz3vh"><path d="M390.79,252.26a14,14,0,0,0,3.21-4.07c-18.12-4.25-40.64-24.65-40.64-24.65S363,242.1,390.79,252.26Z" style="opacity: 0.1; transform-origin: 373.68px 237.9px;" class="animable"></path></g><g id="eljl858i4etco"><path d="M365.2,190.57c-8.35-9.51-16.31-20.56-27.14-21.8,5.69,1.72,17.8,14.86,27.91,27.61C378.35,212,414.18,233.67,429.2,225,411.67,228.8,374.73,201.41,365.2,190.57Z" style="fill: rgb(255, 255, 255); opacity: 0.5; transform-origin: 383.63px 197.875px;" class="animable"></path></g><path d="M331.25,170.11c5.73,0,9.44,1.82,11.43,4.69,4.3,6.2,18.63,27,19.56,29.95s-18.8,24.95-18.8,24.95l-6-6,11.47-17.68L332,187.66Z" style="fill: rgb(177, 102, 104); transform-origin: 346.761px 199.905px;" id="ela90b2uaislf" class="animable"></path><path d="M343.44,222.59c8.94,10.55,24.81,27.52,29.39,38.32,1.76,4.16-40.17,48.84-40.17,48.84-1.74-.33-3.76-4.67-3.61-8.77,12.74-6.44,17.71-21.65,29-25.81-7-5.91-17.25-15.43-31.26-27.93Z" style="fill: rgb(55, 71, 79); transform-origin: 349.837px 266.17px;" id="elt0fzpd6chsi" class="animable"></path><path d="M355.35,272.81h0l-18.68-24.43c9-9.8,6.77-25.79,6.77-25.79l-16.61,24.65C339.11,258.2,348.53,266.86,355.35,272.81Z" style="fill: rgb(38, 50, 56); transform-origin: 341.09px 247.7px;" id="el1fq9ivnwfja" class="animable"></path><path d="M372.83,260.91c-2.19,1.42-8.25,5.08-17.48,11.9-8.72,6.45-21.38,24.51-35.14,34a10.23,10.23,0,0,0,5.55,7.78s40.1-25.33,50.4-34.1C380.71,276.64,372.83,260.91,372.83,260.91Z" style="fill: rgb(55, 71, 79); transform-origin: 348.892px 287.75px;" id="elcjufsqjkazp" class="animable"></path><path d="M339.76,288.57c-.74-1.64-3,1.84-5.95,4.79-4.81,4.76-9.29,9.91-13.94,12.74C316.8,308,316,307.55,314,310c-2.77,3.51,1.16,7,4.31,11.87,2.22,3.45,2.75,10.19,4.47,13.15s5.81,6.45,9.17,4.65c1.56-.84-3.05-17.47-2.34-22.27s1.73-6,5.93-8.61c6.64-4.09,15.83-8,14.28-9.75a8.72,8.72,0,0,1-7-2.71C338.06,291.1,339.76,288.57,339.76,288.57Z" style="fill: rgb(107, 124, 133); transform-origin: 331.527px 314.156px;" id="el31jc62x8qd" class="animable"></path><path d="M325.74,163.83H322a19.13,19.13,0,0,1-19.13-19.14h0a20.41,20.41,0,0,1,20.41-20.41h1.19c13.91,0,21.79,9.14,21.79,20.41h0C346.25,155.26,336.31,163.83,325.74,163.83Z" style="fill: rgb(38, 50, 56); transform-origin: 324.565px 144.055px;" id="elaqhhc5fkudr" class="animable"></path><path d="M305.56,129.67a2.75,2.75,0,0,1,2.16,3.24l-5.39-1.08A2.75,2.75,0,0,1,305.56,129.67Z" style="fill: rgb(38, 50, 56); transform-origin: 305.052px 131.264px;" id="elzskp9zrtybj" class="animable"></path><path d="M309.08,128.5a2.74,2.74,0,0,1-1.76,3.46l-1.7-5.23A2.75,2.75,0,0,1,309.08,128.5Z" style="fill: rgb(38, 50, 56); transform-origin: 307.418px 129.279px;" id="elnxwop0521r" class="animable"></path><path d="M303.75,226.1c-7.33,16,3,61.82,3,61.82-.22,2.6-4,7.65-4.29,19.13-.25,10.85,3.92,33.38,5.17,49.38a10.23,10.23,0,0,0,9.55.38s5.87-53,7.56-66.46c1.48-11.71,5.44-40.12,5.44-40.12l13.25-27.64Z" style="fill: rgb(55, 71, 79); transform-origin: 322.276px 290.201px;" id="eldz236e68l8d" class="animable"></path><path d="M304.62,330.81c-1.15.7-.49,1.81,0,6.41s2.61,14.81,3,19.21-2.84,15.69-2.86,18.64,5.31,11.65,9.08,11.65c2.42,0,5.69-5.5,5.88-7.76.49-6-3-17.85-2.55-22.15s2.64-17.29,3-19.59c.73-4.52,1.14-6.41-.11-6.41,0,0-1.43,2.5-7.63,2.83S304.62,330.81,304.62,330.81Z" style="fill: rgb(107, 124, 133); transform-origin: 312.422px 358.765px;" id="elajgskvp4agr" class="animable"></path><path d="M342.07,198.9c5.52-5.91,5.9-10.17,3.53-14.51-4.92-9-12.87-14-14.35-14.28l-11.9.23-9.88.46c-1.35.43-5,3.83-6.4,9a23.22,23.22,0,0,0,.75,12.94L312,211.7h0c-1.15,6.65-10,12.47-10,20.53,23.87.62,28.23,18,28.23,18,14.36-9.55,13.23-26.47,13.23-26.47C344.05,215.84,341.67,206.18,342.07,198.9Z" style="fill: rgb(69, 90, 100); transform-origin: 324.49px 210.17px;" id="elf6mio44w7gd" class="animable"></path><path d="M317.94,212c-1.79-1.79-5.44-4.39-9.75-16.94-.91-2.66.45-8.81,1.84-12.18l-7.16-2.09a23.74,23.74,0,0,0,.95,12L312,211.7h0c-1.14,6.59-9.86,12.36-10,20.31l.12.23a36,36,0,0,1,15.53,3.64,1.38,1.38,0,0,0-1-1.57,63,63,0,0,1-6.08-3c2.14,0,2.35-2.6,2.35-2.6l-2.82-.26s-.58-6.45,2.4-9.55S318.61,212.63,317.94,212Z" style="fill: rgb(55, 71, 79); transform-origin: 310.016px 208.335px;" id="elg4xa7wbjwgc" class="animable"></path><path d="M338,132.78c2.22,1.31,5,6.89,4.69,18.59-.23,9.92-3.44,12.37-5.05,13.08s-4.73.27-7.76-.23v5.95c.12-.15,6.16,5.15,5.54,8.37-.52,2.69-7.66,2.59-11.57-.08a25.29,25.29,0,0,1-6.42-6.72V158.56a6,6,0,0,1-5.39-.7c-3.36-2.18-3.47-7.71-1.52-9.68s6.13-1.35,6.91,1.38c0,0,4.82.17,11.25-3.36A18,18,0,0,0,338,132.78Z" style="fill: rgb(177, 102, 104); transform-origin: 325.978px 156.645px;" id="ellmlxg72l7bh" class="animable"></path><polygon points="335.35 147.27 335.55 154.77 339.5 153.55 335.35 147.27" style="fill: rgb(154, 74, 77); transform-origin: 337.425px 151.02px;" id="elaepe1xq7pbe" class="animable"></polygon><path d="M331.92,157.29l2.9.92a1.49,1.49,0,0,1-1.88,1A1.59,1.59,0,0,1,331.92,157.29Z" style="fill: rgb(154, 74, 77); transform-origin: 333.342px 158.285px;" id="elbnhoolcl45i" class="animable"></path><path d="M342.67,143.44l-3-.45a1.46,1.46,0,0,1,1.68-1.31A1.6,1.6,0,0,1,342.67,143.44Z" style="fill: rgb(38, 50, 56); transform-origin: 341.175px 142.551px;" id="eln7c16heyocq" class="animable"></path><path d="M317.4,149.56a3.59,3.59,0,0,0-2.79-2.4,29.15,29.15,0,0,1,11.34-3.1c6.25-.19,7.19,1.87,9.89,1.82s3.52-1.8,6.53-2a15.51,15.51,0,0,1,.31,7.94s-2.48,1.11-5.42-1.65l-.71-1.07a6.6,6.6,0,0,0-2.17,1.69,10.56,10.56,0,0,1-8.25,2.19A18.13,18.13,0,0,1,317.4,149.56Z" style="fill: rgb(69, 90, 100); transform-origin: 328.832px 148.495px;" id="elnqhsb913zde" class="animable"></path><path d="M327.38,148.28a2.94,2.94,0,0,1,3.09-1.26,2.33,2.33,0,0,1,1.85,1.85,3,3,0,0,1-2.9,1.13A2.54,2.54,0,0,1,327.38,148.28Z" style="fill: rgb(245, 245, 245); transform-origin: 329.85px 148.498px;" id="elc63zvcaudbt" class="animable"></path><path d="M338.48,148.86a2.42,2.42,0,0,1,1-1.57,2.45,2.45,0,0,1,2.65.21,2,2,0,0,1-1.39,2.09A2.21,2.21,0,0,1,338.48,148.86Z" style="fill: rgb(245, 245, 245); transform-origin: 340.309px 148.329px;" id="el1dxwsmdvzx" class="animable"></path><path d="M329.85,164.22c-3.19-.42-9.75-2.31-10.77-4.9a6.71,6.71,0,0,0,2.3,3.31c2,1.68,8.47,3.57,8.47,3.57Z" style="fill: rgb(154, 74, 77); transform-origin: 324.465px 162.76px;" id="els04oqc75jz" class="animable"></path><path d="M290,207.86l13.87-15.08a41.6,41.6,0,0,0,4.47-6c3.12-4.83,3.26-13.17,1.18-16-5.39,0-8.81,1.11-15.64,10.51-5.78,7.95-12.81,17.63-14.65,20.75-2.27,3.83-2.93,4.88-.95,8.67s9.38,13.51,15.62,20.82,9.9,9.78,14.57,10.87,6.75.16,9.38-2.25.77-4.58-1.67-5.14a19.79,19.79,0,0,1-6.54-2.68c-1.49-1.07-2-1.91-.57-2,1.78-.08,3.45-.43,3.9-1.68.57-1.55-.89-1.14-2.93-1.76a39,39,0,0,0-8.08-1.55c-3.34.16-12-17.53-12-17.53" style="fill: rgb(177, 102, 104); transform-origin: 298.117px 206.816px;" id="elv8qzw42n5k" class="animable"></path><path d="M306.91,170.93c2.56-.13,7.2,5.65,9.48,6.53s4.82-2.66,1-7A17.94,17.94,0,0,0,306.91,170.93Z" style="fill: rgb(107, 124, 133); transform-origin: 313.132px 173.745px;" id="el7vj1gumxnpl" class="animable"></path><g id="elg4y6b15pl9c"><path d="M306.91,170.93c2.56-.13,7.2,5.65,9.48,6.53s4.82-2.66,1-7A17.94,17.94,0,0,0,306.91,170.93Z" style="fill: rgb(255, 255, 255); opacity: 0.5; transform-origin: 313.132px 173.745px;" class="animable"></path></g><path d="M329.85,170.17s1.76-2.21,5.62-.3a11.28,11.28,0,0,1,1.83,3.26c.78,2.6.34,3.47-.85,3.47-1.75,0-2.52-1.84-3.94-3.52A23.46,23.46,0,0,0,329.85,170.17Z" style="fill: rgb(107, 124, 133); transform-origin: 333.77px 172.846px;" id="el9y1dyqgr55w" class="animable"></path><g id="el5djobrgyxjw"><path d="M329.85,170.17s1.76-2.21,5.62-.3a11.28,11.28,0,0,1,1.83,3.26c.78,2.6.34,3.47-.85,3.47-1.75,0-2.52-1.84-3.94-3.52A23.46,23.46,0,0,0,329.85,170.17Z" style="fill: rgb(255, 255, 255); opacity: 0.5; transform-origin: 333.77px 172.846px;" class="animable"></path></g></g></g><g id="freepik--character-1--inject-38" class="animable" style="transform-origin: 155.639px 282.019px;"><path d="M185.66,193.37s-3.22-2.34-11.71-.75-18.54,8.11-27,27.63-21.19,43-39.6,53.41c-11.25,6.35-25.89,7.47-39,6.15a41.46,41.46,0,0,0,11.34,29.07C95.36,325.14,113.92,323,113.92,323s7.2,9,21.34,11.85a57.07,57.07,0,0,0,25.27-.53s11.38,2.54,19.78.53c16.72-4,21.44-15.34,21.21-15.63s7.95-124,7.95-124Z" style="fill: rgb(107, 124, 133); transform-origin: 138.908px 264.04px;" id="elq02zo2304cm" class="animable"></path><g id="el2uwex57qavg"><path d="M164.06,273.84c-6.42,18.19-32.34,45.9-50.14,49.19a31.85,31.85,0,0,0,6.25,5.48C152.17,316.75,164.06,273.84,164.06,273.84Z" style="opacity: 0.1; transform-origin: 138.99px 301.175px;" class="animable"></path></g><g id="elttfxdirnnp"><path d="M201.52,319.25c-.15-.18,3.4-54.75,5.8-91.43-4.85-2.49-8.91,1.82-11,18.23-9.76,78.06-35.82,88.3-35.82,88.3s11.38,2.54,19.78.53C197,330.89,201.75,319.54,201.52,319.25Z" style="opacity: 0.1; transform-origin: 183.91px 281.41px;" class="animable"></path></g><g id="ely2bjzjw4rf"><path d="M174,192.62c-8.49,1.58-18.54,8.11-27,27.63s-21.19,43-39.6,53.41c-11.25,6.35-25.89,7.47-39,6.15,0,0,18.12,11.32,42.62,0s36-44.71,40.45-58.08,19.15-31.11,34.26-28.36l-.37-.21C184.23,192.62,180.82,191.33,174,192.62Z" style="fill: rgb(255, 255, 255); opacity: 0.5; transform-origin: 127.065px 238.453px;" class="animable"></path></g><path d="M183.74,193.54c-12-.09-16.56,5.16-18.55,8-4.29,6.2-15.76,30.68-16.7,33.63s22.45,28.69,22.45,28.69l6-6-12.9-23.33,13.77-20.46Z" style="fill: rgb(55, 71, 79); transform-origin: 166.101px 228.699px;" id="elwxljzdn8lg" class="animable"></path><g id="freepik--character--inject-38" class="animable" style="transform-origin: 184.591px 282.019px;"><rect x="204.98" y="388.4" width="9.14" height="13.31" style="fill: rgb(255, 168, 167); transform-origin: 209.55px 395.055px;" id="elwbh7vycsope" class="animable"></rect><g id="elsp5icbjgupc"><rect x="173.07" y="372.08" width="9.14" height="13.31" style="fill: rgb(255, 168, 167); transform-origin: 177.64px 378.735px; transform: rotate(-1.97deg);" class="animable"></rect></g><path d="M213.52,254.22c-.06,4,1.45,11.16,1.69,19.62.64,22.2-.56,52.69-.56,52.69.21,2.51,2.57,7.14,2.06,16.79-.69,13.1-1.83,46.62-1.83,46.62s-4.28,4.25-10.33,0c0,0-8.28-46.58-9.91-59.56-1.43-11.33-3.86-49.25-3.86-49.25l-3.4,44.18s.24,8.42.57,14.43-5.37,37.15-5.37,37.15a10,10,0,0,1-9.94.38s-3.53-47.14-4.47-52.57,2.61-70.48,2.61-70.48Z" style="fill: rgb(55, 71, 79); transform-origin: 192.397px 323.024px;" id="elx6hukvwzb9" class="animable"></path><path d="M199.77,193.78a107.49,107.49,0,0,1,11.66,1.47,18,18,0,0,1,3,1.15,51.46,51.46,0,0,1,2.3,28,182.2,182.2,0,0,0-3.2,35.65c-5.23,6.82-31.84,9.15-43.15-.06,0,0,.31-11.36-.52-23.5-.72-10.74-2.59-20.47-1.9-25.44,1.57-11.36,6.73-17.07,17.65-17.71Z" style="fill: rgb(69, 90, 100); transform-origin: 192.755px 229.701px;" id="el9eyy5u85mc" class="animable"></path><path d="M190.78,281.13s-8.26-1.07-20.7-13.58l.41-11.9s14.71,7.77,43.13-.65l1,10.42S200.28,264.19,190.78,281.13Z" style="fill: rgb(107, 124, 133); transform-origin: 192.35px 268.065px;" id="el9z22fjpqqy" class="animable"></path><g id="eleto1d258nf"><path d="M190.78,281.13s-8.26-1.07-20.7-13.58l.41-11.9s14.71,7.77,43.13-.65l1,10.42S200.28,264.19,190.78,281.13Z" style="opacity: 0.3; transform-origin: 192.35px 268.065px;" class="animable"></path></g><path d="M202.84,157.36a4.87,4.87,0,0,1,4,1.41c1.73,1.77,1.37,5,0,12.58l-5.35.61Z" style="fill: rgb(38, 50, 56); transform-origin: 204.748px 164.645px;" id="eldyhzkt41jj7" class="animable"></path><path d="M171.66,155.18a8.42,8.42,0,0,1-3.35-.68c-1.64-.94-2.07.92-1.17,2.54a7.64,7.64,0,0,0,6.21,4.13c.05-.23,1.53-4.17,1.53-4.17Z" style="fill: rgb(38, 50, 56); transform-origin: 170.779px 157.708px;" id="el8acfxs5e4r" class="animable"></path><path d="M200.33,172c.8.48,1.93-1.05,2.91-2.07s4.18-2.43,5.77.93-1.41,8-3.92,8.74c-4.34,1.36-5-1.42-5-1.42l-.33,15.64s-2.84,6.95-10.53,8-6.11-5.3-3.58-8.41v-4.76a27.12,27.12,0,0,1-5.85.3c-3.19-.49-5.2-3-6.16-6.46-1.56-5.55-2.15-10-.83-20.93,1.45-12,15.35-12.08,22.86-7.35S200.33,172,200.33,172Z" style="fill: rgb(255, 168, 167); transform-origin: 190.768px 176.614px;" id="elia38x1xich" class="animable"></path><path d="M200.33,173.3c.4,0,1.92-2.51,2.91-3.41,1.37-1.25-.4-12.53-.4-12.53s1.39-4.29-1.32-7.12-8-2.36-11.79-2.5A34.69,34.69,0,0,1,176,145c-5.45-2.37-5.85-2.65-6.53-.26s-.93,7.87,2.32,11.55l2.71,1s1.46,1.3,6.54,1.91a74.88,74.88,0,0,0,14.07-.26c1.48-.2,1.79,1.22,2.59,5.12C198.41,167.47,199,173.27,200.33,173.3Z" style="fill: rgb(38, 50, 56); transform-origin: 186.403px 158.19px;" id="el52zalb95syq" class="animable"></path><path d="M202.83,158.23l4.81-2.57a2.65,2.65,0,0,0-3.64-1.21A2.88,2.88,0,0,0,202.83,158.23Z" style="fill: rgb(38, 50, 56); transform-origin: 205.087px 156.185px;" id="elcfwopug7iqs" class="animable"></path><path d="M185.67,188.61s7.12-1.43,9.61-2.76a8.26,8.26,0,0,0,3.44-3.4,11.22,11.22,0,0,1-2,4c-1.82,2.33-11.09,4-11.09,4Z" style="fill: rgb(242, 143, 143); transform-origin: 192.175px 186.45px;" id="elvod6tty480b" class="animable"></path><path d="M188.88,164.49l3.41.74a1.82,1.82,0,0,0-1.38-2.12A1.7,1.7,0,0,0,188.88,164.49Z" style="fill: rgb(38, 50, 56); transform-origin: 190.602px 164.151px;" id="ely0byp50f1mo" class="animable"></path><path d="M186.31,180l-3.25,1.22a1.71,1.71,0,0,0,2.21,1.08A1.82,1.82,0,0,0,186.31,180Z" style="fill: rgb(242, 143, 143); transform-origin: 184.738px 181.201px;" id="eld25bacuhuf" class="animable"></path><path d="M173.65,165.35l3.29-1.23a1.69,1.69,0,0,0-2.2-1.06A1.83,1.83,0,0,0,173.65,165.35Z" style="fill: rgb(38, 50, 56); transform-origin: 175.248px 164.151px;" id="eldza7tptwvo" class="animable"></path><polygon points="182.78 168.42 182.31 177 177.83 175.48 182.78 168.42" style="fill: rgb(242, 143, 143); transform-origin: 180.305px 172.71px;" id="elp2xmyelgl8g" class="animable"></polygon><path d="M201.52,172a20.83,20.83,0,0,1,2.24-2.5,34.57,34.57,0,0,0-12.37-3.29c-6.25-.18-7.19,1.88-9.89,1.82s-4.11-1.83-6.62-1.68c-2.08.12-2.61,1-2.61,1a10.59,10.59,0,0,0-.17,5.41,6.34,6.34,0,0,0,2.55,1.22,7.19,7.19,0,0,0,5.43-1.65l.71-1A5.86,5.86,0,0,1,183,172.9a10.55,10.55,0,0,0,8.25,2.18A37.18,37.18,0,0,0,201.52,172Z" style="fill: rgb(69, 90, 100); transform-origin: 187.794px 170.705px;" id="el7bvjhsmqnqa" class="animable"></path><path d="M191.84,170.07a3.16,3.16,0,0,0-3.31-1.35,2.41,2.41,0,0,0-1.89,2.1,3.09,3.09,0,0,0,3,1.1A2.77,2.77,0,0,0,191.84,170.07Z" style="fill: rgb(245, 245, 245); transform-origin: 189.24px 170.312px;" id="el6ihm39uoypm" class="animable"></path><path d="M178.37,170.46a2.65,2.65,0,0,0-1.79-2,3,3,0,0,0-2.63.94,2.36,2.36,0,0,0,1.77,2A2.58,2.58,0,0,0,178.37,170.46Z" style="fill: rgb(245, 245, 245); transform-origin: 176.16px 169.951px;" id="eln1fcc9oqlom" class="animable"></path><path d="M216.55,371.19c.23-4,.59-4.87-.81-5.17l-.06,1.71s-1.13,2.4-7.51,2.52-7.45-2.26-7.45-2.26l-.32-1.83c-1.36.46-.75,1.81,0,6,.74,4,3.92,20,3.55,22.87s-2.94,7.48-3.09,7.76a23,23,0,0,1-3.72,4.9c-2.88,2.63-7.06,5.72-8.06,8.65s6.21,5,8.9,4.56c3.13-.55,8.55-2.76,9.91-4.8s2-5.06,3.11-6.55,4.44-3.91,5-5.64a6.8,6.8,0,0,0-.11-3h0c-.09-.48-.2-1-.31-1.43-.37-1.89-.56-4.38-.2-11.13C215.92,379.86,216.42,373.39,216.55,371.19Z" style="fill: rgb(107, 124, 133); transform-origin: 202.877px 393.489px;" id="elofyvp88cur" class="animable"></path><g id="ellwk2dgd7lb8"><path d="M216.55,371.19c.23-4,.59-4.87-.81-5.17l-.06,1.71s-1.13,2.4-7.51,2.52-7.45-2.26-7.45-2.26l-.32-1.83c-1.36.46-.75,1.81,0,6,.74,4,3.92,20,3.55,22.87s-2.94,7.48-3.09,7.76a23,23,0,0,1-3.72,4.9c-2.88,2.63-7.06,5.72-8.06,8.65s6.21,5,8.9,4.56c3.13-.55,8.55-2.76,9.91-4.8s2-5.06,3.11-6.55,4.44-3.91,5-5.64a6.8,6.8,0,0,0-.11-3h0c-.09-.48-.2-1-.31-1.43-.37-1.89-.56-4.38-.2-11.13C215.92,379.86,216.42,373.39,216.55,371.19Z" style="opacity: 0.3; transform-origin: 202.877px 393.489px;" class="animable"></path></g><path d="M186.15,360.62c.56-3.7,1.24-4.55,0-4.88l-.21,1.38s-1.61,1.58-7.23,1.58c-6.08,0-7.64-1.79-7.64-1.79l-.1-1.17c-1.38.2-1.19,1.24-.73,5.24.2,1.69,1.59,12.77,1.69,17.75s-2.32,6.56-3.92,8.48a21.87,21.87,0,0,1-2.08,1.2c-3.43,1.71-10.08,4.35-13.09,5.7-1.88.85-1.79,3.12.15,4.42s6.64,2.22,12.28,1c3.07-.69,7.06-3.52,9.59-3.37s7.27.12,9.14-1.17,1.12-4,.59-6.4h0a69.33,69.33,0,0,1-1-11C183.68,375,185.59,364.33,186.15,360.62Z" style="fill: rgb(107, 124, 133); transform-origin: 169.164px 377.921px;" id="elgvs3vddqly" class="animable"></path><g id="elxvc65m6x63s"><path d="M186.15,360.62c.56-3.7,1.24-4.55,0-4.88l-.21,1.38s-1.61,1.58-7.23,1.58c-6.08,0-7.64-1.79-7.64-1.79l-.1-1.17c-1.38.2-1.19,1.24-.73,5.24.2,1.69,1.59,12.77,1.69,17.75s-2.32,6.56-3.92,8.48a21.87,21.87,0,0,1-2.08,1.2c-3.43,1.71-10.08,4.35-13.09,5.7-1.88.85-1.79,3.12.15,4.42s6.64,2.22,12.28,1c3.07-.69,7.06-3.52,9.59-3.37s7.27.12,9.14-1.17,1.12-4,.59-6.4h0a69.33,69.33,0,0,1-1-11C183.68,375,185.59,364.33,186.15,360.62Z" style="opacity: 0.3; transform-origin: 169.164px 377.921px;" class="animable"></path></g><path d="M190.78,281.13a63.84,63.84,0,0,1-15.07-8.42s1.9,4.79,12.2,10.44l.52,28.53Z" style="fill: rgb(38, 50, 56); transform-origin: 183.245px 292.195px;" id="eltnfskqad5wr" class="animable"></path></g><path d="M228.47,235.89,216.91,219a41.08,41.08,0,0,1-3.56-6.55c-2.4-5.23-1.33-13.51,1.13-16,5.33.78,8.56,2.37,14,12.65,4.57,8.7,11,19.43,12.37,22.78,1.7,4.12,2.2,5.25-.3,8.72a174,174,0,0,1-19.32,21c-7.23,6.34-11.2,8.27-16,8.67s-6.7-.81-9-3.58-.1-4.63,2.4-4.84a20.2,20.2,0,0,0,6.85-1.71c1.63-.85,2.22-1.62.85-1.87-1.75-.33-3.35-.93-3.62-2.23-.34-1.61,1-1,3.16-1.32a38.76,38.76,0,0,1,8.22-.37c3.27.64,14.35-18.44,14.35-18.44" style="fill: rgb(255, 168, 167); transform-origin: 218.769px 233.397px;" id="el0onv2wp3a58m" class="animable"></path><path d="M211.43,195.25c6.59.9,8.67.82,12.27,5.26s17.19,29.07,18.54,32.85.73,5.47-1.92,8.65-16.89,18-16.89,18-4-.42-7.23-6.73L227.62,236s-13-14.55-15.37-19.72C208.79,208.56,211.43,195.25,211.43,195.25Z" style="fill: rgb(55, 71, 79); transform-origin: 226.699px 227.63px;" id="eltjbeom0bf1" class="animable"></path><path d="M214.4,195.63c-3.59-.18-10,6.73-13.19,8s-6.76-3.73-1.41-9.86A33.26,33.26,0,0,1,214.4,195.63Z" style="fill: rgb(107, 124, 133); transform-origin: 205.727px 198.722px;" id="eld21dkqnbec9" class="animable"></path><g id="eln5hmkgy2xa"><path d="M214.4,195.63c-3.59-.18-10,6.73-13.19,8s-6.76-3.73-1.41-9.86A33.26,33.26,0,0,1,214.4,195.63Z" style="fill: rgb(255, 255, 255); opacity: 0.5; transform-origin: 205.727px 198.722px;" class="animable"></path></g><path d="M185.66,193.36s-2.46-3.09-7.88-.41a15.44,15.44,0,0,0-2.56,4.57c-1.11,3.65-.49,4.87,1.19,4.87,2.45,0,3.53-2.58,5.52-4.95A35.76,35.76,0,0,1,185.66,193.36Z" style="fill: rgb(107, 124, 133); transform-origin: 180.161px 197.123px;" id="elwgsshpangch" class="animable"></path><g id="ellmeszwsev6e"><path d="M185.66,193.36s-2.46-3.09-7.88-.41a15.44,15.44,0,0,0-2.56,4.57c-1.11,3.65-.49,4.87,1.19,4.87,2.45,0,3.53-2.58,5.52-4.95A35.76,35.76,0,0,1,185.66,193.36Z" style="fill: rgb(255, 255, 255); opacity: 0.5; transform-origin: 180.161px 197.123px;" class="animable"></path></g></g><defs>     <filter id="active" height="200%">         <feMorphology in="SourceAlpha" result="DILATED" operator="dilate" radius="2"></feMorphology>                <feFlood flood-color="#32DFEC" flood-opacity="1" result="PINK"></feFlood>        <feComposite in="PINK" in2="DILATED" operator="in" result="OUTLINE"></feComposite>        <feMerge>            <feMergeNode in="OUTLINE"></feMergeNode>            <feMergeNode in="SourceGraphic"></feMergeNode>        </feMerge>    </filter>    <filter id="hover" height="200%">        <feMorphology in="SourceAlpha" result="DILATED" operator="dilate" radius="2"></feMorphology>                <feFlood flood-color="#ff0000" flood-opacity="0.5" result="PINK"></feFlood>        <feComposite in="PINK" in2="DILATED" operator="in" result="OUTLINE"></feComposite>        <feMerge>            <feMergeNode in="OUTLINE"></feMergeNode>            <feMergeNode in="SourceGraphic"></feMergeNode>        </feMerge>            <feColorMatrix type="matrix" values="0   0   0   0   0                0   1   0   0   0                0   0   0   0   0                0   0   0   1   0 "></feColorMatrix>    </filter></defs></svg>