<?xml version="1.0" encoding="UTF-8" standalone="no"?>
<svg
   xmlns:dc="http://purl.org/dc/elements/1.1/"
   xmlns:cc="http://creativecommons.org/ns#"
   xmlns:rdf="http://www.w3.org/1999/02/22-rdf-syntax-ns#"
   xmlns:svg="http://www.w3.org/2000/svg"
   xmlns="http://www.w3.org/2000/svg"
   xmlns:sodipodi="http://sodipodi.sourceforge.net/DTD/sodipodi-0.dtd"
   xmlns:inkscape="http://www.inkscape.org/namespaces/inkscape"
   sodipodi:docname="radix.svg"
   inkscape:version="1.0 (4035a4fb49, 2020-05-01)"
   id="svg8"
   version="1.1"
   viewBox="0 0 222.84149 166.09604"
   height="627.76459"
   width="842.23553">
  <defs
     id="defs2" />
  <sodipodi:namedview
     inkscape:window-maximized="1"
     inkscape:window-y="472"
     inkscape:window-x="1116"
     inkscape:window-height="1001"
     inkscape:window-width="1920"
     fit-margin-bottom="0"
     fit-margin-right="0"
     fit-margin-left="0"
     fit-margin-top="0"
     units="px"
     showgrid="true"
     inkscape:document-rotation="0"
     inkscape:current-layer="layer1"
     inkscape:document-units="px"
     inkscape:cy="488.7454"
     inkscape:cx="436.39352"
     inkscape:zoom="0.7"
     inkscape:pageshadow="2"
     inkscape:pageopacity="0.0"
     borderopacity="1.0"
     bordercolor="#666666"
     pagecolor="#ffffff"
     id="base">
    <inkscape:grid
       originy="-13.262276"
       originx="-34.535221"
       id="grid1102"
       type="xygrid" />
  </sodipodi:namedview>
  <metadata
     id="metadata5">
    <rdf:RDF>
      <cc:Work
         rdf:about="">
        <dc:format>image/svg+xml</dc:format>
        <dc:type
           rdf:resource="http://purl.org/dc/dcmitype/StillImage" />
        <dc:title></dc:title>
      </cc:Work>
    </rdf:RDF>
  </metadata>
  <g
     transform="translate(-34.53522,-13.262277)"
     id="layer1"
     inkscape:groupmode="layer"
     inkscape:label="Layer 1">
    <g
       inkscape:label="Layer 1"
       id="layer1-7"
       transform="matrix(1.0243239,0,0,1.0366497,126.12257,128.31781)">
      <text
         xml:space="preserve"
         style="font-style:normal;font-weight:normal;font-size:63.7434px;line-height:0;font-family:sans-serif;fill:#000000;fill-opacity:1;stroke:none;stroke-width:1.59359"
         x="19.269342"
         y="14.537828"
         id="text39"><tspan
           sodipodi:role="line"
           id="tspan37"
           x="18.074152"
           y="14.537828"
           style="font-style:normal;font-variant:normal;font-weight:normal;font-stretch:normal;font-size:63.7434px;line-height:1.05;font-family:'Roboto Condensed';-inkscape-font-specification:'Roboto Condensed, Normal';font-variant-ligatures:normal;font-variant-caps:normal;font-variant-numeric:normal;font-variant-east-asian:normal;text-align:center;letter-spacing:-2.39038px;text-anchor:middle;stroke-width:1.59359"><tspan
   style="font-style:normal;font-variant:normal;font-weight:normal;font-stretch:normal;font-size:63.7434px;line-height:1.05;font-family:'Roboto Condensed';-inkscape-font-specification:'Roboto Condensed, Normal';font-variant-ligatures:normal;font-variant-caps:normal;font-variant-numeric:normal;font-variant-east-asian:normal;text-align:center;letter-spacing:-2.39038px;text-anchor:middle;fill:#4e5054;fill-opacity:1;stroke-width:1.59359"
   id="tspan870">rad</tspan><tspan
   style="font-style:normal;font-variant:normal;font-weight:normal;font-stretch:normal;font-size:63.7434px;line-height:1.05;font-family:'Roboto Condensed';-inkscape-font-specification:'Roboto Condensed, Normal';font-variant-ligatures:normal;font-variant-caps:normal;font-variant-numeric:normal;font-variant-east-asian:normal;text-align:center;letter-spacing:-2.39038px;text-anchor:middle;fill:#ff4f1f;fill-opacity:1;stroke-width:1.59359"
   id="tspan864">IX</tspan> <tspan
   style="font-style:normal;font-variant:normal;font-weight:normal;font-stretch:normal;font-size:63.7434px;line-height:1.05;font-family:'Roboto Condensed';-inkscape-font-specification:'Roboto Condensed, Normal';font-variant-ligatures:normal;font-variant-caps:normal;font-variant-numeric:normal;font-variant-east-asian:normal;text-align:center;letter-spacing:-2.39038px;text-anchor:middle;fill:#4e5054;fill-opacity:1;stroke-width:1.59359"
   id="tspan872">Day</tspan></tspan></text>
      <text
         xml:space="preserve"
         style="font-style:normal;font-weight:normal;font-size:20.2603px;line-height:1.25;font-family:sans-serif;fill:#959699;fill-opacity:1;stroke:none;stroke-width:1.51951"
         x="-94.196495"
         y="42.62434"
         id="text1013"
         transform="scale(0.95351854,1.0487473)"><tspan
           sodipodi:role="line"
           id="tspan1011"
           x="-94.196495"
           y="42.62434"
           style="font-style:normal;font-variant:normal;font-weight:normal;font-stretch:normal;font-size:20.2603px;font-family:'Roboto Condensed';-inkscape-font-specification:'Roboto Condensed, ';fill:#959699;fill-opacity:1;stroke-width:1.51951">A Genesys IX Team initiative</tspan></text>
    </g>
    <path
       id="path36"
       d="m 153.45833,33.056371 c 3.57188,0 6.5484,2.976581 6.5484,6.548456 0,3.571875 -2.97652,6.548456 -6.5484,6.548456 h -16.51995 c -3.57187,0 -6.5484,-2.976581 -6.5484,-6.548456 0,-3.571875 2.97653,-6.548456 6.5484,-6.548456 h 16.51995 m 0,-4.167169 h -16.51995 c -5.95311,0 -10.71562,4.762519 -10.71562,10.715625 0,5.953106 4.76251,10.715625 10.71562,10.715625 h 16.51995 c 5.9531,0 10.71563,-4.762519 10.71563,-10.715625 0.14906,-5.953106 -4.76253,-10.715625 -10.71563,-10.715625 z"
       class="st1"
       style="fill:#ff4f1f;stroke-width:1.48827" />
    <path
       id="path38"
       d="m 153.45833,58.208333 c 3.57188,0 6.5484,2.976582 6.5484,6.548457 0,3.571875 -2.97652,6.548456 -6.5484,6.548456 h -6.99491 c -3.57187,0 -6.54846,-2.976581 -6.54846,-6.548456 0,-3.571875 2.97659,-6.548457 6.54846,-6.548457 h 6.99491 m 0,-4.167168 h -6.99491 c -5.95316,0 -10.71562,4.762518 -10.71562,10.715625 0,5.953106 4.76246,10.715625 10.71562,10.715625 h 6.99491 c 5.9531,0 10.71563,-4.762519 10.71563,-10.715625 0.14906,-5.953107 -4.76253,-10.715625 -10.71563,-10.715625 z"
       class="st1"
       style="fill:#ff4f1f;stroke-width:1.48827" />
    <path
       id="path40"
       d="m 157.77433,16.982933 c 1.48827,0 2.82775,1.190644 2.82775,2.827744 0,1.488319 -1.19065,2.827744 -2.82775,2.827744 0,0 -0.14906,0 -0.14906,0 -1.48826,0 -2.53006,-1.190644 -2.6789,-2.678906 0,-0.744132 0.29756,-1.488263 0.74413,-2.083613 0.59535,-0.595294 1.33948,-0.892969 2.08361,-0.892969 m 0,-3.720656 c -3.72071,0 -6.54845,3.125363 -6.39961,6.697238 0.14906,3.2742 2.82773,5.953106 6.10193,6.101943 0.14907,0 0.14907,0 0.29757,0 3.57187,0 6.39962,-2.827743 6.39962,-6.399618 0,-3.571875 -2.82775,-6.399563 -6.39962,-6.399563 z"
       class="st1"
       style="fill:#ff4f1f;stroke-width:1.48827" />
  </g>
  <style
     type="text/css"
     id="style958"> .st0{fill:#4E5054;} .st1{fill:#FF4F1F;} </style>
</svg>
