<svg enable-background="new 0 0 2176.88 700" height="400" viewBox="0 0 2176.88 700" width="500" xmlns="http://www.w3.org/2000/svg"><path d="m1569.47 700c-18.71 0-33.87-15.16-33.87-33.87v-632.26c0-18.71 15.16-33.87 33.87-33.87s33.87 15.16 33.87 33.87v632.26c0 18.71-15.17 33.87-33.87 33.87zm579.26-88.72c12.11-14.26 10.37-35.63-3.89-47.74s-35.63-10.37-47.74 3.89c-35 41.2-87.39 64.83-143.76 64.83-93.38 0-169.35-75.97-169.35-169.35s75.97-169.35 169.35-169.35c75.88 0 139.27 54.52 153.03 126.45h-207.23c-18.71 0-33.87 15.16-33.87 33.87s15.16 33.87 33.87 33.87h243.87c18.71 0 33.87-15.16 33.87-33.87v-4.52c0-123.27-100.28-223.55-223.55-223.55-130.74 0-237.1 106.36-237.1 237.1s106.37 237.09 237.11 237.09c76.28 0 147.5-32.34 195.39-88.72zm-726.04 54.85v-216.78c0-123.27-100.28-223.55-223.55-223.55-130.74 0-237.1 106.36-237.1 237.1s106.37 237.1 237.1 237.1c18.71 0 33.87-15.16 33.87-33.87s-15.16-33.87-33.87-33.87c-93.38 0-169.35-75.97-169.35-169.35s75.97-169.35 169.35-169.35c85.91 0 155.81 69.89 155.81 155.81v216.77c0 18.71 15.16 33.87 33.87 33.87 18.71-.01 33.87-15.17 33.87-33.88zm-1025.27-101.61c0-33.06-12.14-78.15-69.99-105.24-34.71-16.26-78.26-22.94-120.38-29.4-98.68-15.13-133.72-27.77-133.72-68.59 0-44.47 61.67-67.74 122.59-67.74 38.39 0 93.56 7.74 138.42 44.63 14.45 11.88 35.8 9.8 47.68-4.65s9.8-35.79-4.64-47.68c-60.35-49.64-131.99-60.06-181.45-60.06-130.77 0-190.33 70.23-190.33 135.48 0 33.28 12.19 78.67 70.26 105.96 34.9 16.4 78.64 23.1 120.94 29.59 98.07 15.04 132.89 27.52 132.89 67.68 0 40.52-48.37 67.74-120.35 67.74-73.69 0-129.85-29.88-156.76-47.7-15.6-10.32-36.61-6.05-46.94 9.55s-6.05 36.61 9.55 46.94c57.42 38.03 126.37 58.97 194.14 58.97 129.93 0 188.09-68.05 188.09-135.48zm491.12 35.51c10.35-15.58 6.12-36.6-9.46-46.96-15.58-10.35-36.6-6.12-46.96 9.46-29.01 43.66-77.56 69.72-129.85 69.72-93.38 0-169.35-75.97-169.35-169.35s75.97-169.35 169.35-169.35c52.3 0 100.84 26.06 129.85 69.72 10.36 15.58 31.38 19.82 46.96 9.46 15.58-10.35 19.82-31.38 9.46-46.96-41.6-62.6-111.24-99.97-186.27-99.97-130.74 0-237.1 106.36-237.1 237.1s106.36 237.1 237.09 237.1c75.04 0 144.67-37.37 186.28-99.97z"/></svg>